<svg width="16" height="16" viewBox="0 0 16 16" fill="none" xmlns="http://www.w3.org/2000/svg">
<g clip-path="url(#clip0_776_518)">
<path d="M8.69754 10.62L8.70877 8.14786C8.64138 8.17656 8.5665 8.19706 8.49162 8.20526C8.41674 8.21346 8.33438 8.21756 8.24827 8.21756C8.00865 8.21756 7.76904 8.17246 7.53692 8.07817C7.30105 7.98388 7.09888 7.87729 6.92666 7.7543L6.87425 7.78299C6.92666 7.91418 6.96036 8.04947 6.98282 8.18476C7.00529 8.32005 7.01652 8.45124 7.01652 8.57013C7.01652 8.95549 6.91918 9.29577 6.72824 9.59504C6.5373 9.89431 6.27522 10.1321 5.95324 10.3043C5.62752 10.4765 5.25688 10.5626 4.83756 10.5626C4.27971 10.5626 3.79675 10.4109 3.38117 10.1075C2.9656 9.80412 2.59495 9.39416 2.26923 8.8858C1.98446 8.43777 1.71114 7.95214 1.44676 7.42342C1.38124 7.2924 1.42683 7.13353 1.55068 7.05528C1.69481 6.96423 1.88592 7.01771 1.96447 7.16901C2.14122 7.50943 2.32388 7.83779 2.50884 8.15606C2.74471 8.56193 3.01427 8.8981 3.32502 9.15638C3.63202 9.41466 4.01015 9.54174 4.45568 9.54174C4.74022 9.54174 5.00603 9.47205 5.25688 9.33676C5.51146 9.20147 5.71738 9.01289 5.87837 8.76691C6.03935 8.52093 6.12172 8.23805 6.12172 7.91008C6.12172 7.56161 6.01689 7.29923 5.80723 7.12295C5.59757 6.94666 5.35047 6.85647 5.06968 6.85647C4.83007 6.85647 4.58297 6.90977 4.32464 7.01636C4.06631 7.12295 3.84168 7.22954 3.64325 7.33203L3.09289 6.30712C3.32502 6.16773 3.5796 6.04064 3.85665 5.92585C4.1337 5.81516 4.41824 5.75776 4.71026 5.75776H4.82633C5.05845 5.59788 5.23441 5.40929 5.35422 5.18791C5.47402 4.96653 5.53393 4.74515 5.53393 4.51967C5.53393 4.27779 5.46654 4.07281 5.32801 3.91702C5.18949 3.76123 4.97234 3.67924 4.67283 3.67924C4.43321 3.67924 4.12621 3.74483 3.74808 3.86782C3.5684 3.92626 3.39211 3.99951 3.21919 4.08626C2.90738 4.24267 2.51303 4.15352 2.3464 3.84704C2.19956 3.57695 2.28453 3.23483 2.55958 3.09751C2.78025 2.98734 3.00145 2.8992 3.22393 2.83471C3.60581 2.72402 3.93153 2.66663 4.20484 2.66663C4.59795 2.66663 4.93116 2.75682 5.20821 2.9413C5.48151 3.12579 5.7024 3.35537 5.87462 3.63824C6.04684 3.92112 6.17039 4.2081 6.25276 4.50327C6.33512 4.79845 6.37631 5.05672 6.37631 5.2822C6.37631 5.43389 6.35384 5.58968 6.31266 5.76186C6.27148 5.92995 6.16665 6.11443 6.00566 6.31122C6.05807 6.35631 6.11423 6.42191 6.17414 6.508C6.32015 6.68429 6.48862 6.84417 6.67956 6.98766C6.8705 7.13115 7.15504 7.19674 7.53318 7.19674C8.00491 7.19674 8.40177 7.04096 8.72749 6.73348L8.75369 3.90882H7.91003C7.61736 3.90882 7.38035 3.67113 7.38117 3.37847C7.382 3.08698 7.61853 2.85111 7.91003 2.85111H10.8064C11.0974 2.85111 11.3333 3.08697 11.3333 3.37792C11.3333 3.66886 11.0974 3.90472 10.8064 3.90472H9.83194L9.85815 8.70132L8.70128 11.3333L8.69754 10.62Z" fill="#6E787E"/>
<path d="M12.3733 6.5675H11.3565L9.28204 12.6976C9.17641 13.0097 9.40853 13.3333 9.73805 13.3333C9.94461 13.3333 10.1282 13.2016 10.1942 13.0058L10.6552 11.6398H13.0747L13.5389 13.0065C13.6052 13.2019 13.7887 13.3333 13.995 13.3333C14.3248 13.3333 14.5571 13.0095 14.4514 12.6971L12.377 6.5675H12.3733ZM11.0411 10.5136L11.8649 8.07194L12.6888 10.5136H11.0411Z" fill="#6E787E"/>
</g>
<defs>
<clipPath id="clip0_776_518">
<rect width="13.3333" height="10.6667" fill="white" transform="translate(1.33325 2.66663)"/>
</clipPath>
</defs>
</svg>
