<svg width="30" height="30" viewBox="0 0 30 30" fill="none" xmlns="http://www.w3.org/2000/svg">
<g clip-path="url(#clip0_244_13939)">
<rect width="30" height="30" rx="7.68902" fill="#B5CDF7"/>
<path d="M29.8151 26.1528C28.9147 25.9424 28.3988 25.8864 27.4905 26.1678C26.9876 26.3236 26.4597 26.5786 26.007 26.8415C25.8292 26.7048 25.655 26.5391 25.4273 26.4994C25.3522 26.4862 25.2821 26.5259 25.2104 26.4951C25.0631 26.4319 24.6785 25.9569 24.4879 25.8692C24.1585 24.8593 23.9614 23.8083 23.8597 22.7501L24.1233 25.8085C23.7931 25.7293 23.421 25.4007 23.0497 25.7072C23.0323 25.7216 22.9711 25.7635 22.9687 25.768C22.7188 25.5403 22.3862 25.1117 22.0183 25.4151C21.6626 25.7086 21.9397 26.0702 22.1482 26.3353C22.5938 26.9016 23.1877 27.4137 23.6463 27.9768C23.7949 28.6758 22.7374 28.3284 22.3811 28.2798C22.3637 28.1812 22.4184 27.662 22.3477 27.6345L20.5784 27.6519V29.4344H22.3507C22.3833 29.4344 22.3807 29.3179 22.4014 29.2926C23.2578 29.5701 23.8689 30.4933 24.751 30.8117L24.832 31.5206C22.4018 31.5184 19.9703 31.5202 17.54 31.5206C18.0256 30.6831 18.5354 29.8597 19.0221 29.0226C19.501 28.1988 20.0219 27.3321 20.4603 26.4907C20.5407 26.3365 20.7315 26.1204 20.5581 25.991C20.6083 25.8638 20.5468 25.8307 20.4973 25.7276C20.9302 25.7888 21.5559 25.1761 21.4899 24.7351C21.7919 24.1305 21.4775 23.4937 20.8856 23.2429C20.8338 21.883 20.5589 20.3424 19.8897 19.1447C19.9093 19.108 19.961 19.1271 19.9918 19.1331C20.6377 19.2575 21.7196 19.6622 22.3398 19.9253C23.4856 20.4117 24.3321 21.1009 25.2576 21.9093C26.6542 23.1295 28.032 24.4491 29.3897 25.7173C29.5321 25.8504 29.6947 26.0007 29.8148 26.153L29.8151 26.1528Z" fill="#ECEBFB"/>
<path d="M9.25601 19.1039C8.589 20.2898 8.37733 21.7946 8.38564 23.1409C7.67366 23.3976 7.37185 24.1239 7.29448 24.8294C7.27017 25.0506 7.20454 25.3498 7.45328 25.4642L7.47293 27.7626C7.46077 27.9576 7.35706 28.1498 7.14945 28.1784C7.07815 28.0561 6.36921 27.9473 6.23228 27.9803C6.07469 28.0182 6.004 28.2596 6.01514 28.4012C5.90677 28.3947 5.80003 28.3619 5.69105 28.3607V27.7328C6.29649 27.4399 6.33234 26.587 5.71131 26.3757C5.68801 25.984 5.7423 25.5574 5.71212 25.1697C5.67505 24.6953 5.50592 24.6718 5.08339 24.654C5.08339 24.1267 5.17454 23.6009 5.13403 23.0739L4.96186 24.654C4.28512 24.6345 3.27255 24.5865 2.62174 24.6534C2.43742 24.6722 2.24134 24.7931 2.20853 24.9896C2.15425 25.3143 2.21035 25.9161 2.20711 26.2744C1.94339 26.1891 1.69262 26.0704 1.42606 25.9921C0.920891 25.8436 0.400123 25.8383 -0.000732422 25.4439C1.30068 24.2311 2.62903 22.974 3.96914 21.8079C5.57175 20.4134 6.52274 19.8991 8.56794 19.2768L9.25601 19.1041V19.1039Z" fill="#ECEBFB"/>
<path d="M28.5394 28.4819C29.3738 28.7898 30.3081 28.8747 31.0714 28.3401V30.4366C31.0714 30.6405 30.8743 31.0797 30.7374 31.2369C30.6436 31.3444 30.5273 31.3957 30.4434 31.5C29.5131 31.5026 28.5785 31.5569 27.6482 31.5C27.8147 31.4447 28.0337 31.2445 28.1546 31.1151C28.3685 31.0266 28.6668 30.4036 28.727 30.1785C28.8123 29.8593 28.8437 29.4516 28.7622 29.1301C28.7588 29.1165 28.7464 29.103 28.742 29.0896C28.7398 29.0701 28.7454 29.0473 28.742 29.0288C28.7396 29.0159 28.7264 29.0015 28.7217 28.9883C28.7209 28.9749 28.7229 28.9612 28.7217 28.9478C28.7096 28.8058 28.6053 28.6108 28.5394 28.4819Z" fill="#ECEBFB"/>
<path d="M0.586115 28.6031C0.485446 28.829 0.429743 29.0664 0.403816 29.3121C0.324415 30.0639 0.626829 31.2086 1.41659 31.4996C0.466001 31.5367 -0.488032 31.5199 -1.43943 31.5199C-1.55023 31.3979 -1.6673 31.3036 -1.754 31.1559C-1.83421 31.0194 -1.98633 30.6052 -1.98633 30.4565V28.5424C-1.19191 29.0793 -0.253271 28.9742 0.586115 28.6031Z" fill="#ECEBFB"/>
<path d="M29.8149 26.1524C29.8965 26.1714 30.2917 26.6099 30.2603 26.6383C30.2388 26.6578 29.7974 26.4404 29.7239 26.4153C28.5546 26.0155 27.1484 26.3709 26.0676 26.8814C26.055 26.8716 26.0309 26.8593 26.0068 26.8409C26.4595 26.5779 26.9874 26.3229 27.4903 26.1672C28.3986 25.8858 28.9147 25.9419 29.8149 26.1522V26.1524Z" fill="#E1DEF6"/>
<path d="M2.20719 26.274C2.20618 26.3751 2.208 26.4768 2.20719 26.5779C1.10104 26.2155 -0.164924 26.0267 -1.20605 26.6785C-0.925111 26.1983 -0.411635 25.8266 -0.000651956 25.4436C0.400204 25.8381 0.920769 25.8432 1.42614 25.9917C1.69291 26.0701 1.94347 26.1888 2.20719 26.274Z" fill="#E1DEF6"/>
<path d="M18.5938 18.6381C18.5498 18.6792 18.4429 18.6585 18.4803 18.7211L19.7888 20.8662C19.9847 21.5405 20.168 22.4313 20.1534 23.1348L18.6343 23.9859C18.6207 24.0294 18.6634 24.0308 18.6748 24.0462C18.802 24.2219 19.2032 24.5613 19.3835 24.725C19.4394 24.7758 19.5182 24.8443 19.5863 24.8767C19.5928 24.9356 20.0736 25.3835 20.1532 25.4542C20.2328 25.5249 20.4166 25.7159 20.4978 25.7274C20.5472 25.8305 20.6088 25.8635 20.5585 25.9907C20.5577 25.9928 20.5288 25.9859 20.5194 26.0067C20.1638 26.7995 19.6047 27.6545 19.1777 28.4281C18.6112 29.4546 18.0375 30.4781 17.5 31.5204C17.4797 31.5204 17.4595 31.5204 17.4392 31.5204L17.4189 31.5002L17.4392 29.7785V29.2518C17.4441 28.9219 17.4518 28.5895 17.4595 28.2593V27.9555C17.4645 27.7329 17.4716 27.5097 17.4797 27.2871C17.4878 27.0645 17.5265 26.8251 17.4797 26.5984C17.4888 26.3752 17.4939 26.1536 17.5 25.93V25.6261C17.5077 25.3497 17.5119 25.0722 17.5202 24.7957C17.5271 24.568 17.5707 24.3341 17.5202 24.107C17.5312 23.8364 17.5342 23.5676 17.5405 23.2968V22.7702C17.5429 22.6677 17.5581 22.5692 17.5607 22.4663C17.563 22.3725 17.5585 22.2753 17.5607 22.1828C17.563 22.0902 17.5581 21.9934 17.5607 21.8992C17.5652 21.7377 17.5769 21.5757 17.581 21.4131C17.6116 21.378 17.6122 21.3274 17.581 21.2915C17.5873 21.0687 17.5923 20.8457 17.6012 20.6231C17.6051 20.5261 17.6298 20.408 17.6012 20.3193C17.6138 20.1246 17.6138 19.9269 17.6215 19.7319V19.5901C17.6274 19.4278 17.6363 19.2658 17.6418 19.104C17.644 19.0375 17.6397 18.9656 17.6418 18.9014C17.645 18.7991 17.6588 18.6962 17.662 18.5976C17.6624 18.584 17.6616 18.5706 17.662 18.5571C17.6679 18.3596 17.6709 18.1672 17.6823 17.9697C18.0365 18.1167 18.3298 18.3675 18.5938 18.6381Z" fill="#FDFDFD"/>
<path d="M11.4839 17.9491C11.493 18.1437 11.4969 18.3416 11.5042 18.5365C11.5423 19.5545 11.5617 20.5766 11.5852 21.595C11.5874 21.6959 11.583 21.798 11.5852 21.8989C11.6579 25.1051 11.713 28.3129 11.7473 31.5201C11.7337 31.5201 11.7203 31.5201 11.7067 31.5201C11.725 31.4547 11.6595 31.4403 11.646 31.4188C10.9417 30.3125 10.3215 28.9607 9.66438 27.7998C9.36501 27.271 9.05267 26.7492 8.75289 26.2199C8.7144 26.1521 8.65728 26.0253 8.5874 25.9904C8.56107 25.9062 8.50435 25.7816 8.56694 25.7227L9.68119 24.7346C9.71765 24.9023 9.68889 25.192 9.84324 25.3018L9.85215 27.9564C9.93641 28.3012 10.2133 28.5675 10.5724 28.6034C10.6508 28.699 11.2796 28.7996 11.4037 28.7769C11.7475 28.7142 11.7645 28.0386 11.4321 27.9767C11.2929 27.9507 10.6344 28.0453 10.5522 28.1577C10.3768 28.1559 10.2696 28.0204 10.2297 27.8624L10.2281 25.3625C10.2374 25.3597 10.3543 25.2458 10.3666 25.2276C10.5092 25.0188 10.3652 24.4277 10.2889 24.1877C10.7185 23.9975 10.3855 23.8697 10.1268 23.7826C9.91271 23.3992 9.51672 23.148 9.09237 23.0601C9.10796 22.3747 9.1661 21.7364 9.3166 21.0684C9.41726 21.0113 9.50254 20.8462 9.56796 20.7425C9.98178 20.087 10.3644 19.4103 10.7841 18.7583C10.8552 18.5697 10.5263 18.7818 10.4306 18.7391C10.7335 18.4071 11.0748 18.1399 11.4839 17.9491Z" fill="#FCFCFC"/>
<path d="M9.68097 24.7343L8.56671 25.7223C8.50412 25.7813 8.56084 25.9061 8.58717 25.9901C8.65158 26.1963 8.77717 26.4307 8.86771 26.6312C9.5406 28.1232 10.3255 29.5899 11.0488 31.0533L11.646 31.4183C11.6595 31.4398 11.7249 31.4542 11.7067 31.5196C9.64187 31.5216 7.57298 31.4941 5.50854 31.5196C5.59017 31.4453 5.66168 31.3659 5.69084 31.2563C6.38905 30.9652 6.44313 30.2986 5.85289 29.8384C5.83608 29.8254 5.80792 29.8218 5.81258 29.7981C6.02384 29.7647 6.17211 29.7059 6.31876 29.5548C6.5359 29.331 6.56973 29.0691 6.4403 28.7851C6.68275 28.7748 6.91022 28.6802 7.12898 28.6028C7.29508 28.5441 7.3759 28.5589 7.53429 28.4309C8.16464 27.9206 7.7089 26.1965 7.85818 25.443C7.87134 25.3768 7.93312 25.3531 7.95844 25.2698C8.09983 24.8072 7.98619 23.9919 8.62221 23.7865C9.34635 23.5528 9.56085 24.1803 9.68117 24.7341L9.68097 24.7343Z" fill="#ECEBFB"/>
<path d="M20.5583 25.9907C20.7315 26.1201 20.5407 26.336 20.4605 26.4904C20.0222 27.3318 19.5012 28.1985 19.0224 29.0223C18.5356 29.8594 18.0258 30.6828 17.5403 31.5203H17.4998C18.0373 30.4782 18.611 29.4545 19.1775 28.428C19.6045 27.6542 20.1636 26.7995 20.5192 26.0067C20.5286 25.9858 20.5575 25.9927 20.5583 25.9907Z" fill="#E1DEF6"/>
<path d="M22.3813 28.2791C21.9262 28.2167 21.4528 28.1138 21.0165 28.3221C20.7609 28.444 20.4358 28.8523 20.846 28.9939C21.2782 29.1432 21.9001 29.1292 22.4016 29.2917C22.3809 29.317 22.3836 29.4335 22.351 29.4335H20.5786V27.651L22.3479 27.6336C22.4186 27.6611 22.3637 28.1803 22.3813 28.2789V28.2791Z" fill="#ECEBFB"/>
<path d="M24.4886 25.8688C24.4052 25.8305 24.2125 25.8293 24.1235 25.8081L23.8596 22.7497C23.9614 23.8081 24.159 24.8589 24.4886 25.8688Z" fill="#B8B6DD"/>
<path d="M7.85835 25.4434C7.70906 26.1969 8.16481 27.921 7.53446 28.4312C7.37627 28.5595 7.29545 28.5445 7.12915 28.6032C7.17067 28.4701 7.22759 28.3123 7.14941 28.1778C7.35702 28.1493 7.46093 27.9573 7.47289 27.762L7.45324 25.4636C7.60677 25.5341 7.70967 25.5005 7.85835 25.4434Z" fill="#797FA1"/>
<path d="M7.14887 28.1775C7.22706 28.312 7.17014 28.4698 7.12861 28.6029C6.90986 28.6803 6.68239 28.7749 6.43993 28.7852C6.20152 28.7953 6.0336 28.6412 6.01456 28.4003C6.00342 28.2585 6.07411 28.0173 6.2317 27.9794C6.36863 27.9464 7.07777 28.0554 7.14887 28.1775Z" fill="#3A384B"/>
<path d="M26.7362 27.3074H26.655C26.6818 27.3074 26.7098 27.3052 26.7362 27.3074Z" fill="#B8B6DD"/>
<path d="M22.9684 25.7678C22.7575 26.1454 23.0865 26.6929 23.3227 26.9833C23.3561 27.0245 23.697 27.4087 23.7379 27.3678C23.7646 27.341 23.3105 26.848 23.2641 26.7786C23.0496 26.4565 22.8884 26.0929 23.0494 25.7071C23.4207 25.4006 23.7928 25.7291 24.123 25.8083C24.2119 25.8296 24.4043 25.8308 24.4876 25.8691C24.6782 25.9568 25.0628 26.4318 25.2101 26.495C25.2818 26.5258 25.3519 26.4861 25.427 26.4992C25.6547 26.5389 25.8289 26.7046 26.0067 26.8414C26.0308 26.8598 26.0549 26.8721 26.0675 26.8819C26.2384 27.016 26.4011 27.1701 26.5739 27.3072C26.5767 27.3095 26.5694 27.3575 26.6144 27.3477C26.6271 27.4065 27.0772 27.7719 27.1698 27.8962C27.2901 28.0583 27.3288 28.2203 27.4246 28.3808C27.7039 29.4257 26.8382 30.7069 25.8042 30.9127C25.7466 30.9242 25.6622 30.9289 25.6016 30.9329C25.5745 30.8993 25.487 30.8993 25.4598 30.9329C25.3871 30.9321 25.3411 30.9189 25.2775 30.9127C25.2463 30.9096 25.2198 30.9131 25.2167 30.9127C25.096 30.8956 24.8609 30.8511 24.7509 30.8114C23.8687 30.493 23.2576 29.5697 22.4012 29.2922C21.8997 29.1298 21.2781 29.1438 20.8456 28.9945C20.4354 28.8529 20.7607 28.4446 21.0162 28.3226C21.4525 28.1144 21.9256 28.2173 22.381 28.2797C22.7373 28.3285 23.7948 28.6757 23.6461 27.9767C23.1876 27.4136 22.5935 26.9015 22.148 26.3352C21.9396 26.07 21.6623 25.7085 22.0182 25.415C22.386 25.1116 22.7186 25.5402 22.9686 25.7678H22.9684ZM24.6494 27.7324C24.2824 27.2321 23.6935 26.8519 23.5965 26.1932C23.5779 26.831 24.2295 27.3267 24.6494 27.7324ZM25.7029 30.1227C25.7272 30.0976 25.6745 29.5371 25.6816 29.4229C25.6861 29.3524 25.6962 29.2744 25.7059 29.2041C25.7302 29.0299 25.9948 28.3404 25.9832 28.2943C25.9749 28.2616 25.5666 27.8967 25.4997 27.8241C25.2372 27.5398 24.954 27.2305 24.9334 26.8211C24.8242 27.1974 25.1074 27.5102 25.3377 27.7634C25.4201 27.8539 25.9139 28.275 25.9226 28.3141C25.9281 28.338 25.7606 28.6963 25.7375 28.7699C25.6044 29.1944 25.5623 29.6171 25.6217 30.0617C25.0545 29.8948 24.6879 29.371 24.5277 28.8264C24.5345 29.3244 24.9502 29.858 25.4055 30.0451C25.4485 30.0627 25.6782 30.148 25.7029 30.1227ZM24.7002 27.7528V27.7731L24.7104 27.763L24.7002 27.7528Z" fill="#ECEBFB"/>
<path d="M26.6148 27.307C26.6166 27.3198 26.6121 27.3356 26.6148 27.3475C26.5698 27.3573 26.5771 27.3092 26.5742 27.307H26.6148Z" fill="#B8B6DD"/>
<path d="M23.049 25.7068C22.888 26.0926 23.049 26.4562 23.2637 26.7783C23.3101 26.8479 23.7644 27.341 23.7375 27.3675C23.6966 27.4082 23.3557 27.0242 23.3222 26.983C23.0859 26.6926 22.7571 26.1451 22.968 25.7675C22.9704 25.7631 23.0316 25.7211 23.049 25.7068Z" fill="#ECEBFB"/>
<path d="M25.7023 30.1226C25.6776 30.1479 25.4479 30.0626 25.405 30.045C24.9496 29.8579 24.534 29.3243 24.5271 28.8263C24.6873 29.3709 25.0539 29.8945 25.6211 30.0616C25.5617 29.6172 25.6041 29.1943 25.737 28.7697C25.76 28.6962 25.9276 28.3381 25.9221 28.314C25.9134 28.2747 25.4194 27.8536 25.3371 27.7633C25.1068 27.5103 24.8236 27.1973 24.9328 26.821C24.9535 27.2303 25.2366 27.5396 25.4992 27.824C25.566 27.8963 25.9744 28.2613 25.9827 28.2941C25.9942 28.3403 25.7297 29.0298 25.7054 29.204C25.6956 29.2741 25.6855 29.3523 25.6811 29.4228C25.674 29.537 25.7266 30.0975 25.7023 30.1226Z" fill="#ECEBFB"/>
<path d="M24.6495 27.732C24.2296 27.3263 23.5779 26.8308 23.5966 26.1928C23.6936 26.8513 24.2824 27.2315 24.6495 27.732Z" fill="#ECEBFB"/>
<path d="M24.6997 27.753L24.7095 27.7628L24.6997 27.7726V27.753Z" fill="#BF7562"/>
<path d="M10.4305 18.7392C10.5259 18.7819 10.8548 18.5697 10.7839 18.7584C10.3642 19.4107 9.9818 20.0872 9.56778 20.7427C9.50235 20.8464 9.41708 21.0112 9.31641 21.0686C9.50883 20.215 9.83555 19.3916 10.4305 18.7392Z" fill="#ECEBFB"/>
<path d="M10.2882 24.1885C10.2592 24.0974 10.1692 23.8603 10.126 23.7828C10.385 23.87 10.7184 23.998 10.2882 24.1885Z" fill="#ECEBFB"/>
<path d="M19.9097 23.4179C19.5052 23.7272 19.3733 24.3253 19.6261 24.775C19.6162 24.7902 19.585 24.8708 19.5856 24.8763C19.5175 24.8439 19.4387 24.7754 19.3828 24.7246C19.2025 24.5609 18.8013 24.2214 18.6741 24.0458L19.9097 23.4179Z" fill="#ECEBFB"/>
<path d="M18.5934 18.6378C19.1984 19.2583 19.5489 20.0409 19.7885 20.8659L18.48 18.7209C18.4425 18.6585 18.5497 18.6792 18.5934 18.6378Z" fill="#ECEBFB"/>
<path d="M20.1528 23.1346C20.152 23.1758 20.1745 23.2568 20.1642 23.2764C20.1557 23.2928 19.9563 23.3824 19.9098 23.4182L18.6742 24.0461C18.663 24.0305 18.6203 24.0291 18.6337 23.9858L20.1528 23.1346Z" fill="#E1DEF6"/>
<path d="M2.20679 27.3478C2.20233 27.4444 2.21246 27.5356 2.18653 27.6314C2.15149 27.7604 1.95542 27.8998 1.86609 28.03C1.77677 28.1602 1.64835 28.4256 1.61938 28.5834C1.36092 28.9034 1.29833 29.4191 1.3358 29.8189C1.31008 29.8505 1.31514 29.8919 1.2645 29.9016C1.12879 29.9275 0.613494 29.5319 0.453881 29.4754L0.404053 29.3126C0.42998 29.0669 0.485682 28.8295 0.586352 28.6036C0.878436 27.9484 1.50737 27.4819 2.20679 27.3478Z" fill="#8BABFD"/>
<path d="M1.33538 29.8187C1.39878 30.4932 1.90759 31.1076 2.53085 31.3476L3.25965 31.5404C2.88877 31.5451 1.68762 31.5998 1.4164 31.4999C0.626638 31.2088 0.324224 30.0642 0.403625 29.3123L0.453454 29.4752C0.613067 29.5317 1.12857 29.9271 1.26408 29.9014C1.31472 29.8916 1.30965 29.8503 1.33538 29.8187Z" fill="#788BCE"/>
<path d="M26.6544 27.3074H26.7354C27.5197 27.375 28.1788 27.7795 28.5382 28.4822C28.604 28.611 28.7083 28.8061 28.7205 28.948C28.6881 28.9726 28.7166 28.9778 28.7205 28.9886C28.7251 29.0017 28.7383 29.0161 28.7407 29.0291C28.7022 29.0635 28.7348 29.0722 28.7407 29.0898C28.7452 29.1032 28.7575 29.1168 28.761 29.1303C28.7276 29.2966 28.5244 29.2657 28.411 29.3171C28.3664 29.3374 28.3413 29.3933 28.3022 29.4109C28.1728 29.469 27.9955 29.5835 27.8697 29.5152C27.8499 28.8946 27.7014 28.8443 27.4241 28.3809C27.3281 28.2205 27.2894 28.0584 27.1693 27.8964C27.0769 27.772 26.6267 27.4066 26.6139 27.3479C26.6113 27.3359 26.6157 27.3201 26.6139 27.3074C26.6275 27.3074 26.6408 27.3074 26.6544 27.3074Z" fill="#8BABFD"/>
<path d="M27.8698 29.5153C27.8945 30.2854 27.5923 30.804 26.9384 31.1868C26.8262 31.2526 26.6625 31.2867 26.5734 31.3383L25.8037 30.9129C26.8378 30.7072 27.7035 29.426 27.4241 28.381C27.7014 28.8445 27.8499 28.8947 27.8698 29.5153Z" fill="#BF7562"/>
<path d="M28.1542 31.1153C27.9765 31.1889 27.4924 31.1084 27.2372 31.1605C27.0324 31.2024 26.7397 31.4647 26.4932 31.4392C26.491 31.4214 26.5686 31.3414 26.574 31.3381C26.6632 31.2865 26.8268 31.2525 26.939 31.1866C27.5929 30.8038 27.8951 30.2853 27.8704 29.5152C27.9964 29.5834 28.1736 29.4692 28.3028 29.4108C28.3419 29.3932 28.3672 29.3373 28.4116 29.3171C28.5248 29.2656 28.728 29.2966 28.7616 29.1303C28.843 29.4518 28.8117 29.8595 28.7264 30.1787C28.6662 30.404 28.3679 31.0268 28.154 31.1153H28.1542Z" fill="#788BCE"/>
<path d="M28.7412 29.0901C28.7353 29.0724 28.7026 29.0637 28.7412 29.0292C28.7446 29.0477 28.7389 29.0706 28.7412 29.0901Z" fill="#788BCE"/>
<path d="M28.7214 28.9887C28.7175 28.9779 28.6889 28.9727 28.7214 28.9481C28.7226 28.9615 28.7206 28.9753 28.7214 28.9887Z" fill="#788BCE"/>
<path d="M8.58736 25.9907C8.65704 26.0257 8.71436 26.1525 8.75285 26.2202C9.05263 26.7494 9.36497 27.2712 9.66434 27.8001C10.3214 28.9609 10.9419 30.3125 11.6459 31.4191L11.0488 31.0541C10.3255 29.5906 9.54058 28.1239 8.8677 26.6319C8.77716 26.4312 8.65157 26.1969 8.58716 25.9909L8.58736 25.9907Z" fill="#E1DEF6"/>
<path d="M10.2286 25.3627L10.2303 27.8626C10.2702 28.0206 10.3777 28.1561 10.5532 28.1579C10.4903 28.2438 10.5047 28.5199 10.5735 28.6035C10.2138 28.5677 9.93656 28.3013 9.85219 27.9566L9.84326 25.3019C9.91506 25.353 10.1485 25.3868 10.2286 25.3627Z" fill="#797FA1"/>
<path d="M10.5725 28.6037C10.5038 28.52 10.4894 28.2439 10.5522 28.1581C10.6345 28.0456 11.293 27.9511 11.4321 27.977C11.7645 28.0388 11.7475 28.7145 11.4038 28.7773C11.2796 28.7999 10.6509 28.6993 10.5725 28.6037Z" fill="#3A384B"/>
<path d="M4.96094 24.6534C5.00145 24.6546 5.04216 24.6517 5.08247 24.6534C5.5048 24.6714 5.67413 24.6949 5.7112 25.1691C5.74138 25.5568 5.6871 25.9831 5.71039 26.3751C5.68811 26.3676 5.4649 26.3352 5.43694 26.3352C5.16471 26.336 3.05632 27.1689 2.69273 27.3376C2.50517 27.4245 2.36216 27.5314 2.18594 27.6309C2.21187 27.5351 2.20174 27.4439 2.2062 27.3473C2.21794 27.0929 2.20417 26.8326 2.2062 26.5776C2.20701 26.4765 2.20518 26.3749 2.2062 26.2738C2.20944 25.9155 2.15333 25.3137 2.20761 24.989C2.24043 24.7925 2.4363 24.6716 2.62083 24.6528C3.27163 24.5861 4.2842 24.6339 4.96094 24.6534ZM4.18556 25.0222C4.06119 25.0595 4.06403 25.2693 4.20217 25.3007C4.26881 25.3159 5.06445 25.3157 5.13271 25.3007C5.27146 25.2701 5.2984 25.0532 5.1319 25.0192C5.05999 25.0046 4.24086 25.0058 4.18576 25.0222H4.18556Z" fill="#ECEBFB"/>
<path d="M5.69023 27.7323V28.3611C5.12692 28.355 4.5539 28.4351 3.98877 28.4218C4.06797 28.3502 4.19436 28.3128 4.29341 28.2706C4.73154 28.0846 5.27702 27.9325 5.69023 27.7323Z" fill="#ECEBFB"/>
<path d="M4.18569 25.0225C4.24078 25.0061 5.05991 25.0048 5.13182 25.0194C5.29832 25.0535 5.27138 25.2708 5.13263 25.3014C5.06437 25.3164 4.26874 25.3166 4.2021 25.3014C4.06395 25.2699 4.06112 25.0598 4.18549 25.0225H4.18569Z" fill="#ECEBFB"/>
<path d="M4.07014 31.4996C3.85097 31.5073 3.62067 31.536 3.40171 31.5401C3.35451 31.5409 3.30712 31.5395 3.25992 31.5401L2.53113 31.3473C1.90787 31.1072 1.39905 30.4931 1.33565 29.8184C1.29818 29.4186 1.36077 28.9029 1.61923 28.5828C1.44604 29.5267 2.16349 30.8767 3.04379 31.26C3.38085 31.4066 3.71911 31.4105 4.07014 31.4996Z" fill="#BF7562"/>
<path d="M5.71084 26.3754C6.33187 26.5867 6.29602 27.4396 5.69059 27.7325C5.27717 27.9324 4.7319 28.0841 4.29377 28.2701C4.19472 28.312 4.06833 28.3495 3.98913 28.421C4.55426 28.4344 5.12728 28.3544 5.69059 28.3604C5.79956 28.3616 5.90631 28.3945 6.01467 28.4009C6.03371 28.6418 6.20163 28.7959 6.44004 28.7858C6.56947 29.0698 6.53564 29.3317 6.31851 29.5555C6.12365 29.6418 4.35271 30.0702 4.35413 30.1733C4.35494 30.2359 4.73817 30.1935 4.79975 30.1739L5.85243 29.8391C6.44267 30.2993 6.38859 30.9659 5.69038 31.2569C5.45137 31.3566 4.99765 31.471 4.73838 31.5C4.4943 31.5273 4.29316 31.4921 4.06995 31.5C3.71892 31.4109 3.38065 31.407 3.0436 31.2604C2.1633 30.8773 1.44565 29.5271 1.61904 28.5832C1.648 28.4254 1.7744 28.1635 1.86575 28.0299C1.9571 27.8962 2.15115 27.7603 2.18619 27.6312C2.36241 27.5318 2.50542 27.4248 2.69298 27.3379C3.05657 27.1694 5.16496 26.3365 5.43719 26.3355C5.46514 26.3355 5.68836 26.3677 5.71064 26.3754H5.71084Z" fill="#ECEBFB"/>
<path d="M6.31793 29.5554C6.17128 29.7069 6.02281 29.7657 5.81175 29.799C5.80709 29.8225 5.83545 29.8262 5.85206 29.8394L4.79938 30.1746C4.7378 30.1945 4.35457 30.2367 4.35376 30.174C4.35234 30.0708 6.12328 29.6418 6.31814 29.5554H6.31793Z" fill="#BF7562"/>
<path d="M4.84802 26.902C4.80765 26.9004 4.76688 26.9032 4.72632 26.902L5.13412 23.0735C5.17469 23.6006 5.09037 26.5384 4.84802 26.902Z" fill="#B8B6DD"/>
<ellipse cx="27.6679" cy="26.939" rx="2.18429" ry="1.45619" fill="#ECEBFB"/>
<path d="M10.6537 17.5848C10.7805 17.6235 10.9798 17.6557 11.1155 17.68C11.4554 17.7409 11.4672 17.5868 11.4842 17.9494C11.075 18.1402 10.7337 18.4073 10.4309 18.7393C9.836 19.3917 9.50928 20.2151 9.31686 21.0687C9.16636 21.7369 9.10822 22.3749 9.09263 23.0604C9.51718 23.1483 9.91318 23.3992 10.1271 23.7829C10.1702 23.8602 10.2602 24.097 10.2891 24.188C10.3655 24.4282 10.5095 25.0191 10.3669 25.2279C10.3545 25.2461 10.2377 25.3599 10.2284 25.3628C10.1483 25.3869 9.9152 25.3531 9.8435 25.302C9.68915 25.1922 9.71791 24.9026 9.68145 24.7349C9.56114 24.1811 9.34663 23.5534 8.6225 23.7873C7.98648 23.9927 8.10011 24.808 7.95873 25.2706C7.93341 25.3539 7.87163 25.3776 7.85846 25.4438C7.70979 25.5009 7.60689 25.5345 7.45335 25.4641C7.20462 25.3496 7.27024 25.0504 7.29455 24.8293C7.37193 24.124 7.67373 23.3974 8.38571 23.1408C8.37741 21.7946 8.58908 20.2899 9.25609 19.1037C9.59355 18.5037 10.0922 17.9773 10.6537 17.5846V17.5848Z" fill="#3A384B"/>
<path d="M20.4982 25.7272C20.417 25.7156 20.2334 25.5246 20.1536 25.4539C20.0738 25.3833 19.5932 24.9354 19.5867 24.8765C19.5861 24.871 19.6173 24.7904 19.6272 24.7752C20.0291 25.49 21.1241 25.4683 21.4907 24.7347C21.5567 25.1756 20.931 25.7884 20.4982 25.7272Z" fill="#B8B6DD"/>
<path d="M18.4719 17.5846C18.7567 17.7863 19.0411 18.031 19.2722 18.2933C19.4879 18.5382 19.7312 18.8604 19.8898 19.1442C20.559 20.3419 20.8337 21.8825 20.8858 23.2425C21.4776 23.4932 21.792 24.13 21.49 24.7347C21.1234 25.4683 20.0284 25.49 19.6265 24.7752C19.3737 24.3255 19.5056 23.7274 19.9101 23.4181C19.9568 23.3824 20.156 23.2927 20.1645 23.2763C20.1748 23.2566 20.1521 23.1756 20.1531 23.1345C20.1677 22.431 19.9844 21.5402 19.7885 20.8659C19.5489 20.0409 19.1985 19.2583 18.5935 18.6378C18.3295 18.3672 18.0362 18.1165 17.682 17.9694C17.6866 17.889 17.6787 17.8068 17.682 17.7264C17.9402 17.6755 18.2193 17.6603 18.4719 17.5846ZM21.0168 24.2767C21.0168 24.0152 20.8049 23.8033 20.5434 23.8033C20.2819 23.8033 20.0701 24.0152 20.0701 24.2767C20.0701 24.5382 20.2819 24.7501 20.5434 24.7501C20.8049 24.7501 21.0168 24.5382 21.0168 24.2767Z" fill="#3A384B"/>
<path d="M20.5439 24.7497C20.8054 24.7497 21.0173 24.5378 21.0173 24.2764C21.0173 24.0149 20.8054 23.803 20.5439 23.803C20.2825 23.803 20.0706 24.0149 20.0706 24.2764C20.0706 24.5378 20.2825 24.7497 20.5439 24.7497Z" fill="#FCFCFC"/>
<path d="M17.6619 18.5571C17.6615 18.5707 17.6623 18.5841 17.6619 18.5977H17.6011C17.6175 18.5835 17.6222 18.5521 17.6619 18.5571Z" fill="#E1DEF6"/>
<path d="M20.8422 10.7993C21.8556 10.48 23.0029 11.1444 23.1821 12.1965C23.4294 13.6472 22.0636 14.747 20.6846 14.3091C20.6287 14.2913 20.2903 14.1248 20.2753 14.1414C20.2258 14.1969 20.2876 15.3873 20.2522 15.6273C20.1217 16.5106 19.3117 17.3328 18.4723 17.5846C18.2197 17.6603 17.9406 17.6755 17.6824 17.7264H11.7072C13.5128 18.3654 15.4409 18.5704 17.338 18.7796C16.841 19.2921 16.255 19.7318 15.7174 20.2074C15.6183 20.2949 15.0943 20.7357 15.0694 20.8052C15.0425 20.8803 15.0585 21.1343 15.0161 21.1507C14.9823 21.1637 14.3262 21.1596 14.2924 21.1467C14.2481 21.1294 14.2632 20.9243 14.2187 20.8254C14.1802 20.7405 14.1208 20.6956 14.0568 20.6328C13.4032 19.9933 12.4261 19.2431 11.6963 18.6587C11.6389 18.6127 11.5788 18.551 11.5044 18.5366C11.4972 18.3417 11.4933 18.1438 11.4842 17.9492C11.4672 17.5866 11.4554 17.7407 11.1155 17.6798C10.9798 17.6555 10.7805 17.6233 10.6537 17.5846C9.87348 17.346 8.89149 16.4124 8.89149 15.5489V14.1209C7.87183 14.8975 6.31601 14.5228 5.89348 13.2805C5.37332 11.7519 6.81632 10.4529 8.30409 10.9206C8.31199 11.1479 8.30409 11.9895 8.67881 11.9544C8.98366 11.9259 8.99399 11.1031 8.99277 10.8801C9.07096 10.8809 9.54007 10.8598 9.56013 10.8801C9.57188 10.8918 9.55547 11.1582 9.56053 11.2139C9.57107 11.3293 9.59314 11.4983 9.62089 11.6093C9.40477 11.6883 9.29356 12.1594 9.27594 12.3682C9.15441 13.8076 10.1919 14.5179 11.5417 14.2289C11.6944 14.1961 11.9833 14.1432 12.0515 13.9994C12.3033 14.4483 12.7435 14.4023 13.1859 14.4248C13.6904 15.3445 15.415 15.3703 15.9001 14.4248C16.3036 14.4083 16.8254 14.4428 17.0749 14.0602C17.6809 14.3816 18.62 14.5339 19.2283 14.1576C19.905 13.7389 20.1878 12.6998 19.9046 11.9698C19.8507 11.8311 19.6672 11.4958 19.5056 11.4877C19.5287 11.3776 19.5244 10.9016 19.5459 10.8799C19.5673 10.8582 20.0707 10.8809 20.1537 10.8799C20.1325 11.0995 20.173 11.9526 20.4879 11.9544C20.8367 11.9565 20.8341 11.1071 20.8424 10.8799C20.8434 10.8529 20.8416 10.8258 20.8424 10.7989L20.8422 10.7993ZM20.3561 12.8957C20.3364 13.0095 20.3705 13.1708 20.3561 13.2907C20.7954 12.652 21.2704 12.0411 21.8145 11.4881C21.6524 11.4833 21.5192 11.4245 21.368 11.5175C21.1981 11.6222 20.3883 12.7095 20.3561 12.8957ZM8.83052 13.5742C8.86354 13.1347 8.58888 12.7879 8.34075 12.4539C8.24048 12.3188 7.72518 11.6873 7.61013 11.6451C7.49508 11.603 7.32494 11.633 7.21029 11.6504C7.81208 12.2388 8.33811 12.8931 8.83052 13.5744V13.5742Z" fill="#E59776"/>
<path d="M8.97216 10.5155H9.80264C9.49172 11.5451 10.1176 12.6644 11.1672 12.9083C12.605 13.2425 13.8454 11.931 13.4284 10.5155H15.697C15.2212 12.0884 16.8236 13.4088 18.2968 12.7406C19.1325 12.3616 19.5433 11.396 19.3024 10.5155H20.8419C20.84 10.6097 20.8447 10.7049 20.8419 10.7991C20.8411 10.826 20.8429 10.8532 20.8419 10.8801C20.6126 10.8817 20.3825 10.8779 20.1532 10.8801C20.0701 10.8809 19.567 10.8585 19.5453 10.8801C19.5236 10.9018 19.5281 11.3778 19.505 11.488C19.2638 12.6363 17.9652 13.3802 16.8515 12.9869C16.7539 12.93 16.6073 12.8931 16.4869 12.8248C16.031 12.5662 15.4539 11.9089 15.4539 11.3563V10.8803H13.6714C13.6449 10.8803 13.6589 11.3241 13.6455 11.4114C13.5584 11.9796 13.1731 12.5558 12.6789 12.8451C12.5391 12.9269 12.3672 12.9974 12.213 13.0476C12.145 13.0697 11.959 13.1185 11.8889 13.1287C11.7148 13.1202 11.5361 13.1402 11.3623 13.1287C10.6507 13.0817 9.81702 12.3993 9.62034 11.6095C9.59279 11.4985 9.57051 11.3296 9.55998 11.2141C9.55491 11.1582 9.57152 10.8921 9.55957 10.8803C9.53952 10.8603 9.0706 10.8813 8.99222 10.8803C8.76292 10.8779 8.53282 10.8822 8.30353 10.8803C8.29988 10.7592 8.30535 10.6369 8.30353 10.5157H8.97196L8.97216 10.5155Z" fill="#231513"/>
<path d="M16.8521 12.9864C17.2048 13.192 17.2931 13.7254 17.075 14.06C16.8254 14.4426 16.3036 14.4082 15.9001 14.4246C15.7995 14.4286 15.6658 14.4446 15.576 14.4448C15.285 14.4454 14.9834 14.4345 14.7662 14.2115C14.728 14.1722 14.5979 13.9303 14.5837 13.9386C14.5706 13.9463 14.4934 14.1376 14.4318 14.2024C14.1772 14.4708 13.8276 14.4471 13.4895 14.445C13.4077 14.4446 13.2781 14.4294 13.1857 14.4248C12.7433 14.4023 12.3032 14.4483 12.0514 13.9994C11.8578 13.6545 11.9566 13.3178 12.2134 13.0474C12.3676 12.9972 12.5396 12.9267 12.6793 12.8449C12.7577 12.8234 12.8705 12.8651 12.9325 12.8651H13.3174C13.4097 12.8651 13.5467 12.9068 13.6516 12.8854C13.7202 12.9634 13.8932 13.0798 13.9882 13.126C14.1306 13.1953 14.38 13.2224 14.4697 13.2725C14.5436 13.3136 14.5777 13.493 14.5933 13.4934C14.6089 13.4938 14.6739 13.2848 14.7249 13.2603C14.8084 13.2202 15.0176 13.2099 15.1576 13.1461C15.2858 13.0875 15.4551 12.9121 15.5353 12.8858C15.7701 12.8082 16.2297 12.9018 16.4873 12.825C16.6077 12.8933 16.7543 12.9301 16.8519 12.9871L16.8521 12.9864Z" fill="#2D292A"/>
<path d="M17.0749 14.0605C17.293 13.7259 17.2047 13.1926 16.8521 12.987C17.9657 13.3803 19.2643 12.6364 19.5055 11.4881C19.667 11.4962 19.8507 11.8314 19.9045 11.9702C20.1877 12.7 19.905 13.7393 19.2282 14.1579C18.6199 14.5343 17.6809 14.382 17.0749 14.0605Z" fill="#E68A75"/>
<path d="M17.6819 17.7262C17.6787 17.8066 17.6866 17.8888 17.6819 17.9693C17.6706 18.1667 17.6676 18.3592 17.6617 18.5567C17.622 18.5516 17.6173 18.583 17.6009 18.5972C17.5347 18.6541 17.415 18.7685 17.3376 18.7795C15.4403 18.5702 13.5122 18.3652 11.7068 17.7264H17.6819V17.7262Z" fill="#BF7562"/>
<path d="M9.6205 11.6092C9.81718 12.3989 10.6509 13.0813 11.3625 13.1283C11.5346 13.169 11.7161 13.1532 11.8891 13.1283C11.9592 13.1182 12.1451 13.0694 12.2132 13.0473C11.9564 13.3177 11.8575 13.6544 12.0512 13.9993C11.9829 14.1431 11.6941 14.196 11.5413 14.2288C10.1917 14.5178 9.15402 13.8075 9.27555 12.3682C9.29317 12.1595 9.40438 11.6882 9.6205 11.6092Z" fill="#E68A75"/>
<path d="M13.4891 14.445C13.9834 15.0062 15.0913 15.0322 15.5754 14.445C15.6652 14.445 15.7989 14.4287 15.8995 14.4247C15.4144 15.3715 13.6899 15.3457 13.1853 14.4247C13.2777 14.4293 13.4073 14.4446 13.4891 14.445Z" fill="#BF7562"/>
<path d="M8.8302 13.5741C8.33778 12.893 7.81195 12.2385 7.20996 11.6501C7.32461 11.6329 7.50042 11.6047 7.6098 11.6448C7.72485 11.6872 8.24015 12.3187 8.34042 12.4536C8.58835 12.7878 8.86321 13.1346 8.8302 13.5739V13.5741Z" fill="#BF7562"/>
<path d="M8.30418 10.5156C8.28838 9.49693 8.31613 8.47586 8.30418 7.45703C7.52232 7.73797 7.61205 6.89251 7.75202 6.40841C7.93391 5.78009 8.44617 5.02943 9.14519 4.94578C9.21406 4.93747 9.36658 4.96968 9.39757 4.95651C9.41864 4.9476 9.52498 4.78759 9.55941 4.75214C11.3117 2.95408 15.2309 2.33974 17.6531 2.43271C18.1953 2.45357 20.0935 2.5587 18.8573 3.36526C19.4096 3.42643 21.4459 3.59739 20.6501 4.58098C20.6041 4.6379 20.2585 4.90567 20.2752 4.92492C20.2918 4.94416 20.687 5.00938 20.7655 5.03227C22.8863 5.65269 21.0959 7.13011 20.8885 8.30329C20.7712 8.96624 20.8551 9.82527 20.8423 10.5156H20.1536L20.1439 8.915C19.8427 8.53015 19.0849 6.61927 18.7752 6.43515C18.5966 6.32901 18.041 6.439 17.8178 6.46837C15.5455 6.76754 13.6609 7.30106 11.338 6.68165C11.1207 6.62372 10.7265 6.43373 10.5576 6.40882C10.323 6.37438 10.2489 6.5662 10.144 6.73472C9.94852 7.04807 8.99894 8.79205 8.9718 9.04645C8.92299 9.50503 9.00948 10.0481 8.97241 10.5156H8.30398H8.30418Z" fill="#2D292A"/>
<path d="M8.99394 10.8799C8.99516 11.1029 8.98481 11.9255 8.67955 11.9542C8.30452 11.9895 8.31223 11.1477 8.30432 10.9204C8.30391 10.9068 8.30472 10.8935 8.30432 10.8799C8.53392 10.8817 8.76434 10.8775 8.99394 10.8799Z" fill="#2D292A"/>
<path d="M20.8428 10.8798C20.8345 11.1071 20.8371 11.9564 20.4878 11.9544C20.1724 11.9526 20.1319 11.0994 20.1532 10.8798C20.3828 10.8776 20.6132 10.8815 20.8428 10.8798Z" fill="#2D292A"/>
<path d="M20.3556 12.8957C20.3879 12.7095 21.1977 11.6222 21.3676 11.5175C21.5187 11.4245 21.652 11.4833 21.814 11.4882C21.27 12.0411 20.795 12.652 20.3556 13.2907C20.37 13.1708 20.336 13.0095 20.3556 12.8957Z" fill="#BF7562"/>
<path d="M20.1537 10.5157H19.303C19.1553 9.97568 18.7577 9.63296 18.2935 9.36742C18.2602 9.34838 18.2363 9.3743 18.2497 9.30037C18.8373 9.28255 19.1132 8.16588 18.5388 7.90742C18.3708 7.83187 17.18 7.51872 17.0241 7.52277C16.6092 7.5331 16.4883 7.92301 16.4362 8.26695C16.3131 9.08101 17.1545 8.96373 17.6826 9.17904C16.8221 9.13306 15.9489 9.68502 15.6975 10.5159H13.4289C13.1881 9.69859 12.2658 9.17357 11.4439 9.1993C11.8938 8.97912 12.7267 9.06642 12.6537 8.34372C12.6221 8.02915 12.4656 7.57726 12.1022 7.53857C11.9144 7.51852 10.5682 7.88595 10.4125 7.99593C9.98427 8.29855 10.2624 9.33379 10.8158 9.34108C10.8226 9.39233 10.8064 9.40084 10.7698 9.42676C10.3495 9.72411 9.96584 9.97649 9.80298 10.5159H8.97251C9.00958 10.0484 8.92309 9.50515 8.9719 9.04678C8.99905 8.79237 9.94842 7.04839 10.1441 6.73504C10.2492 6.56652 10.3233 6.3747 10.5577 6.40914C10.7266 6.43405 11.1208 6.62405 11.3381 6.68198C13.6608 7.30138 15.5454 6.76806 17.8179 6.46869C18.0411 6.43932 18.5967 6.32913 18.7753 6.43547C19.085 6.61959 19.8428 8.53047 20.144 8.91532L20.1537 10.5159V10.5157Z" fill="#E59675"/>
<path d="M11.4435 9.19896C12.2655 9.17324 13.1877 9.69826 13.4285 10.5156C13.8456 11.931 12.6052 13.2425 11.1674 12.9083C10.1178 12.6644 9.49189 11.5451 9.80282 10.5156C9.96567 9.97616 10.3493 9.72398 10.7696 9.42643C10.8063 9.4005 10.8225 9.39179 10.8156 9.34075C11.0011 9.34318 11.2424 9.20524 11.4435 9.19896ZM11.8241 10.4996C11.2284 10.534 11.2671 11.8087 11.8999 11.7311C12.4579 11.6626 12.4198 10.4651 11.8241 10.4996Z" fill="#F5B89F"/>
<path d="M18.2492 9.30011C18.2356 9.37424 18.2595 9.34831 18.2929 9.36715C18.7572 9.63249 19.1548 9.97542 19.3025 10.5154C19.5433 11.3959 19.1325 12.3615 18.2968 12.7405C16.8234 13.4087 15.221 12.088 15.697 10.5154C15.9484 9.68455 16.8216 9.13259 17.682 9.17857C17.8629 9.1883 18.0622 9.30578 18.2492 9.30011ZM17.2311 10.5002C16.7831 10.5782 16.7359 11.5102 17.1677 11.688C17.8832 11.9825 18.0045 10.3655 17.2311 10.5002Z" fill="#F5B89F"/>
<path d="M12.6792 12.8447C13.1732 12.5552 13.5585 11.9792 13.6458 11.411C13.6592 11.3237 13.6452 10.8799 13.6717 10.8799H15.4542V11.3559C15.4542 11.9085 16.0313 12.5658 16.4872 12.8244C16.2296 12.9012 15.77 12.8076 15.5352 12.8852C15.6 12.7533 15.7202 12.6395 15.7173 12.4801C15.4121 12.8321 14.8646 12.825 14.4307 12.805C14.1603 12.7924 13.8307 12.7699 13.6209 12.5818C13.5251 12.4959 13.4171 12.2313 13.4509 12.4681C13.4677 12.5856 13.5727 12.7957 13.6517 12.8852C13.5467 12.9067 13.4098 12.8649 13.3174 12.8649H12.9326C12.8706 12.8649 12.7578 12.8232 12.6794 12.8447H12.6792Z" fill="#E59675"/>
<path d="M11.8902 13.1283C11.7169 13.1533 11.5352 13.1691 11.3628 13.1283C11.5368 13.1399 11.7157 13.1198 11.8902 13.1283Z" fill="#E59776"/>
<path d="M15.5758 14.4453C15.0917 15.0317 13.9837 15.0057 13.4895 14.4453C13.8276 14.4473 14.1772 14.4708 14.4318 14.2026C14.4932 14.1378 14.5705 13.9466 14.5837 13.9389C14.5979 13.9306 14.7279 14.1726 14.7662 14.2117C14.9833 14.4347 15.2849 14.4457 15.576 14.4451L15.5758 14.4453Z" fill="#E59675"/>
<path d="M13.6517 12.8856C13.5729 12.7961 13.4679 12.586 13.4509 12.4685C13.4171 12.2319 13.5251 12.4965 13.6209 12.5822C13.8307 12.7703 14.1603 12.7928 14.4307 12.8054C14.8646 12.8254 15.4123 12.8325 15.7173 12.4805C15.7203 12.6399 15.6 12.7537 15.5352 12.8856C15.4552 12.9121 15.2857 13.0873 15.1574 13.1459C15.0175 13.2099 14.8082 13.2202 14.7248 13.2601C14.6737 13.2846 14.6089 13.4939 14.5931 13.4932C14.5773 13.4926 14.5433 13.3134 14.4696 13.2723C14.3796 13.2224 14.1305 13.1951 13.9881 13.1258C13.8931 13.0796 13.7199 12.9632 13.6515 12.8852L13.6517 12.8856Z" fill="#BF7562"/>
<path d="M11.443 9.19884C11.2419 9.20512 11.0006 9.34306 10.8151 9.34063C10.2615 9.33334 9.98338 8.29809 10.4118 7.99548C10.5673 7.88549 11.9135 7.51806 12.1015 7.53811C12.4649 7.577 12.6214 8.0287 12.653 8.34326C12.7258 9.06597 11.8931 8.97887 11.4432 9.19884H11.443Z" fill="#2D292A"/>
<path d="M18.2497 9.30054C18.0627 9.30622 17.8634 9.18873 17.6825 9.17901C17.1544 8.9637 16.3132 9.08098 16.4362 8.26692C16.4882 7.92298 16.6092 7.53327 17.024 7.52274C17.18 7.51889 18.3708 7.83184 18.5387 7.90739C19.1129 8.16584 18.8373 9.28252 18.2497 9.30034V9.30054Z" fill="#2D292A"/>
<path d="M11.8244 10.4995C12.4199 10.4651 12.4582 11.6626 11.9001 11.731C11.2675 11.8086 11.2287 10.5337 11.8244 10.4995Z" fill="#080816"/>
<path d="M17.2316 10.5003C18.005 10.3656 17.8836 11.9825 17.1682 11.688C16.7364 11.5102 16.7836 10.5783 17.2316 10.5003Z" fill="#080816"/>
<path d="M13.9344 22.7696C13.9214 23.3566 13.8116 23.9489 13.8331 24.5318C13.764 24.6173 13.7968 24.7483 13.7926 24.8559C13.7911 24.8895 13.7924 24.9235 13.7926 24.9572C13.7316 24.9458 13.7531 24.9882 13.7521 25.027C13.7486 25.1474 13.7381 25.2634 13.7318 25.3825C13.6826 26.3224 13.6028 27.2602 13.5292 28.198C13.5161 28.3667 13.5021 28.5359 13.4887 28.7044C13.4673 28.974 13.4498 29.245 13.428 29.5146L13.2659 31.5199C12.7599 31.5203 12.2527 31.5195 11.7468 31.5199C11.7125 28.3126 11.6574 25.1048 11.5847 21.8986C11.7549 21.9572 12.4435 22.8411 12.5094 22.849C12.5752 22.8569 13.2663 22.1615 13.3368 22.1613C13.4073 22.1611 13.8302 22.7082 13.9344 22.7696Z" fill="#8BABFD"/>
<path d="M17.5399 22.223C17.5342 22.2923 17.5267 22.4039 17.5601 22.4661C17.5575 22.569 17.5423 22.6674 17.5399 22.7699C17.5358 22.9461 17.5439 23.1238 17.5399 23.2965C17.5336 23.5674 17.5306 23.8361 17.5196 24.1068C17.5103 24.3348 17.4674 24.5674 17.5196 24.7954C17.5113 25.0719 17.5071 25.3494 17.4994 25.6259C17.4965 25.7284 17.502 25.8313 17.4994 25.9297C17.4933 26.1533 17.4882 26.3749 17.4791 26.5982C17.47 26.8214 17.4269 27.0588 17.4791 27.2868C17.471 27.5094 17.4639 27.7327 17.4589 27.9553C17.4564 28.0573 17.4611 28.1604 17.4589 28.2591C17.4512 28.5892 17.4435 28.9216 17.4386 29.2516C17.436 29.4276 17.4406 29.604 17.4386 29.7782L17.4184 31.4999V31.5202C16.9934 31.5202 16.5672 31.5202 16.1423 31.5202C16.0446 30.4535 15.9363 29.3865 15.8384 28.3198C15.8143 28.0561 15.7813 27.792 15.7574 27.5299C15.7426 27.3685 15.7317 27.2054 15.7169 27.0438C15.6357 26.1536 15.5719 25.2607 15.4941 24.3701C15.4906 24.3316 15.4748 24.3002 15.4738 24.2891C15.4726 24.2757 15.475 24.2619 15.4738 24.2485C15.4578 24.0654 15.4287 23.8817 15.4131 23.7017C15.4044 23.6014 15.4015 23.4985 15.3928 23.3978C15.3758 23.202 15.359 23.0073 15.3523 22.8104C15.4378 22.7264 15.9381 22.1153 15.9946 22.1037C16.0657 22.0893 16.8241 22.855 16.9225 22.8503C16.9934 22.8469 17.4181 22.2728 17.5399 22.223Z" fill="#8BABFD"/>
<path d="M17.5194 24.7961C17.467 24.5677 17.51 24.3349 17.5194 24.1065C17.5699 24.3338 17.5263 24.5681 17.5194 24.7961Z" fill="#E1DEF6"/>
<path d="M17.4793 27.2878C17.427 27.0594 17.47 26.8265 17.4793 26.5981C17.5262 26.8251 17.4876 27.0596 17.4793 27.2878Z" fill="#E1DEF6"/>
<path d="M17.54 23.2974C17.544 23.1244 17.5359 22.9465 17.54 22.7701V23.2974Z" fill="#E1DEF6"/>
<path d="M17.4391 29.7788C17.4411 29.6044 17.4364 29.4277 17.4391 29.2515V29.7788Z" fill="#E1DEF6"/>
<path d="M17.4585 28.2593C17.4607 28.1605 17.4561 28.0573 17.4585 27.9551V28.2593Z" fill="#E1DEF6"/>
<path d="M17.4994 25.9298C17.502 25.8313 17.4965 25.7282 17.4994 25.6256V25.9298Z" fill="#E1DEF6"/>
<path d="M17.5602 22.4664C17.5267 22.4041 17.5342 22.2924 17.5399 22.223C17.5413 22.2062 17.5415 22.1895 17.5602 22.1824C17.5579 22.2751 17.5624 22.3725 17.5602 22.4664Z" fill="#E1DEF6"/>
<path d="M17.662 18.5972C17.6588 18.6958 17.645 18.7987 17.6418 18.901V19.1036C17.6363 19.2654 17.6274 19.4275 17.6215 19.5897C17.6197 19.6403 17.6229 19.6981 17.6215 19.7315C17.6138 19.9266 17.6138 20.1242 17.6013 20.3189C17.5956 20.4062 17.546 20.5324 17.6013 20.6227C17.5924 20.8453 17.5873 21.0683 17.581 21.2911C17.5796 21.3383 17.5818 21.378 17.581 21.4127C17.577 21.5753 17.5652 21.7374 17.5608 21.8988C17.4613 21.9802 16.9347 22.6752 16.865 22.6669C16.8042 22.6596 16.0793 21.9207 15.9808 21.8178C15.9474 21.7829 15.8931 21.6821 15.8494 21.6353C15.5901 21.358 15.327 21.0837 15.0693 20.805C15.0943 20.7355 15.6183 20.2948 15.7173 20.2073C16.2549 19.7317 16.8409 19.292 17.3379 18.7795C17.4153 18.7686 17.535 18.6541 17.6013 18.5972H17.662Z" fill="#8BABFD"/>
<path d="M17.5607 21.8992C17.5581 21.9934 17.563 22.0886 17.5607 22.1828C17.5421 22.1899 17.5419 22.2065 17.5405 22.2233C17.419 22.2731 16.9942 22.8471 16.9231 22.8506C16.8247 22.8554 16.0663 22.0896 15.9952 22.104C15.9385 22.1155 15.4384 22.7264 15.3529 22.8107C15.3513 22.7635 15.3021 22.6748 15.3434 22.6087L15.9808 21.8182C16.0793 21.9211 16.804 22.6598 16.865 22.6673C16.9347 22.6758 17.4613 21.9806 17.5607 21.8992Z" fill="#788BCE"/>
<path d="M17.6016 20.6233C17.5462 20.5328 17.5959 20.4065 17.6016 20.3191C17.6302 20.4079 17.6055 20.5262 17.6016 20.6233Z" fill="#E1DEF6"/>
<path d="M17.6417 19.1044V18.9016C17.6396 18.9659 17.6439 19.0379 17.6417 19.1044Z" fill="#E1DEF6"/>
<path d="M17.6212 19.7323C17.6226 19.6988 17.6194 19.641 17.6212 19.5903V19.7323Z" fill="#E1DEF6"/>
<path d="M17.5811 21.4133C17.5819 21.3786 17.5796 21.3389 17.5811 21.2916C17.6123 21.3275 17.6117 21.3782 17.5811 21.4133Z" fill="#E1DEF6"/>
<path d="M15.8383 28.32C15.9361 29.3867 16.0445 30.4537 16.1421 31.5204C15.1843 31.5208 14.2235 31.5196 13.2659 31.5204L13.4279 29.5151L15.8383 28.32Z" fill="#5B6AAD"/>
<path d="M15.9804 21.8178L15.3429 22.6083C15.3016 22.6744 15.3508 22.7631 15.3525 22.8103C15.3591 23.0071 15.376 23.2018 15.393 23.3977L13.8333 24.532C13.8118 23.949 13.9216 23.3567 13.9346 22.7698C13.9352 22.7392 13.9856 22.6628 13.9441 22.6081L13.3472 21.838C13.3597 21.824 13.3773 21.7623 13.4085 21.7272C13.6771 21.4256 13.9453 21.123 14.2182 20.8252C14.2627 20.9239 14.2475 21.1293 14.2919 21.1465C14.3257 21.1597 14.9818 21.1637 15.0156 21.1505C15.0579 21.1341 15.0419 20.8801 15.0689 20.805C15.3265 21.0837 15.5897 21.358 15.8489 21.6353C15.8927 21.682 15.947 21.7829 15.9804 21.8178Z" fill="#5B6AAD"/>
<path d="M15.4941 24.3703C15.5719 25.261 15.6357 26.1538 15.7169 27.044L13.5293 28.1986C13.6028 27.2608 13.6826 26.3229 13.7319 25.3831L15.4941 24.3703Z" fill="#5B6AAD"/>
<path d="M15.8384 28.3196L13.428 29.5146C13.4499 29.245 13.4673 28.974 13.4887 28.7044L15.7574 27.5296C15.7813 27.7917 15.8143 28.0559 15.8384 28.3196Z" fill="#BF7562"/>
<path d="M15.7164 27.0436C15.7312 27.2053 15.7421 27.3683 15.7569 27.5298L13.4883 28.7046C13.5016 28.536 13.5156 28.3669 13.5288 28.1982L15.7164 27.0436Z" fill="#FCFCFC"/>
<path d="M15.271 23.8029C15.2949 23.7923 15.3724 23.7443 15.3923 23.7624C15.4079 23.7763 15.429 24.1211 15.4334 24.1784C15.4362 24.2169 15.4105 24.26 15.4735 24.2487C15.4747 24.2621 15.4723 24.2758 15.4735 24.2892L13.8223 25.322C13.7795 25.3279 13.7972 25.3184 13.7923 25.2923C13.7769 25.211 13.7931 25.0512 13.7923 24.9576C13.7921 24.924 13.7909 24.89 13.7923 24.8564H13.8328C14.2381 24.5847 14.8638 23.9834 15.271 23.8031V23.8029Z" fill="#BF7562"/>
<path d="M15.3927 23.3978C15.4014 23.4984 15.4042 23.6013 15.4129 23.7016L15.2711 23.8029C14.864 23.9831 14.2383 24.5845 13.833 24.8561C13.8287 24.859 13.819 24.8543 13.8127 24.8561H13.7925C13.7967 24.7486 13.7639 24.6175 13.833 24.5321L15.3927 23.3978Z" fill="#FCFCFC"/>
<path d="M15.4739 24.2892C15.4749 24.3004 15.4907 24.3318 15.4942 24.3703L13.7319 25.383C13.7382 25.2637 13.7485 25.1479 13.7522 25.0275C13.7534 24.9887 13.7317 24.9463 13.7927 24.9577C13.7935 25.0512 13.7771 25.2111 13.7927 25.2923C13.7976 25.3182 13.7799 25.3279 13.8227 25.3221L15.4739 24.2892Z" fill="#797FA1"/>
<path d="M15.413 23.7018C15.4286 23.8821 15.4578 24.0661 15.4738 24.2494C15.4105 24.2608 15.4365 24.2176 15.4337 24.1791C15.4294 24.1217 15.4081 23.7764 15.3925 23.7624C15.3724 23.7444 15.2949 23.7925 15.271 23.803L15.413 23.7016V23.7018Z" fill="#797FA1"/>
<path d="M13.8127 24.8562C13.8188 24.8545 13.8282 24.859 13.8324 24.8562H13.8127Z" fill="#797FA1"/>
<path d="M14.2181 20.8254C13.9453 21.1232 13.6771 21.4256 13.4085 21.7274C13.3773 21.7624 13.3595 21.8244 13.3472 21.8382C13.2596 21.9354 12.6034 22.6482 12.5469 22.6431C12.476 22.6368 11.7133 21.7041 11.5849 21.5951C11.5614 20.5767 11.542 19.5546 11.5039 18.5366C11.5782 18.5509 11.6384 18.6129 11.6957 18.6587C12.4255 19.2431 13.4027 19.9933 14.0563 20.6328C14.1205 20.6956 14.1799 20.7405 14.2181 20.8254Z" fill="#8BABFD"/>
<path d="M13.3471 21.8384L13.944 22.6085C13.9855 22.6632 13.9351 22.7396 13.9345 22.7701C13.8304 22.7088 13.4091 22.1617 13.337 22.1619C13.2649 22.1621 12.5741 22.8572 12.5095 22.8495C12.4449 22.8418 11.7552 21.9579 11.5849 21.8992C11.5826 21.7983 11.5871 21.6962 11.5849 21.5953C11.7133 21.7043 12.4759 22.6371 12.5468 22.6433C12.6033 22.6484 13.2596 21.9356 13.3471 21.8384Z" fill="#788BCE"/>
<circle cx="1.82066" cy="26.5753" r="1.09214" fill="#ECEBFB"/>
</g>
<defs>
<clipPath id="clip0_244_13939">
<rect width="30" height="30" rx="7.68902" fill="white"/>
</clipPath>
</defs>
</svg>
