<svg width="64" height="62" viewBox="0 0 64 62" fill="none" xmlns="http://www.w3.org/2000/svg">
<rect width="64" height="64" rx="32" fill="#F1F7FF"/>
<path d="M39.4416 45.4863C43.5095 45.4863 46.8071 41.5764 46.8071 36.7533C46.8071 31.9302 43.5095 28.0203 39.4416 28.0203C35.3738 28.0203 32.0762 31.9302 32.0762 36.7533C32.0762 41.5764 35.3738 45.4863 39.4416 45.4863Z" fill="#4B4B51"/>
<path d="M36.0877 39.223C36.5196 39.103 36.4716 38.5272 36.9514 37.5675C37.5512 36.368 38.4869 35.6242 39.2067 35.1444C39.2067 35.1444 38.7028 33.9208 39.3506 32.1214C39.8064 30.8258 41.7154 28.7249 45.4581 27.0935C45.9139 22.8019 46.812 17.6783 43.7891 12.2322C42.9254 10.6967 42.0617 9.68906 41.5578 9.18524C41.198 8.80137 37.8871 5.44252 33.0888 5.03465C31.4813 4.8907 30.6416 5.22659 30.0418 5.46651C29.0822 5.87437 28.2664 6.64211 27.9306 7.60178C27.3548 7.67375 26.635 7.8177 25.8913 8.08161C25.2915 8.32153 24.4518 8.72939 23.5881 9.40116C23.0842 9.80902 21.0449 11.5364 19.8214 16.6947C18.4298 22.6446 19.4135 27.6589 20.7091 28.1388C20.829 28.1867 21.4768 28.3787 22.2925 28.8345C22.3645 28.8825 22.7723 29.0984 23.1562 29.3863C24.0199 30.0341 24.4997 30.7059 24.9556 31.3297C26.9709 34.0647 27.2348 36.4399 29.2501 36.9198C30.4257 37.2077 30.7376 36.5119 32.2011 36.8478C34.2164 37.3276 35.224 39.4629 36.1117 39.175L36.0877 39.223Z" fill="#4B4B51"/>
<path d="M28.4302 35.7922L28.7181 43.0138L35.2439 44.9571L37.715 43.8295V36.6319L28.4062 35.7922H28.4302Z" fill="#E19E79"/>
<path d="M28.7896 37.7123C28.7896 37.7123 33.0122 42.1028 37.7145 42.2228V36.6327L32.4364 36.1528L28.7656 37.7123H28.7896Z" fill="#C2856B"/>
<path d="M42.3931 27.1572C42.849 26.4854 43.4728 25.9096 44.1925 25.5737C44.4804 25.4298 44.8163 25.3338 45.0802 25.4538C45.4641 25.6217 45.536 26.1255 45.5121 26.5574C45.4401 27.8289 44.7443 29.0525 43.6887 29.7723C43.3528 29.9882 42.9689 30.1801 42.5611 30.2041C42.1532 30.2281 41.7214 30.0842 41.4814 29.7483" fill="#E19E79"/>
<path d="M44.8642 26.4613C44.3124 26.3174 43.7846 26.6532 43.4727 27.0851C43.3048 27.301 43.1848 27.5649 43.0648 27.8048C42.9689 28.0208 42.8969 28.3087 42.9689 28.5486C43.0169 28.6686 43.0888 28.8125 43.2328 28.7885C43.3527 28.7885 43.4487 28.6686 43.4967 28.5726C43.6167 28.3567 43.5927 28.0448 43.4007 27.9008C43.1848 27.7329 42.9209 27.9488 42.9209 28.2127C42.9209 28.4526 43.1848 28.6206 43.4007 28.5006C43.6406 28.3567 43.5927 27.9488 43.2808 27.9488C42.9689 27.9488 42.8729 28.3567 43.1368 28.5006C43.2088 28.5246 43.2808 28.5006 43.3288 28.4526C43.4007 28.2847 43.4007 28.1167 43.3288 27.9728C43.2568 27.8288 43.0169 27.9728 43.0888 28.1167C43.1128 28.1887 43.1128 28.2607 43.0888 28.3327L43.2808 28.2847C43.2808 28.2847 43.2568 28.2847 43.2568 28.2367H43.2808C43.2328 28.3087 43.1848 28.2367 43.2088 28.1647C43.2088 28.1167 43.2328 28.1407 43.2568 28.1647C43.2808 28.2127 43.3048 28.2847 43.3048 28.3327C43.3048 28.3807 43.2808 28.4526 43.2568 28.5006C43.2568 28.5006 43.1848 28.5486 43.2568 28.5486C43.3048 28.5486 43.2568 28.5486 43.2568 28.5246C43.2568 28.5246 43.2568 28.5006 43.2568 28.4766C43.1608 28.2367 43.3527 27.9248 43.4487 27.7089C43.5687 27.445 43.7366 27.1811 43.9525 26.9891C44.1685 26.7972 44.5044 26.6772 44.8162 26.7492C44.9842 26.7972 45.0562 26.5333 44.8882 26.4853L44.8642 26.4613Z" fill="#C2856B"/>
<path d="M43.3286 27.9499C43.4965 27.662 43.7844 27.4221 44.1203 27.5181C44.2402 27.566 44.3602 27.662 44.3842 27.806C44.4082 27.9979 44.2882 28.1898 44.1923 28.3338C44.1443 28.3818 44.1923 28.4777 44.2402 28.5257C44.3122 28.5737 44.3842 28.5257 44.4322 28.4777C44.5521 28.3098 44.6481 28.1179 44.6721 27.9259C44.6721 27.734 44.6241 27.5421 44.4802 27.4221C44.2163 27.1822 43.8084 27.1582 43.5205 27.3501C43.3526 27.4701 43.2086 27.614 43.0886 27.806C42.9927 27.9499 43.2326 28.0939 43.3286 27.9499Z" fill="#C2856B"/>
<path d="M23.128 27.6098C22.6721 26.938 22.0483 26.3622 21.3286 26.0263C21.0407 25.8824 20.7048 25.7864 20.4409 25.9064C20.057 26.0743 19.985 26.5782 20.009 27.01C20.081 28.2816 20.7768 29.5052 21.8324 30.2249C22.1683 30.4408 22.5521 30.6328 22.96 30.6568C23.3679 30.6808 23.7997 30.5368 24.0396 30.2009" fill="#E19E79"/>
<path d="M20.6323 26.8903C21.1841 26.7463 21.7119 27.0822 22.0238 27.514C22.1917 27.73 22.3117 27.9939 22.4317 28.2338C22.5276 28.4497 22.5996 28.7376 22.5276 28.9775C22.4796 29.0975 22.4077 29.2415 22.2637 29.2175C22.1438 29.2175 22.0478 29.0975 21.9998 29.0015C21.8798 28.7856 21.9038 28.4737 22.0958 28.3298C22.3117 28.1618 22.5756 28.3778 22.5756 28.6417C22.5756 28.8816 22.3117 29.0495 22.0958 28.9296C21.8558 28.7856 21.9038 28.3778 22.2157 28.3778C22.5276 28.3778 22.6236 28.7856 22.3597 28.9296C22.2877 28.9536 22.2157 28.9296 22.1677 28.8816C22.0958 28.7136 22.0958 28.5457 22.1677 28.4017C22.2397 28.2578 22.4796 28.4017 22.4077 28.5457C22.3837 28.6177 22.3837 28.6896 22.4077 28.7616L22.2157 28.7136C22.2157 28.7136 22.2397 28.7136 22.2397 28.6657H22.2157C22.2637 28.7376 22.3117 28.6657 22.2877 28.5937C22.2877 28.5457 22.2637 28.5697 22.2397 28.5937C22.2157 28.6417 22.1917 28.7136 22.1917 28.7616C22.1917 28.8096 22.2157 28.8816 22.2397 28.9296C22.2397 28.9296 22.3117 28.9775 22.2397 28.9775C22.1917 28.9775 22.2397 28.9775 22.2397 28.9536C22.2397 28.9536 22.2397 28.9296 22.2397 28.9056C22.3357 28.6657 22.1438 28.3538 22.0478 28.1378C21.9278 27.8739 21.7599 27.61 21.544 27.4181C21.328 27.2261 20.9921 27.1062 20.6803 27.1782C20.5123 27.2261 20.4403 26.9622 20.6083 26.9143L20.6323 26.8903Z" fill="#C2856B"/>
<path d="M22.1678 28.3767C21.9998 28.0888 21.7119 27.8489 21.376 27.9448C21.2561 27.9928 21.1361 28.0888 21.1121 28.2327C21.0881 28.4247 21.2081 28.6166 21.3041 28.7605C21.352 28.8085 21.3041 28.9045 21.2561 28.9525C21.1841 29.0005 21.1121 28.9525 21.0641 28.9045C20.9442 28.7366 20.8482 28.5446 20.8242 28.3527C20.8242 28.1608 20.8722 27.9688 21.0162 27.8489C21.2801 27.6089 21.6879 27.5849 21.9758 27.7769C22.1438 27.8968 22.2877 28.0408 22.4077 28.2327C22.5036 28.3767 22.2637 28.5206 22.1678 28.3767Z" fill="#C2856B"/>
<path d="M32.4367 13.4812C27.3504 13.6971 23.6557 17.7997 22.5041 21.3505C21.8324 23.4138 22.4321 26.4608 23.6557 32.5787C23.7757 33.1545 23.9676 34.0902 24.6154 35.0978C25.3591 36.2494 26.2948 36.8492 27.7343 37.7609C28.9579 38.5286 29.8216 39.0805 31.1411 39.3923C32.4367 39.7042 33.4683 39.6563 33.7322 39.6323C35.1717 39.5123 36.1794 39.0325 36.8032 38.7206C37.427 38.4087 40.4499 36.9452 41.7934 33.6583C42.1053 32.8906 42.2013 32.3628 42.4412 30.7793C43.2569 25.5251 43.6648 22.91 43.6168 22.5501C43.161 18.4235 38.3626 13.2173 32.4367 13.4572V13.4812Z" fill="#E19E79"/>
<path d="M43.6888 22.598C43.7368 22.9578 43.3289 25.5729 42.5132 30.8271C42.2733 32.4106 42.1773 32.9384 41.8654 33.7062C40.4979 36.993 37.475 38.4565 36.8752 38.7684C36.2514 39.0563 35.2197 39.5602 33.7802 39.6561C33.5883 39.6561 32.9645 39.7281 32.0768 39.6081C33.3004 39.4642 34.1881 39.0323 34.7399 38.7684C35.3637 38.4565 38.3866 36.993 39.7302 33.7062C40.0421 32.9384 40.138 32.4106 40.378 30.8271C41.1937 25.5729 41.6015 22.9578 41.5535 22.598C41.1217 18.8312 37.0911 14.1528 31.8369 13.5531C32.0528 13.5291 32.2688 13.5051 32.5087 13.5051C38.4346 13.2652 43.233 18.4714 43.6888 22.598Z" fill="#C2856B"/>
<path d="M28.1663 41.2641C27.8305 41.3361 27.5426 41.1202 27.3266 40.8802C27.1107 40.6403 26.9668 40.3284 26.8948 40.0165C26.7268 39.3927 26.8228 38.721 27.2067 38.1932L26.7748 38.2411C27.0387 38.577 27.2307 38.9849 27.3986 39.3688C27.5905 39.8006 27.7585 40.2565 27.9504 40.6883C27.9984 40.8083 28.0464 40.9042 28.0944 41.0242C28.0944 41.0482 28.1903 41.3121 28.2143 41.3121L28.2383 41.2641C28.2383 41.2641 28.1424 41.3121 28.1184 41.3121C27.9984 41.3601 27.8784 41.3841 27.7585 41.4081C27.3746 41.48 26.9908 41.3601 26.6549 41.1441C26.247 40.8802 25.9591 40.4964 25.6712 40.1125C25.5752 39.9925 25.4313 39.9446 25.3113 40.0165C25.1914 40.0885 25.1194 40.2804 25.2154 40.4004C25.7912 41.2161 26.6309 42.1038 27.7105 41.9599C27.9744 41.9359 28.2623 41.8639 28.5022 41.72C28.7901 41.576 28.7661 41.2641 28.6702 41.0002C28.4542 40.4724 28.2383 39.9446 28.0224 39.4167C27.7825 38.8649 27.5666 38.3131 27.1827 37.8333C27.0627 37.6893 26.8468 37.7613 26.7508 37.8813C26.367 38.3851 26.223 39.0569 26.295 39.6806C26.367 40.3044 26.6309 41.0002 27.1347 41.432C27.4706 41.72 27.8784 41.8639 28.3103 41.7439C28.4542 41.72 28.5262 41.552 28.5022 41.4081C28.4542 41.2641 28.3103 41.1921 28.1663 41.2161V41.2641Z" fill="#457177"/>
<path d="M32.4126 29.1721L32.1727 31.1635L32.1247 31.6673C32.1247 31.8352 32.1007 32.0032 32.1967 32.1711C32.2927 32.3151 32.4366 32.387 32.5806 32.459C32.7245 32.531 32.8445 32.603 32.9884 32.6749C33.1804 32.7709 33.3963 32.7229 33.5163 32.531C33.6122 32.363 33.5642 32.0991 33.3723 32.0032C33.2523 31.9552 33.1324 31.8832 33.0124 31.8352C32.9644 31.8112 32.8685 31.7393 32.7965 31.7393H32.7725C32.8205 31.8832 32.8685 31.9312 32.8685 31.8112C32.9165 31.6913 32.8925 31.4993 32.9165 31.3794L32.9644 30.9475L33.1564 29.1961C33.1564 29.0042 32.9644 28.8123 32.7725 28.8123C32.5566 28.8123 32.4126 28.9802 32.3886 29.1961L32.4126 29.1721Z" fill="#454546"/>
<path d="M40.5458 23.5568C40.4739 23.7248 40.2819 23.8687 40.114 23.8687C40.09 23.8927 40.066 23.8927 40.042 23.8927C39.97 23.8927 39.8741 23.8687 39.7541 23.8207C39.1543 23.4849 38.1946 23.173 37.139 23.3889C36.8991 23.4369 36.6832 23.5088 36.4912 23.5808C36.2033 23.7008 35.8674 23.5808 35.7235 23.2929C35.6035 22.981 35.7235 22.6212 36.0354 22.5012C36.3233 22.3812 36.5872 22.3093 36.8991 22.2133C37.5709 22.0693 38.1707 22.0933 38.7225 22.1893C39.2983 22.3093 39.8021 22.5012 40.2099 22.6931C40.2099 22.6931 40.5698 22.8611 40.5938 23.197C40.5938 23.3409 40.5458 23.4849 40.5218 23.5328L40.5458 23.5568Z" fill="#454546" stroke="#454546" stroke-width="0.0785527" stroke-miterlimit="10"/>
<path d="M25.2394 23.7023C25.3114 23.8703 25.5033 24.0142 25.6712 24.0142C25.6952 24.0382 25.7192 24.0382 25.7432 24.0382C25.8152 24.0382 25.9112 24.0142 26.0311 23.9663C26.6309 23.6304 27.5906 23.3185 28.6462 23.5344C28.8861 23.5824 29.1021 23.6544 29.294 23.7263C29.5819 23.8463 29.9178 23.7263 30.0617 23.4384C30.1817 23.1265 30.0617 22.7667 29.7498 22.6467C29.4619 22.5267 29.198 22.4548 28.8861 22.3588C28.2384 22.2149 27.6146 22.2388 27.0628 22.3348C26.487 22.4548 25.9831 22.6467 25.5753 22.8386C25.5753 22.8386 25.2154 23.0066 25.1914 23.3425C25.1914 23.4864 25.2394 23.6304 25.2634 23.6784L25.2394 23.7023Z" fill="#454546" stroke="#454546" stroke-width="0.0785527" stroke-miterlimit="10"/>
<path opacity="0.6" d="M38.2901 31.2104H38.2421L36.9466 30.8505C35.699 30.5146 34.6914 29.579 34.2355 28.3794L33.6357 26.8439C33.6357 26.8439 33.6357 26.604 33.7557 26.556C33.8757 26.508 33.9956 26.556 34.0436 26.6759L34.6434 28.2114C35.0513 29.291 35.9629 30.1068 37.0905 30.4187L38.3861 30.7785C38.3861 30.7785 38.578 30.9225 38.53 31.0425C38.5061 31.1384 38.4101 31.2104 38.3141 31.2104H38.2901Z" fill="#BC7E64"/>
<path opacity="0.6" d="M27.6145 31.2824C27.6145 31.2824 27.4226 31.2104 27.3986 31.1145C27.3746 30.9945 27.4226 30.8746 27.5425 30.8506L28.8381 30.4907C29.9417 30.1788 30.8534 29.3631 31.2852 28.2834L31.885 26.748C31.885 26.748 32.053 26.58 32.1729 26.628C32.2929 26.676 32.3409 26.7959 32.2929 26.9159L31.6931 28.4514C31.2372 29.651 30.2056 30.5867 28.982 30.9225L27.6865 31.2824H27.6385H27.6145Z" fill="#BC7E64"/>
<path d="M36.5146 25.9813C36.5146 25.9813 36.3467 25.9573 36.2987 25.8853C36.1547 25.7654 36.1547 25.5494 36.2747 25.4055C36.5146 25.1416 36.7785 24.9496 37.0904 24.8057C38.4099 24.2539 39.7295 25.1656 39.9934 25.3575C40.1373 25.4775 40.1613 25.6694 40.0654 25.8373C39.9694 26.0053 39.7535 26.0053 39.6095 25.9093C39.4896 25.8134 38.3859 24.9976 37.3783 25.4295C37.1624 25.5255 36.9704 25.6694 36.7785 25.8613C36.7065 25.9333 36.6106 25.9813 36.5386 25.9813H36.5146Z" fill="#454546"/>
<path d="M29.5332 25.9811C29.5332 25.9811 29.7011 25.9571 29.7491 25.8851C29.893 25.7651 29.893 25.5492 29.7731 25.4052C29.5332 25.1413 29.2692 24.9494 28.9574 24.8055C27.6378 24.2536 26.3183 25.1653 26.0544 25.3573C25.9104 25.4772 25.8864 25.6692 25.9824 25.8371C26.0784 26.005 26.2943 26.005 26.4382 25.9091C26.5582 25.8131 27.6618 24.9974 28.6695 25.4292C28.8854 25.5252 29.0773 25.6692 29.2692 25.8611C29.3412 25.9331 29.4372 25.9811 29.5092 25.9811H29.5332Z" fill="#454546"/>
<path d="M37.7617 26.5567C38.1592 26.5567 38.4815 26.2345 38.4815 25.8369C38.4815 25.4394 38.1592 25.1172 37.7617 25.1172C37.3642 25.1172 37.042 25.4394 37.042 25.8369C37.042 26.2345 37.3642 26.5567 37.7617 26.5567Z" fill="#454546"/>
<path d="M28.3574 26.5565C28.755 26.5565 29.0772 26.2342 29.0772 25.8367C29.0772 25.4392 28.755 25.1169 28.3574 25.1169C27.9599 25.1169 27.6377 25.4392 27.6377 25.8367C27.6377 26.2342 27.9599 26.5565 28.3574 26.5565Z" fill="#454546"/>
<path d="M38.482 27.7788C37.9062 27.7788 37.4504 27.6349 37.2585 27.5629C37.1385 27.5149 37.0905 27.395 37.1385 27.275C37.1865 27.155 37.3064 27.1071 37.4264 27.155C37.7143 27.251 38.722 27.5869 39.6816 27.0351C40.0175 26.8431 40.3054 26.5792 40.5213 26.2433C40.5933 26.1474 40.7373 26.0994 40.8332 26.1714C40.9292 26.2433 40.9532 26.3633 40.9052 26.4833C40.6413 26.8911 40.3054 27.203 39.8975 27.4189C39.4177 27.6829 38.9139 27.7788 38.482 27.7788Z" fill="#F8DAAE"/>
<path d="M27.6623 27.9238C27.2305 27.9238 26.7267 27.8278 26.2468 27.5639C25.743 27.276 25.4311 26.8921 25.2632 26.6282C25.1912 26.5323 25.2392 26.3883 25.3351 26.3403C25.4311 26.2683 25.5751 26.3163 25.623 26.4123C25.767 26.6522 26.0549 26.9641 26.4628 27.204C27.4224 27.7318 28.4301 27.4199 28.718 27.324C28.8379 27.276 28.9579 27.324 29.0059 27.4439C29.0539 27.5639 29.0059 27.6839 28.8859 27.7318C28.694 27.8038 28.2381 27.9478 27.6623 27.9478V27.9238Z" fill="#E1BA94"/>
<g opacity="0.9">
<path d="M27.1829 28.8606C24.8797 28.6926 23.1284 26.6773 23.2963 24.3501C23.4642 22.0229 25.4795 20.2955 27.8067 20.4634C30.1339 20.6314 31.8613 22.6467 31.6934 24.9739C31.5254 27.3011 29.5101 29.0285 27.1829 28.8606ZM27.7588 20.9912C25.7434 20.8473 23.9681 22.3588 23.8241 24.3981C23.6802 26.4374 25.1916 28.1888 27.2069 28.3327C29.2222 28.4767 30.9976 26.9652 31.1416 24.9259C31.2855 22.8866 29.7741 21.1352 27.7348 20.9912H27.7588Z" fill="white"/>
<path d="M37.8353 28.8371C35.5321 28.6692 33.7807 26.6539 33.9486 24.3267C34.1166 21.9995 36.1319 20.272 38.4591 20.44C40.7863 20.6079 42.5137 22.6232 42.3457 24.9504C42.1778 27.2776 40.1625 29.0051 37.8353 28.8371ZM38.4111 20.9678C36.3958 20.8239 34.6204 22.3353 34.4765 24.3746C34.3325 26.4139 35.844 28.1653 37.8833 28.3093C39.9226 28.4532 41.674 26.9418 41.8179 24.9025C41.9619 22.8632 40.4504 21.1118 38.4111 20.9678Z" fill="white"/>
<path opacity="0.2" d="M27.783 20.9912C25.7677 20.8472 23.9923 22.3587 23.8484 24.398C23.7044 26.4373 25.2159 28.1887 27.2312 28.3327C29.2465 28.4766 31.0219 26.9651 31.1658 24.9258C31.3098 22.8865 29.7983 21.1351 27.759 20.9912H27.783Z" fill="#E0E1E2"/>
<path d="M24.736 24.855C24.5921 24.855 24.4961 24.711 24.4961 24.591C24.5441 23.8953 24.832 23.2235 25.3118 22.7197C25.4078 22.6237 25.5757 22.6237 25.6717 22.7197C25.7677 22.8156 25.7916 22.9836 25.6717 23.0796C25.2638 23.5114 25.0239 24.0632 24.9999 24.663C24.9999 24.807 24.856 24.9029 24.736 24.9029V24.855Z" fill="white"/>
<path opacity="0.2" d="M38.4353 20.9909C36.42 20.847 34.6446 22.3585 34.5007 24.3978C34.3567 26.4371 35.8682 28.1885 37.9075 28.3324C39.9468 28.4764 41.6982 26.9649 41.8422 24.9256C41.9861 22.8863 40.4746 21.1349 38.4353 20.9909Z" fill="#E0E1E2"/>
<path d="M31.5735 24.782C31.9573 24.83 32.3652 24.854 32.7731 24.854C33.013 24.854 33.2289 24.854 33.4688 24.854C33.6608 24.854 33.8287 24.854 34.0206 24.806C34.1886 24.758 34.2845 24.614 34.2605 24.4461C34.2366 24.3022 34.0686 24.1822 33.9007 24.2062C33.8287 24.2062 33.7567 24.2302 33.6847 24.2302C33.6368 24.2302 33.5888 24.2302 33.5408 24.2302C33.5408 24.2302 33.4688 24.2302 33.5168 24.2302C33.5648 24.2302 33.4688 24.2302 33.4688 24.2302C33.2529 24.2302 33.013 24.2302 32.7971 24.2302C32.4132 24.2302 32.0053 24.2302 31.6215 24.1582C31.4535 24.1582 31.3096 24.2782 31.3096 24.4221C31.3096 24.5901 31.4295 24.71 31.5735 24.734V24.782Z" fill="white"/>
<path d="M35.2682 24.6877C35.1243 24.6877 35.0283 24.5437 35.0283 24.4237C35.0763 23.8719 35.2442 23.3441 35.5561 22.9123C35.6281 22.7923 35.7961 22.7683 35.916 22.8403C36.036 22.9123 36.06 23.0802 35.988 23.2002C35.7241 23.584 35.5801 24.0159 35.5561 24.4717C35.5561 24.6157 35.4122 24.7117 35.2922 24.7117L35.2682 24.6877Z" fill="white"/>
</g>
<path d="M34.8352 34.017C34.7392 34.8807 34.0675 35.5525 33.1798 35.6725C33.1078 35.6725 33.0118 35.6725 32.9159 35.6725C32.8439 35.6725 32.7479 35.6725 32.6759 35.6725C31.8122 35.5765 31.1645 34.9287 31.0205 34.089V33.969C31.0205 33.969 31.1405 33.7771 31.2364 33.7771H34.5953C34.7392 33.7771 34.8352 33.8731 34.8352 34.017Z" fill="#DB7188"/>
<path d="M28.6934 9.01818C29.629 8.63431 31.5004 8.03452 33.5637 8.6583C35.387 9.21011 36.5866 10.5057 37.4743 11.4893C39.4416 13.6486 39.5376 15.1361 41.1451 15.6879C42.1527 16.0478 43.1843 15.8318 43.8321 15.5919C43.5442 15.52 43.0644 15.376 42.5126 15.1121C40.2574 13.9365 40.1374 11.8972 38.6259 9.92987C36.8265 7.62665 33.4197 5.89925 30.9966 6.83493C29.797 7.29077 29.1012 8.29843 28.7174 8.99419L28.6934 9.01818Z" fill="#828282"/>
<path d="M58.8996 62.7363C58.8996 62.7363 57.9639 59.8093 56.1645 54.0753C54.3651 48.3412 49.9027 46.8298 49.9027 46.8298L37.6189 41.6235C33.9962 44.2146 28.598 41.6235 28.598 41.6235L16.3143 46.8298C16.3143 46.8298 11.8518 48.3412 10.0525 54.0753C8.27707 59.8093 8.78089 62.7363 8.78089 62.7363H58.8996Z" fill="#95D7E5"/>
<path d="M39.1306 42.2476L37.6191 41.5999C33.9964 44.191 28.5982 41.5999 28.5982 41.5999L26.9668 42.2956C28.3583 43.2553 34.1163 46.6861 39.1306 42.2476Z" fill="#4BA8B7"/>
<path d="M34.0442 62.7366C34.9079 60.1935 35.3878 57.4584 35.3878 54.6274C35.3878 50.2609 34.2841 46.2063 32.3408 42.6555C34.0442 42.8954 36.0835 42.7994 37.715 41.5999L49.9987 46.8061C49.9987 46.8061 54.4852 48.3415 56.2605 54.0756C57.94 59.4497 58.8756 62.3767 58.9716 62.7366H34.0202H34.0442Z" fill="#59A0A5"/>
<path d="M39.1545 42.2236C37.1871 43.951 35.1239 44.5269 33.2285 44.4789C32.9886 43.8551 32.7007 43.2793 32.3408 42.7035C32.5807 42.7035 32.7727 42.7275 33.0126 42.7515C33.6124 42.7994 34.2122 42.7994 34.8599 42.7035C35.8436 42.5835 36.8033 42.2236 37.667 41.5999L39.1545 42.2236Z" fill="#28747C"/>
<path d="M13.9387 45.2214C13.9387 45.2214 11.3476 47.2367 11.7555 47.6926C11.8994 48.0765 14.4425 48.3644 14.4425 48.3644L15.0423 46.637L13.9387 45.2454V45.2214Z" fill="#4BA8B7"/>
<path d="M13.0986 39.2948L13.3625 48.6995L19.1445 48.2677L18.4008 38.647L13.0986 39.3187V39.2948Z" fill="#E19E79"/>
<path d="M12.9668 38.9522L13.2024 43.3616H18.8582L18.4779 38.6484L12.9668 38.9634V38.9522Z" fill="#95D7E5"/>
<path d="M20.513 63.0243C20.0091 56.2826 19.4573 49.3489 18.9535 42.5833C16.5303 44.9344 14.0832 48.3653 11.708 47.5975C12.2838 55.131 12.3558 56.0666 12.9316 63.6001L20.513 63.0243Z" fill="#7CD0E0"/>
<path d="M19.5052 28.3798C19.1933 30.1072 18.8574 31.8346 18.5455 33.562C18.7854 33.778 19.0733 34.0179 19.3372 34.4977C19.6731 35.1215 19.6491 35.5054 19.7691 37.0648C19.937 39.1281 18.4016 40.9515 16.3383 41.0955L14.7548 41.2154C12.6915 41.3833 10.9161 39.8239 10.7482 37.7366L10.3883 33.0582C10.3403 32.5544 10.7242 32.1225 11.228 32.0745C11.7319 32.0265 12.1637 32.4104 12.2117 32.9142L12.1397 32.1225C12.0917 31.4507 12.6915 30.8989 13.3633 31.0429C12.5476 28.7157 12.7155 28.6677 12.4276 27.852C12.3317 27.5881 12.3557 27.3002 12.4756 27.0602C12.8595 26.2445 14.107 26.9163 14.3949 27.78C14.5869 28.3078 14.3949 27.78 16.1703 32.8423L16.6502 32.7943L17.5379 27.9479C17.6338 27.3961 18.1616 27.0123 18.7374 27.1322C19.2892 27.2282 19.6491 27.78 19.5532 28.3318L19.5052 28.3798Z" fill="#7CD0E0"/>
<path d="M14.6351 32.5309L14.5871 31.9551C14.5392 31.4033 14.2033 30.9475 13.7474 30.7315L12.4759 27.0128C12.9557 26.389 13.9634 26.533 14.2513 27.3007C14.4672 27.9245 14.3232 27.6606 15.9787 32.4349L14.6591 32.5309H14.6351ZM19.6254 27.6606L18.6417 33.0587C18.3298 32.7948 17.826 32.291 16.9143 32.363H16.6984L17.6341 27.2767C17.7301 26.7249 18.2579 26.341 18.8337 26.461C19.3855 26.557 19.7454 27.1088 19.6494 27.6606H19.6254ZM13.7954 33.5146C13.8194 33.9944 14.0353 34.4023 14.3232 34.7382C14.2752 35.122 13.9873 35.4579 13.6275 35.5779C13.1716 35.5059 12.7878 35.122 12.7638 34.6422L12.4999 31.2833C13.1236 30.7795 14.0833 31.1874 14.1553 32.0031L14.2033 32.6989C13.9394 32.8908 13.7954 33.2027 13.8194 33.5146H13.7954ZM12.164 32.9628L12.3319 35.0021C12.3559 35.4339 12.116 35.7938 11.7321 35.9377C11.3243 35.8658 11.0124 35.5299 10.9884 35.098L10.7725 32.267C11.3483 31.8831 12.14 32.267 12.188 32.9628H12.164Z" fill="#95D7E5"/>
<path d="M19.7449 37.0648C19.8408 38.2164 19.385 39.2961 18.6413 40.0398C18.1374 40.3517 17.5856 40.5436 16.9618 40.5916L15.3784 40.7116C13.3391 40.8795 11.5397 39.3201 11.3718 37.2328L11.2998 36.4171C11.7796 36.465 12.2595 36.2491 12.5474 35.8412C13.3391 36.3451 14.3947 35.9612 14.7066 35.0735C15.3544 35.5054 15.9302 35.4094 16.506 35.3854C15.1385 36.0092 14.2268 37.4007 14.2268 38.9842C14.2268 39.1281 14.3468 39.2241 14.4667 39.2001C14.5867 39.2001 14.6826 39.0801 14.6826 38.9602C14.6826 37.3287 15.7863 35.9132 17.3697 35.5773C17.3697 35.3374 17.2497 35.0975 17.1058 34.9056C17.1058 34.8816 17.2018 34.8816 15.9782 34.9775C15.0905 35.0495 14.3467 34.3777 14.2748 33.514C14.2748 33.2741 14.4427 33.0342 14.6826 33.0342L16.9618 32.8663C17.3697 32.8423 17.8016 32.9622 18.1134 33.2501C18.6892 33.754 19.0491 33.9939 19.337 34.5697C19.6729 35.1935 19.6489 35.5773 19.7689 37.1368L19.7449 37.0648Z" fill="#95D7E5"/>
<path d="M28.5978 40.0864C28.5978 40.2544 28.6938 41.0221 28.6458 41.238C28.022 41.7419 23.8474 45.1727 24.0634 51.9144C24.0634 52.1063 23.9194 52.2743 23.7035 52.2982C23.5115 52.2982 23.3436 52.1543 23.3436 51.9384C23.2236 48.8914 24.0394 45.9164 25.6468 43.4213C26.4145 42.1977 28.5738 40.1104 28.5738 40.1104L28.5978 40.0864Z" fill="#BBBBCD"/>
<path d="M23.6553 55.1276C24.6491 55.1276 25.4547 54.322 25.4547 53.3282C25.4547 52.3344 24.6491 51.5288 23.6553 51.5288C22.6616 51.5288 21.856 52.3344 21.856 53.3282C21.856 54.322 22.6616 55.1276 23.6553 55.1276Z" fill="#575B6D"/>
<path d="M23.6555 54.3143C24.1988 54.3143 24.6392 53.8739 24.6392 53.3306C24.6392 52.7873 24.1988 52.3469 23.6555 52.3469C23.1123 52.3469 22.6719 52.7873 22.6719 53.3306C22.6719 53.8739 23.1123 54.3143 23.6555 54.3143Z" fill="#BBBBCD"/>
<path d="M43.9525 49.6836C42.0571 49.3717 40.1378 51.6509 39.61 54.8898C39.3461 56.2813 39.4421 57.7208 39.8979 59.0643C40.0179 59.4002 40.1858 59.7121 40.3777 60C40.6416 60.024 40.9055 59.9041 41.0255 59.6641C40.8336 59.3762 40.6656 59.0404 40.5457 58.7045C40.1618 57.5049 40.0898 56.2333 40.3058 54.9857C40.7616 52.2507 42.369 50.1394 43.8325 50.3793C45.296 50.6192 46.1357 53.1384 45.7039 55.8734C45.512 57.121 45.0321 58.2966 44.2884 59.3283C44.0964 59.5922 43.8565 59.8321 43.5926 60.048C43.6166 60.3119 43.8085 60.5278 44.0724 60.5998C44.3603 60.3599 44.6243 60.096 44.8642 59.8081C45.6799 58.6805 46.2317 57.3849 46.4236 55.9934C46.9515 52.7545 45.8718 49.9954 43.9525 49.6836Z" fill="#BBBBCD"/>
<path d="M40.5696 58.7069C40.3056 58.659 40.0417 58.8029 39.8978 59.0428C39.8738 59.1148 39.8258 59.1628 39.8498 59.2348V59.2828C39.7778 59.6186 40.0417 59.9305 40.3776 59.9785C40.6415 60.0265 40.9054 59.9065 41.0254 59.6666C41.0494 59.5946 41.0974 59.5467 41.0974 59.4507C41.1454 59.1148 40.9054 58.7789 40.5696 58.7069ZM44.8401 59.7866C44.7921 59.5706 44.5762 59.3787 44.3363 59.3307H44.2883C43.9524 59.2828 43.6165 59.5227 43.5685 59.8586C43.5685 59.9305 43.5685 59.9785 43.5685 60.0505C43.5925 60.3144 43.7605 60.5303 44.0484 60.6023C44.0484 60.6023 44.0963 60.6263 44.1203 60.6023C44.4562 60.6503 44.7921 60.4344 44.8641 60.0745C44.8641 59.9785 44.8641 59.8825 44.8641 59.7866H44.8401Z" fill="#575B6D"/>
<path d="M43.7123 50.2839C43.7123 50.2839 43.6644 50.2839 43.6404 50.2839C43.4484 50.2359 43.3285 50.068 43.3765 49.876C43.5444 49.0603 43.7123 47.4528 42.9686 45.7254C42.5847 44.8377 42.0089 43.998 41.2652 43.3502C41.1212 43.2303 41.1212 43.0144 41.2652 42.8704C41.3851 42.7265 41.6011 42.7265 41.745 42.8704C42.5368 43.5902 43.1845 44.5019 43.6164 45.4855C44.4321 47.3809 44.2402 49.1563 44.0722 50.044C44.0482 50.2119 43.9043 50.3319 43.7363 50.3319L43.7123 50.2839Z" fill="#BBBBCD"/>
</svg>
