<svg width="11" height="16" viewBox="0 0 11 16" fill="none" xmlns="http://www.w3.org/2000/svg">
<g clip-path="url(#clip0_248_8294)">
<path d="M8.59279 6.62208H5.24448L8.19549 0.66001C8.34562 0.356008 8.12472 0 7.78587 0H2.8736C2.58783 0 2.3369 0.191408 2.26184 0.467529L0.0190967 8.71953C-0.0736585 9.06052 0.183161 9.54306 0.536488 9.54306H3.42906C3.66175 9.54306 3.82528 9.62617 3.74914 9.84599L1.79592 15.4708C1.70585 15.7292 1.89833 15.9995 2.17177 15.9995H3.31003L3.36204 15.5051L2.88486 15.3336L9.00563 7.46653C9.27317 7.12285 9.02814 6.62208 8.59279 6.62208Z" fill="#F2832D"/>
<path d="M2.96629 15.2289L2.13578 14.4917L1.79586 15.4713C1.79318 15.4782 1.79104 15.4852 1.78943 15.4927C1.78728 15.5002 1.78567 15.5072 1.78353 15.5147C1.78353 15.5152 1.78353 15.5158 1.78353 15.5163C1.78192 15.5233 1.78085 15.5302 1.77924 15.5372C1.77924 15.5383 1.77924 15.5393 1.7787 15.5399C1.77763 15.5463 1.77656 15.5533 1.77602 15.5597C1.77602 15.5608 1.77602 15.5624 1.77602 15.5635C1.77549 15.5699 1.77495 15.5763 1.77441 15.5828C1.77441 15.5844 1.77441 15.586 1.77441 15.5871C1.77441 15.5935 1.77441 15.5994 1.77441 15.6053C1.77441 15.6069 1.77441 15.6085 1.77441 15.6101C1.77441 15.616 1.77441 15.6219 1.77549 15.6278C1.77549 15.6294 1.77549 15.6316 1.77549 15.6332C1.77549 15.6391 1.77656 15.6444 1.7771 15.6503C1.7771 15.6525 1.77709 15.6541 1.77763 15.6562C1.77817 15.6616 1.77924 15.6675 1.78031 15.6729C1.78031 15.675 1.78085 15.6771 1.78138 15.6793C1.78246 15.6846 1.78353 15.69 1.78514 15.6954C1.78514 15.6975 1.78621 15.6997 1.78675 15.7018C1.78835 15.7072 1.78943 15.712 1.79104 15.7168C1.79157 15.719 1.79264 15.7211 1.79318 15.7238C1.79479 15.7286 1.7964 15.7334 1.79801 15.7383C1.79908 15.7404 1.79961 15.7431 1.80069 15.7452C1.80229 15.7501 1.80444 15.7543 1.80658 15.7592C1.80766 15.7613 1.80873 15.764 1.8098 15.7661C1.81195 15.7704 1.81409 15.7747 1.81623 15.7795C1.81731 15.7822 1.81892 15.7844 1.81999 15.7871C1.82213 15.7913 1.82428 15.7956 1.82696 15.7994C1.82857 15.8021 1.82964 15.8042 1.83125 15.8069C1.83339 15.8106 1.83607 15.8149 1.83875 15.8187C1.84036 15.8214 1.84197 15.8235 1.84358 15.8262C1.84626 15.8299 1.84894 15.8337 1.85162 15.8375C1.85323 15.8401 1.85537 15.8423 1.85698 15.845C1.85966 15.8487 1.86234 15.8519 1.86502 15.8551C1.86717 15.8578 1.86931 15.86 1.87146 15.8627C1.87414 15.8659 1.87736 15.8691 1.88004 15.8723C1.88218 15.8744 1.88433 15.8771 1.88701 15.8793C1.88969 15.8825 1.8929 15.8852 1.89612 15.8884C1.8988 15.8905 1.90095 15.8932 1.90363 15.8954C1.90684 15.898 1.90953 15.9007 1.91274 15.9034C1.91542 15.9055 1.9181 15.9077 1.92079 15.9104C1.924 15.9131 1.92722 15.9157 1.93044 15.9179C1.93312 15.92 1.93633 15.9222 1.93901 15.9243C1.94223 15.9265 1.94545 15.9291 1.94867 15.9313C1.95188 15.9334 1.9551 15.9356 1.95778 15.9372C1.961 15.9393 1.96421 15.9415 1.96743 15.9436C1.97065 15.9458 1.97386 15.9474 1.97762 15.9495C1.98083 15.9517 1.98405 15.9533 1.9878 15.9549C1.99102 15.9565 1.99477 15.9586 1.99853 15.9602C2.00174 15.9618 2.0055 15.9634 2.00871 15.9651C2.01247 15.9667 2.01622 15.9683 2.01997 15.9699C2.02319 15.9715 2.02694 15.9726 2.03016 15.9742C2.03391 15.9758 2.0382 15.9769 2.04196 15.9785C2.04517 15.9795 2.04893 15.9811 2.05214 15.9822C2.05643 15.9833 2.06072 15.9844 2.06448 15.986C2.06769 15.987 2.07145 15.9881 2.07466 15.9886C2.07895 15.9897 2.08324 15.9908 2.08807 15.9913C2.09128 15.9919 2.09504 15.9929 2.09825 15.9935C2.10308 15.9945 2.1079 15.9951 2.11273 15.9956C2.11595 15.9956 2.11916 15.9967 2.12238 15.9972C2.12774 15.9978 2.1331 15.9983 2.13846 15.9988C2.14115 15.9988 2.14383 15.9994 2.14704 15.9994C2.15509 15.9994 2.16366 15.9999 2.17224 15.9999H3.3105L3.36251 15.5056L2.88533 15.334L2.96683 15.2289H2.96629Z" fill="#DF5F27"/>
<path d="M2.89612 12.3015L4.07084 13.4532L5.79297 9.92524L2.21412 5.34861L1.23081 4.26074L0.0190967 8.71943C-0.0736585 9.06042 0.183161 9.54296 0.536488 9.54296H3.42906C3.66175 9.54296 3.82528 9.62607 3.74914 9.84589L2.89665 12.3015H2.89612Z" fill="#DF5F27"/>
<path d="M9.47 6.62208H6.1217L9.07325 0.660009C9.22337 0.356008 9.00248 0 8.66362 0H3.75135C3.46558 0 3.21466 0.191408 3.1396 0.467529L0.945108 8.71952C0.799273 9.25139 1.10917 9.54306 1.4625 9.54306H4.30628C4.76362 9.52858 4.7025 9.77254 4.62636 9.9929L2.67314 15.4713C2.58307 15.7298 2.77555 16 3.04899 16H3.31063L3.32993 15.8837C3.34173 15.8719 3.35299 15.8595 3.36318 15.8461L9.88285 7.46652C10.1504 7.12285 9.90536 6.62208 9.47 6.62208Z" fill="#FEEDBA"/>
<path d="M3.56584 12.9673L3.90201 13.3008C3.90201 13.3008 5.65203 11.0849 5.68635 10.0957C5.72066 9.10648 2.27424 5.41557 2.27424 5.41557L1.92628 5.02954L0.945108 8.71991C0.799273 9.25178 1.10917 9.54345 1.4625 9.54345H4.30628C4.76362 9.52897 4.7025 9.77292 4.62636 9.99328L3.56584 12.9679V12.9673Z" fill="#FFD26F"/>
<path d="M3.29647 15.2494L3.05573 15.2933L2.80803 15.0896L2.67185 15.4719C2.58177 15.7303 2.77425 16.0005 3.04769 16.0005H3.30934L3.36134 15.5062L3.29593 15.2499L3.29647 15.2494Z" fill="#FFD26F"/>
<path d="M3.6243 15.8467L10.144 7.46706C10.4115 7.12338 10.1665 6.62261 9.73113 6.62261H6.8273C6.62249 6.62261 6.48899 6.40761 6.58013 6.22425L9.33437 0.660009C9.4845 0.356008 9.2636 0 8.92475 0H4.01248C3.7267 0 3.47578 0.191408 3.40072 0.467529L1.13278 8.8096C1.05235 9.10556 1.27486 9.39669 1.58154 9.39669H4.56686C4.79956 9.39669 4.96308 9.62616 4.88695 9.84652L2.93373 15.4713C2.84365 15.7298 3.03613 16 3.30957 16C3.43235 16 3.54816 15.9432 3.62376 15.8461L3.6243 15.8467Z" fill="#F9AF36"/>
<path d="M3.7432 13.1432L4.85144 14.2702L7.36387 11.0409L2.10685 5.229L1.13373 8.80946C1.0533 9.10542 1.27634 9.39655 1.58249 9.39655H4.56781C4.8005 9.39655 4.96403 9.62603 4.8879 9.84639L3.7432 13.1432Z" fill="url(#paint0_linear_248_8294)"/>
</g>
<defs>
<linearGradient id="paint0_linear_248_8294" x1="1.11711" y1="9.74988" x2="7.36334" y2="9.74988" gradientUnits="userSpaceOnUse">
<stop stop-color="#DF5F27"/>
<stop offset="0.24" stop-color="#E87B2C"/>
<stop offset="0.54" stop-color="#F19731"/>
<stop offset="0.81" stop-color="#F7A834"/>
<stop offset="1" stop-color="#F9AF36"/>
</linearGradient>
<clipPath id="clip0_248_8294">
<rect width="10.2556" height="16" fill="white"/>
</clipPath>
</defs>
</svg>
