<svg width="124" height="24" viewBox="0 0 124 24" fill="none" xmlns="http://www.w3.org/2000/svg">
<g clip-path="url(#clip0_243_8084)">
<path d="M35.6112 3.37309C38.1805 3.37309 39.9414 5.0989 39.9414 7.70181C39.9414 10.2764 38.113 12.0044 35.4783 12.0044H33.0113V15.8902H30.394V3.37309H35.6112ZM33.0113 9.87927H34.9095C36.4088 9.87927 37.2849 9.11345 37.2849 7.70836C37.2849 6.28581 36.4262 5.52218 34.9204 5.52218H33.0135V9.87927H33.0113Z" fill="#10847E"/>
<path d="M41.4778 2.67054H43.9534V7.89381H44.1125C44.5527 6.79854 45.5922 6.14181 46.9957 6.14181C49.0485 6.14181 50.2711 7.43127 50.2711 9.7309V15.888H47.7497V10.3287C47.7497 9.00218 47.133 8.3149 45.991 8.3149C44.7249 8.3149 43.997 9.15708 43.997 10.4007V15.8902H41.4778V2.67054V2.67054Z" fill="#10847E"/>
<path d="M51.8533 13.1586C51.8533 11.4262 53.1783 10.4182 55.5537 10.2807L57.868 10.1433V9.36001C57.868 8.56365 57.2971 8.11201 56.2554 8.11201C55.3488 8.11201 54.7408 8.42619 54.5316 8.99565H52.2085C52.3719 7.22837 53.9933 6.11783 56.3927 6.11783C58.9228 6.11783 60.3546 7.31346 60.3546 9.36001V15.8946H57.9094V14.6422H57.7525C57.26 15.5215 56.2205 16.0429 54.9827 16.0429C53.1412 16.0386 51.8533 14.9106 51.8533 13.1586ZM57.8659 12.4211V11.7164L55.9329 11.8407C54.8498 11.9171 54.3202 12.3076 54.3202 12.9927C54.3202 13.7062 54.9347 14.1404 55.8086 14.1404C56.9789 14.1404 57.8659 13.392 57.8659 12.4211Z" fill="#10847E"/>
<path d="M62.4773 6.32073H64.9224V7.848H65.0793C65.3299 6.89454 66.315 6.16582 67.5288 6.16582C67.8753 6.16582 68.3003 6.20945 68.5182 6.28582V8.58764C68.3155 8.50909 67.7293 8.42836 67.3218 8.42836C65.9467 8.42836 65.0009 9.24436 65.0009 10.5905V15.8902H62.4773V6.32073V6.32073Z" fill="#10847E"/>
<path d="M69.9651 6.32073H72.4124V7.88073H72.5671C72.9594 6.78982 73.9531 6.11346 75.2106 6.11346C76.553 6.11346 77.4705 6.77237 77.8518 7.88073H78.0109C78.4533 6.81382 79.5517 6.11346 80.8854 6.11346C82.7922 6.11346 83.9778 7.35273 83.9778 9.32291V15.8902H81.4585V9.99273C81.4585 8.856 80.9311 8.29091 79.8655 8.29091C78.8434 8.29091 78.1853 9.01964 78.1853 10.0364V15.8902H75.7598V9.888C75.7598 8.87128 75.167 8.28873 74.182 8.28873C73.1926 8.28873 72.4909 9.06328 72.4909 10.1302V15.8902H69.9695V6.32073H69.9651Z" fill="#10847E"/>
<path d="M94.6039 15.8902H86.3228V3.37309H94.6039V5.60945H88.9379V8.53527H94.2836V10.608H88.9379V13.6516H94.6039V15.8902Z" fill="#10847E"/>
<path d="M95.8875 13.1586C95.8875 11.4262 97.2168 10.4182 99.5878 10.2807L101.904 10.1433V9.36001C101.904 8.56365 101.329 8.11201 100.29 8.11201C99.3808 8.11201 98.775 8.42619 98.5679 8.99565H96.2449C96.4083 7.22837 98.0297 6.11783 100.429 6.11783C102.959 6.11783 104.393 7.31346 104.393 9.36001V15.8946H101.946V14.6422H101.793C101.296 15.5215 100.259 16.0429 99.0169 16.0429C97.1819 16.0386 95.8875 14.9106 95.8875 13.1586ZM101.904 12.4211V11.7164L99.967 11.8407C98.8839 11.9171 98.3566 12.3076 98.3566 12.9927C98.3566 13.7062 98.9733 14.1404 99.8472 14.1404C101.017 14.1404 101.904 13.392 101.904 12.4211Z" fill="#10847E"/>
<path d="M109.922 6.11346C112.345 6.11346 113.777 7.128 113.914 8.95855H111.583C111.454 8.34109 110.872 7.95709 109.937 7.95709C109.037 7.95709 108.368 8.36728 108.368 8.97382C108.368 9.44073 108.776 9.73091 109.658 9.92946L111.454 10.3222C113.309 10.7302 114.139 11.5069 114.139 12.9404C114.139 14.8473 112.435 16.0996 109.929 16.0996C107.407 16.0996 105.882 15.0655 105.707 13.2284H108.168C108.362 13.8764 108.976 14.2495 109.983 14.2495C110.961 14.2495 111.637 13.8436 111.637 13.2284C111.637 12.7571 111.273 12.4713 110.434 12.2902L108.702 11.8996C106.847 11.4895 105.945 10.6058 105.945 9.13091C105.943 7.32 107.536 6.11346 109.922 6.11346Z" fill="#10847E"/>
<path d="M115.462 19.344V17.3149C115.547 17.3302 115.928 17.3302 116.035 17.3302C116.978 17.3302 117.517 17.0269 117.724 16.296L117.809 15.9513L114.455 6.32291H117.238L119.249 13.5731H119.402L121.413 6.32291H124.083L120.79 16.0385C119.975 18.5018 118.805 19.368 116.423 19.368C116.327 19.368 115.564 19.3615 115.462 19.344Z" fill="#10847E"/>
<path d="M12.814 12.2378C11.6242 13.3702 10.4583 14.52 9.29453 15.6742C8.95674 16.0102 8.82816 16.44 8.92841 16.9178C9.17249 18.0895 10.5607 18.5171 11.4629 17.6945C12.1864 17.0291 12.8794 16.3375 13.5746 15.6349C13.7925 15.4211 13.9233 15.3709 14.1674 15.6175C15.2374 16.6931 16.3248 17.7535 17.4254 18.7876C17.6694 19.0233 17.6411 19.1542 17.4057 19.3702C16.6953 20.0422 15.9892 20.736 15.294 21.4276C14.8364 21.888 14.7427 22.4487 14.9868 23.0313C15.2352 23.6204 15.7212 23.8996 16.2355 23.928C16.752 23.9389 17.1072 23.8167 17.3818 23.544C18.5607 22.4051 19.7441 21.2705 20.8991 20.1098C21.4526 19.5447 21.4526 18.7244 20.8904 18.168C18.8724 16.176 16.8544 14.208 14.819 12.2422C14.5291 11.9651 14.1717 11.8233 13.8165 11.8233C13.4613 11.8233 13.0995 11.9673 12.814 12.2378Z" fill="#10847E"/>
<path d="M16.8129 0.0458298C14.8733 0.0458298 12.9055 0.73092 11.3102 2.21892C9.93295 3.51056 8.6036 4.84801 7.25028 6.16801C5.98195 7.4051 4.71798 8.63128 3.45619 9.86619C3.01598 10.2982 2.8765 10.8218 3.08353 11.4109C3.28838 12 3.73731 12.3098 4.34097 12.384C4.87489 12.4516 5.30638 12.2269 5.68121 11.8516C8.15903 9.42547 10.6434 7.01019 13.1212 4.58838C14.359 3.36001 15.8322 2.86474 17.5625 3.05237C20.2256 3.34256 22.2545 5.9171 21.8884 8.54619C21.7184 9.72001 21.2106 10.6931 20.3673 11.5266C19.7309 12.1506 19.6546 12.9862 20.2278 13.5753C21.0995 14.4851 22.0126 15.3731 22.9388 16.2284C23.5315 16.7673 24.4664 16.6844 25.0156 16.1149C25.5692 15.5149 25.5495 14.6727 24.9481 14.0553C24.5645 13.6713 24.1897 13.2698 23.7778 12.9142C23.4945 12.6698 23.44 12.4996 23.6754 12.1549C24.5275 10.9026 24.9219 9.48874 24.9415 7.97238C24.9415 7.32656 24.8565 6.70038 24.7149 6.08074C23.7408 2.29092 20.3171 0.0501935 16.8151 0.0501935H16.8129" fill="#10847E"/>
</g>
<defs>
<clipPath id="clip0_243_8084">
<rect width="124" height="24" fill="white"/>
</clipPath>
</defs>
</svg>
