<svg width="148" height="40" viewBox="0 0 148 40" fill="none" xmlns="http://www.w3.org/2000/svg">
<path fill-rule="evenodd" clip-rule="evenodd" d="M15.9456 40.0015C15.325 39.9683 14.7375 39.6319 14.4438 38.9213C14.1501 38.2249 14.2638 37.5474 14.8181 36.9978C15.6566 36.1687 16.5047 35.3302 17.3622 34.5201C17.6464 34.2595 17.6796 34.1031 17.3859 33.8236C16.0641 32.5729 14.7517 31.3032 13.4679 30.0099C13.1741 29.7161 13.013 29.773 12.7525 30.0336C11.9187 30.8768 11.0801 31.7107 10.2131 32.5113C9.12822 33.5015 7.45585 32.9851 7.16211 31.578C7.03894 31.0048 7.19528 30.4836 7.60271 30.0809C9.00504 28.6976 10.4026 27.3094 11.8381 25.9497C12.5251 25.296 13.5437 25.2865 14.2448 25.9592C16.6942 28.3233 19.1246 30.6873 21.5549 33.0846C22.2324 33.7478 22.2324 34.738 21.5644 35.4155C20.1716 36.8131 18.7503 38.1727 17.329 39.5466C16.9974 39.8688 16.5662 40.0157 15.9456 40.0015Z" fill="#10847E"/>
<path fill-rule="evenodd" clip-rule="evenodd" d="M26.4291 20.812C26.4054 22.6359 25.9316 24.3367 24.9036 25.8433C24.6193 26.2602 24.6904 26.4639 25.0268 26.7529C25.5242 27.1793 25.9743 27.6625 26.4386 28.1268C27.1634 28.8706 27.1871 29.8845 26.5191 30.6046C25.8606 31.2915 24.733 31.391 24.0224 30.7372C22.9043 29.7139 21.8052 28.6432 20.7535 27.5488C20.0665 26.8429 20.1565 25.8386 20.924 25.0853C21.9426 24.0856 22.5537 22.9107 22.7527 21.5037C23.1933 18.3437 20.7535 15.2453 17.5461 14.8994C15.4663 14.6768 13.6944 15.269 12.2021 16.7471C9.2174 19.6607 6.22797 22.5649 3.24329 25.4785C2.79321 25.9286 2.27208 26.1986 1.62777 26.1228C0.902914 26.0328 0.362826 25.6633 0.111733 24.9526C-0.134622 24.242 0.0311958 23.6119 0.561807 23.0955C2.07784 21.6079 3.59861 20.1345 5.12411 18.6516C6.74911 17.0645 8.35516 15.4537 10.0133 13.9045C15.3905 8.88743 24.3256 11.4599 26.1448 18.5427C26.3249 19.2817 26.4291 20.035 26.4291 20.812Z" fill="#10847E"/>
<path d="M36.7012 16.5977H42.8743C44.3998 16.5977 45.6363 17.0667 46.5838 18.0095C47.5313 18.9475 48.0051 20.184 48.0051 21.719C48.0051 23.235 47.5171 24.4668 46.5364 25.4001C45.5605 26.3382 44.2861 26.8024 42.7227 26.8024H39.7996V31.3979H36.7012V16.5977ZM39.7996 19.137V24.2868H42.0452C42.9406 24.2868 43.6323 24.0641 44.1203 23.6283C44.6082 23.1877 44.8546 22.5528 44.8546 21.7237C44.8546 20.8899 44.613 20.2503 44.125 19.805C43.6418 19.3597 42.9501 19.137 42.0499 19.137H39.7996Z" fill="#10847E"/>
<path d="M49.8242 31.4036V15.7695H52.7568V21.9426H52.9416C53.2069 21.2936 53.638 20.7866 54.2302 20.4171C54.8224 20.0523 55.533 19.8676 56.3574 19.8676C57.5797 19.8676 58.5319 20.2371 59.2141 20.9762C59.8916 21.7152 60.2375 22.7622 60.2375 24.1172V31.3989H57.2528V24.8278C57.2528 24.0461 57.0775 23.4587 56.7174 23.0512C56.3621 22.6485 55.8457 22.4448 55.1682 22.4448C54.4292 22.4448 53.8512 22.6675 53.4343 23.1175C53.0174 23.5629 52.8089 24.1646 52.8089 24.9084V31.4036H49.8242Z" fill="#10847E"/>
<path d="M65.8064 31.5796C64.712 31.5796 63.8213 31.2669 63.1344 30.6463C62.4474 30.0257 62.1016 29.2013 62.1016 28.1733C62.1016 27.1547 62.4806 26.3493 63.2338 25.7666C63.9871 25.1791 65.072 24.8475 66.4791 24.7669L69.2174 24.6011V23.6773C69.2174 23.2035 69.0516 22.8387 68.7247 22.5829C68.3978 22.3271 67.9241 22.1992 67.3082 22.1992C66.1996 22.1992 65.5221 22.5498 65.2663 23.2462H62.5185C62.6132 22.1992 63.1107 21.3701 64.0013 20.7589C64.892 20.1478 66.0527 19.8398 67.474 19.8398C68.9663 19.8398 70.1176 20.1762 70.9372 20.8442C71.7568 21.5122 72.1642 22.4597 72.1642 23.6773V31.4043H69.2743V29.9262H69.0895C68.7958 30.4473 68.3552 30.85 67.7772 31.1438C67.1945 31.4327 66.5407 31.5796 65.8064 31.5796ZM66.7918 29.334C67.4835 29.334 68.0615 29.1397 68.5258 28.7465C68.99 28.358 69.2222 27.8748 69.2222 27.3016V26.4725L66.9339 26.6146C65.6595 26.7046 65.0247 27.1594 65.0247 27.979C65.0247 28.3959 65.1857 28.7276 65.5126 28.9692C65.8395 29.2108 66.2659 29.334 66.7918 29.334Z" fill="#10847E"/>
<path d="M74.6777 31.4044V20.091H77.5677V21.896H77.7524C77.904 21.3228 78.2451 20.8443 78.7852 20.47C79.3206 20.0958 79.9459 19.9062 80.6566 19.9062C81.1682 19.9062 81.5567 19.9536 81.8268 20.0484V22.7678C81.5093 22.6446 81.0403 22.583 80.4102 22.583C79.5812 22.583 78.9179 22.8104 78.4157 23.2699C77.9135 23.7295 77.6624 24.3501 77.6624 25.1366V31.4044H74.6777Z" fill="#10847E"/>
<path d="M83.5488 31.4035V20.0901H86.4388V21.9378H86.6235C86.8557 21.2887 87.2489 20.7771 87.8079 20.4028C88.367 20.0333 89.016 19.8438 89.7503 19.8438C90.5368 19.8438 91.2 20.0285 91.7354 20.3933C92.2707 20.7581 92.6545 21.2745 92.8772 21.9378H93.0619C93.3272 21.3029 93.7678 20.796 94.3742 20.4123C94.9807 20.0333 95.6818 19.8438 96.4683 19.8438C97.5958 19.8438 98.4912 20.1849 99.145 20.8718C99.8035 21.554 100.13 22.4779 100.13 23.6433V31.4082H97.1457V24.4297C97.1457 23.089 96.5156 22.421 95.2602 22.421C94.6585 22.421 94.1753 22.6152 93.8152 22.9943C93.4504 23.378 93.2704 23.8754 93.2704 24.4819V31.4082H90.3947V24.3113C90.3947 23.7144 90.2288 23.2501 89.9019 22.9232C89.5751 22.5916 89.1155 22.4257 88.528 22.4257C87.9453 22.4257 87.4668 22.6295 87.0926 23.0416C86.7183 23.4491 86.5288 23.9702 86.5288 24.6003V31.413L83.5488 31.4035Z" fill="#10847E"/>
<path d="M112.713 28.7504V31.3987H102.906V16.5938H112.713V19.2421H106.005V22.7005H112.334V25.1498H106.005V28.7504H112.713Z" fill="#10847E"/>
<path d="M117.933 31.5796C116.839 31.5796 115.948 31.2669 115.261 30.6463C114.574 30.0257 114.229 29.2013 114.229 28.1733C114.229 27.1547 114.608 26.3493 115.361 25.7666C116.114 25.1791 117.199 24.8475 118.606 24.7669L121.344 24.6011V23.6773C121.344 23.2035 121.179 22.8387 120.852 22.5829C120.525 22.3271 120.051 22.1992 119.435 22.1992C118.327 22.1992 117.649 22.5498 117.393 23.2462H114.645C114.74 22.1992 115.238 21.3701 116.128 20.7589C117.019 20.1478 118.18 19.8398 119.601 19.8398C121.093 19.8398 122.245 20.1762 123.064 20.8442C123.884 21.5122 124.291 22.4597 124.291 23.6773V31.4043H121.401V29.9262H121.216C120.923 30.4473 120.482 30.85 119.904 31.1438C119.321 31.4327 118.668 31.5796 117.933 31.5796ZM118.919 29.334C119.61 29.334 120.188 29.1397 120.653 28.7465C121.117 28.3533 121.349 27.8748 121.349 27.3016V26.4725L119.061 26.6146C117.786 26.7046 117.152 27.1594 117.152 27.979C117.152 28.3959 117.313 28.7276 117.64 28.9692C117.966 29.2108 118.393 29.334 118.919 29.334Z" fill="#10847E"/>
<path d="M126.135 23.412C126.135 22.3366 126.566 21.4743 127.433 20.8205C128.3 20.1667 129.437 19.8398 130.844 19.8398C132.28 19.8398 133.407 20.1288 134.222 20.7116C135.042 21.2943 135.487 22.1234 135.572 23.2035H132.81C132.734 22.834 132.531 22.545 132.19 22.3366C131.853 22.1281 131.408 22.0239 130.858 22.0239C130.318 22.0239 129.873 22.1376 129.527 22.3602C129.177 22.5829 129.006 22.8719 129.006 23.2272C129.006 23.502 129.129 23.7294 129.376 23.9094C129.622 24.0895 130.006 24.2411 130.536 24.3548L132.659 24.8191C133.758 25.0607 134.563 25.4255 135.075 25.9182C135.587 26.4109 135.838 27.0789 135.838 27.9174C135.838 29.0403 135.378 29.9404 134.464 30.6274C133.545 31.3096 132.346 31.6554 130.854 31.6554C129.361 31.6554 128.182 31.3617 127.315 30.7742C126.448 30.1868 125.96 29.3482 125.855 28.2633H128.769C129.011 29.0734 129.721 29.4714 130.915 29.4714C131.498 29.4714 131.967 29.3577 132.332 29.135C132.697 28.9123 132.877 28.6234 132.877 28.2586C132.877 27.979 132.763 27.7516 132.54 27.5763C132.313 27.401 131.953 27.2589 131.451 27.15L129.399 26.6857C128.3 26.4441 127.48 26.0603 126.94 25.5202C126.4 24.9849 126.135 24.2837 126.135 23.412Z" fill="#10847E"/>
<path d="M138.535 35.5202C137.9 35.5202 137.521 35.5107 137.398 35.4918V33.0898C137.464 33.104 137.692 33.1088 138.076 33.1088C138.644 33.1088 139.089 33.0093 139.407 32.815C139.729 32.6208 139.952 32.3128 140.075 31.8865L140.179 31.479L136.209 20.0898H139.502L141.88 28.6649H142.065L144.443 20.0898H147.603L143.704 31.5785C143.225 33.0282 142.6 34.0468 141.823 34.6343C141.051 35.2265 139.952 35.5202 138.535 35.5202Z" fill="#10847E"/>
<path d="M37.7151 9.79334H36.5212L38.4447 1.54518H35.6211L35.8485 0.597656H42.6943L42.4859 1.54518H39.6481L37.7151 9.79334Z" fill="#10847E"/>
<path d="M44.9226 2.77344C45.349 2.77344 45.728 2.87766 46.0644 3.08612C46.396 3.29457 46.6566 3.59304 46.8414 3.98152H46.9172L47.3815 2.90135H48.2626L46.6424 9.79456H45.7186L45.8986 8.48224H45.8417C45.0127 9.44397 44.1362 9.92247 43.2218 9.92247C42.5775 9.92247 42.0706 9.71402 41.7058 9.30185C41.341 8.88494 41.1562 8.31643 41.1562 7.59631C41.1562 6.72459 41.3221 5.91446 41.649 5.17066C41.9759 4.42212 42.4307 3.8394 43.0134 3.41775C43.5961 2.9961 44.231 2.77344 44.9226 2.77344ZM43.6009 9.04602C44.0509 9.04602 44.4963 8.85177 44.9416 8.46329C45.3869 8.07481 45.747 7.56789 46.0265 6.94726C46.306 6.32664 46.4434 5.70127 46.4434 5.07591C46.4434 4.64479 46.3155 4.29894 46.0549 4.04311C45.7944 3.78728 45.4533 3.65937 45.0316 3.65937C44.5484 3.65937 44.103 3.83939 43.6861 4.19945C43.2692 4.55951 42.9471 5.04748 42.7102 5.66337C42.4733 6.27926 42.3549 6.92831 42.3549 7.61526C42.3549 8.09376 42.4638 8.44908 42.6818 8.68596C42.8997 8.92758 43.2076 9.04602 43.6009 9.04602Z" fill="#10847E"/>
<path d="M50.7438 6.27732L54.4012 2.89941H55.7988L52.5394 5.83672L54.5907 9.79262H53.2926L51.6582 6.49525L50.6017 7.26748L50.0332 9.78788H48.8535L51.1465 0H52.3262C51.9945 1.40707 51.6913 2.672 51.4308 3.78534C51.1655 4.89868 50.9286 5.72776 50.7201 6.26784H50.7438V6.27732Z" fill="#10847E"/>
<path d="M58.5059 9.91773C57.6531 9.91773 56.9851 9.69033 56.4972 9.23078C56.0092 8.77597 55.7676 8.14113 55.7676 7.331C55.7676 6.54456 55.9381 5.78655 56.284 5.06169C56.6298 4.33684 57.0846 3.77307 57.6579 3.37511C58.2264 2.97242 58.8565 2.77344 59.5434 2.77344C60.2541 2.77344 60.7847 2.91083 61.1448 3.19034C61.5001 3.46986 61.6801 3.85835 61.6801 4.35579C61.6801 5.10907 61.2964 5.70127 60.5241 6.13239C59.7566 6.56351 58.6528 6.77671 57.222 6.77671H56.9946L56.9662 7.27889C56.9662 7.82845 57.1083 8.25484 57.3926 8.56752C57.6768 8.87546 58.1174 9.0318 58.7144 9.0318C59.0081 9.0318 59.3066 8.9939 59.6145 8.9181C59.9225 8.8423 60.3062 8.70491 60.7657 8.50119V9.42029C60.3299 9.60505 59.9461 9.73297 59.6098 9.80877C59.2781 9.87983 58.9086 9.91773 58.5059 9.91773ZM59.4724 3.67358C58.9939 3.67358 58.5485 3.87256 58.1269 4.26578C57.7053 4.659 57.3878 5.20856 57.1652 5.90972H57.2504C58.3069 5.90972 59.1171 5.78655 59.6808 5.53545C60.2446 5.28436 60.5241 4.92431 60.5241 4.45055C60.5241 4.22788 60.4389 4.04311 60.2683 3.89625C60.0977 3.74938 59.8372 3.67358 59.4724 3.67358Z" fill="#10847E"/>
<path d="M66.2729 9.8039H65.1074L66.7324 2.9107H67.8979L66.2729 9.8039ZM67.0546 1.14357C67.0546 0.906693 67.1304 0.717186 67.2772 0.57032C67.4241 0.423455 67.6184 0.347656 67.8552 0.347656C68.2627 0.347656 68.4664 0.537158 68.4664 0.911428C68.4664 1.14357 68.3906 1.33781 68.2342 1.49415C68.0779 1.65523 67.8979 1.73103 67.6942 1.73103C67.5094 1.73103 67.3578 1.67892 67.2346 1.57469C67.1162 1.47994 67.0546 1.33308 67.0546 1.14357Z" fill="#10847E"/>
<path d="M71.0541 9.0554C71.3099 9.0554 71.6415 9.00329 72.0537 8.88958V9.69971C71.8974 9.75656 71.7031 9.80868 71.471 9.85132C71.2389 9.89395 71.0541 9.91291 70.9167 9.91291C70.3387 9.91291 69.8934 9.78973 69.5854 9.53864C69.2775 9.28754 69.1211 8.91801 69.1211 8.42056C69.1211 8.14578 69.1638 7.82836 69.2443 7.47778L70.1255 3.69244H68.9316L69.0311 3.23289L70.315 2.74018L71.182 1.30469H71.8642L71.4805 2.89179H73.385L73.2049 3.69244H71.3052L70.4098 7.49199C70.3245 7.85679 70.2866 8.13157 70.2866 8.32107C70.2866 8.55795 70.3529 8.73798 70.4903 8.86116C70.6277 8.99381 70.8125 9.0554 71.0541 9.0554Z" fill="#10847E"/>
<path d="M78.9493 9.91773C78.0965 9.91773 77.4285 9.69033 76.9405 9.23078C76.4526 8.77597 76.2109 8.14113 76.2109 7.331C76.2109 6.54456 76.3815 5.78655 76.7273 5.06169C77.0732 4.33684 77.528 3.77307 78.1012 3.37511C78.6698 2.97242 79.2998 2.77344 79.9868 2.77344C80.6974 2.77344 81.2281 2.91083 81.5881 3.19034C81.9434 3.46986 82.1235 3.85835 82.1235 4.35579C82.1235 5.10907 81.7397 5.70127 80.9675 6.13239C80.2 6.56351 79.0961 6.77671 77.6654 6.77671H77.438L77.4095 7.27889C77.4095 7.82845 77.5517 8.25484 77.8359 8.56752C78.1202 8.87546 78.5608 9.0318 79.1577 9.0318C79.4515 9.0318 79.7499 8.9939 80.0579 8.9181C80.3658 8.8423 80.7496 8.70491 81.2091 8.50119V9.42029C80.7732 9.60505 80.3895 9.73297 80.0531 9.80877C79.7215 9.87983 79.352 9.91773 78.9493 9.91773ZM79.9157 3.67358C79.4372 3.67358 78.9919 3.87256 78.5703 4.26578C78.1486 4.659 77.8312 5.20856 77.6085 5.90972H77.6938C78.7503 5.90972 79.5604 5.78655 80.1242 5.53545C80.688 5.28436 80.9675 4.92431 80.9675 4.45055C80.9675 4.22788 80.8822 4.04311 80.7116 3.89625C80.5411 3.74938 80.2758 3.67358 79.9157 3.67358Z" fill="#10847E"/>
<path d="M86.8191 2.77344C87.2455 2.77344 87.6245 2.87766 87.9609 3.08612C88.2925 3.29457 88.5531 3.59304 88.7379 3.98152H88.8137L89.2779 2.90135H90.1591L88.5389 9.79456H87.615L87.7951 8.48224H87.7382C86.9091 9.44397 86.0374 9.92247 85.1183 9.92247C84.474 9.92247 83.9671 9.71402 83.6023 9.30185C83.2375 8.88494 83.0527 8.31643 83.0527 7.59631C83.0527 6.72459 83.2186 5.91446 83.5454 5.17066C83.8723 4.42212 84.3272 3.8394 84.9099 3.41775C85.4926 2.9961 86.1274 2.77344 86.8191 2.77344ZM85.4973 9.04602C85.9474 9.04602 86.3928 8.85177 86.8381 8.46329C87.2834 8.07481 87.6435 7.56789 87.923 6.94726C88.2025 6.32664 88.3399 5.70127 88.3399 5.07591C88.3399 4.64479 88.212 4.29894 87.9514 4.04311C87.6908 3.78728 87.3497 3.65937 86.9281 3.65937C86.4449 3.65937 85.9995 3.83939 85.5826 4.19945C85.1657 4.55951 84.8435 5.04748 84.6067 5.66337C84.3698 6.27926 84.2513 6.92831 84.2513 7.61526C84.2513 8.09376 84.3603 8.44908 84.5782 8.68596C84.7962 8.92284 85.1041 9.04602 85.4973 9.04602Z" fill="#10847E"/>
<path d="M95.5316 7.8371C95.5316 8.49089 95.2757 9.00255 94.7641 9.36735C94.2524 9.73214 93.5323 9.91691 92.599 9.91691C91.8173 9.91691 91.1067 9.77004 90.4766 9.48105V8.48615C90.7987 8.66144 91.1493 8.79883 91.5283 8.89359C91.9073 8.98834 92.2532 9.04045 92.5706 9.04045C93.1533 9.04045 93.5939 8.93623 93.8924 8.72777C94.1908 8.51932 94.3377 8.24927 94.3377 7.92238C94.3377 7.6855 94.2572 7.48178 94.0961 7.3207C93.935 7.15963 93.5844 6.93222 93.0443 6.64797C92.4427 6.34002 92.0163 6.04155 91.7652 5.74782C91.5141 5.45409 91.3909 5.10824 91.3909 4.70555C91.3909 4.12756 91.6231 3.65854 92.0921 3.30796C92.5611 2.95737 93.177 2.77734 93.9397 2.77734C94.7309 2.77734 95.4984 2.93369 96.2327 3.24163L95.8585 4.10387L95.47 3.94753C95.001 3.7675 94.494 3.67749 93.9397 3.67749C93.5086 3.67749 93.1722 3.7675 92.9259 3.95227C92.6795 4.13704 92.5564 4.36918 92.5564 4.65817C92.5564 4.89505 92.6369 5.09403 92.8027 5.25985C92.9685 5.42566 93.3049 5.64359 93.8213 5.9089C94.3188 6.15999 94.6741 6.37792 94.8873 6.55795C95.1005 6.73798 95.2615 6.93222 95.3705 7.14068C95.4747 7.33966 95.5316 7.57653 95.5316 7.8371Z" fill="#10847E"/>
<path d="M97.283 2.89844H98.4532L98.9696 6.32846C99.0169 6.61746 99.0596 7.04384 99.107 7.60761C99.1496 8.17139 99.1733 8.62619 99.1733 8.97204H99.2159C99.377 8.60724 99.5807 8.1856 99.8223 7.71184C100.064 7.23808 100.239 6.91119 100.358 6.73116L102.618 2.89844H103.854L99.0075 10.9666C98.5763 11.6867 98.15 12.1889 97.7283 12.4684C97.3067 12.7479 96.7997 12.89 96.2075 12.89C95.8712 12.89 95.549 12.8474 95.2363 12.7574V11.9094C95.5301 11.9852 95.8333 12.0231 96.146 12.0231C96.525 12.0231 96.8519 11.9188 97.1219 11.7056C97.3919 11.4924 97.6573 11.1798 97.9131 10.7676L98.4437 9.91009L97.283 2.89844Z" fill="#10847E"/>
</svg>
