<svg width="16" height="16" viewBox="0 0 16 16" fill="none" xmlns="http://www.w3.org/2000/svg">
<rect width="16" height="16" rx="8" fill="#E6EBF4"/>
<path d="M12.0606 10.9484C11.8395 10.4248 11.5187 9.94918 11.116 9.54805C10.7146 9.14575 10.239 8.82501 9.71566 8.60352C9.71097 8.60117 9.70628 8.6 9.70159 8.59766C10.4317 8.07031 10.9063 7.21133 10.9063 6.24219C10.9063 4.63672 9.6055 3.33594 8.00003 3.33594C6.39456 3.33594 5.09378 4.63672 5.09378 6.24219C5.09378 7.21133 5.56839 8.07031 6.29847 8.59883C6.29378 8.60117 6.28909 8.60234 6.2844 8.60469C5.7594 8.82617 5.28831 9.14375 4.88401 9.54922C4.48172 9.95066 4.16097 10.4262 3.93948 10.9496C3.72189 11.462 3.60454 12.0114 3.59378 12.568C3.59347 12.5805 3.59566 12.5929 3.60023 12.6046C3.6048 12.6162 3.61166 12.6268 3.6204 12.6358C3.62913 12.6447 3.63957 12.6519 3.6511 12.6567C3.66263 12.6616 3.67502 12.6641 3.68753 12.6641H4.39065C4.44222 12.6641 4.48323 12.623 4.4844 12.5727C4.50784 11.668 4.87112 10.8207 5.51331 10.1785C6.17776 9.51406 7.06019 9.14844 8.00003 9.14844C8.93987 9.14844 9.8223 9.51406 10.4867 10.1785C11.1289 10.8207 11.4922 11.668 11.5157 12.5727C11.5168 12.6242 11.5578 12.6641 11.6094 12.6641H12.3125C12.325 12.6641 12.3374 12.6616 12.349 12.6567C12.3605 12.6519 12.3709 12.6447 12.3797 12.6358C12.3884 12.6268 12.3953 12.6162 12.3998 12.6046C12.4044 12.5929 12.4066 12.5805 12.4063 12.568C12.3946 12.0078 12.2785 11.4629 12.0606 10.9484ZM8.00003 8.25781C7.46214 8.25781 6.95589 8.04805 6.57503 7.66719C6.19417 7.28633 5.9844 6.78008 5.9844 6.24219C5.9844 5.7043 6.19417 5.19805 6.57503 4.81719C6.95589 4.43633 7.46214 4.22656 8.00003 4.22656C8.53792 4.22656 9.04417 4.43633 9.42503 4.81719C9.80589 5.19805 10.0157 5.7043 10.0157 6.24219C10.0157 6.78008 9.80589 7.28633 9.42503 7.66719C9.04417 8.04805 8.53792 8.25781 8.00003 8.25781Z" fill="#212121"/>
</svg>
