<svg width="331" height="64" viewBox="0 0 331 64" fill="none" xmlns="http://www.w3.org/2000/svg">
<g clip-path="url(#clip0_254_11209)">
<path d="M95.0592 8.99512C101.918 8.99512 106.618 13.5973 106.618 20.5384C106.618 27.4038 101.737 32.0118 94.7044 32.0118H88.1193V42.374H81.1328V8.99512H95.0592ZM88.1193 26.3449H93.1861C97.1883 26.3449 99.5269 24.3028 99.5269 20.5558C99.5269 16.7624 97.2349 14.726 93.2152 14.726H88.1251V26.3449H88.1193Z" fill="#10847E"/>
<path d="M110.719 7.12158H117.328V21.0503H117.752C118.927 18.1296 121.702 16.3783 125.448 16.3783C130.928 16.3783 134.192 19.8169 134.192 25.9492V42.3681H127.461V27.5434C127.461 24.0059 125.815 22.1732 122.767 22.1732C119.387 22.1732 117.444 24.419 117.444 27.7354V42.3739H110.719V7.12158Z" fill="#10847E"/>
<path d="M138.415 35.0892C138.415 30.4696 141.952 27.7816 148.293 27.4151L154.471 27.0485V24.9598C154.471 22.8361 152.946 21.6318 150.166 21.6318C147.746 21.6318 146.123 22.4696 145.564 23.9881H139.363C139.8 19.2754 144.128 16.314 150.532 16.314C157.286 16.314 161.108 19.5023 161.108 24.9598V42.3852H154.581V39.0456H154.162C152.848 41.3903 150.073 42.7809 146.769 42.7809C141.853 42.7692 138.415 39.7612 138.415 35.0892ZM154.465 33.1227V31.2434L149.305 31.5751C146.414 31.7787 145 32.8201 145 34.6471C145 36.5496 146.641 37.7074 148.973 37.7074C152.097 37.7074 154.465 35.7118 154.465 33.1227Z" fill="#10847E"/>
<path d="M166.774 16.8555H173.301V20.9282H173.72C174.389 18.3857 177.018 16.4424 180.258 16.4424C181.183 16.4424 182.318 16.5587 182.899 16.7624V22.9006C182.358 22.6911 180.793 22.4758 179.706 22.4758C176.035 22.4758 173.51 24.6518 173.51 28.2417V42.374H166.774V16.8555Z" fill="#10847E"/>
<path d="M186.762 16.8555H193.294V21.0155H193.707C194.755 18.1064 197.407 16.3027 200.764 16.3027C204.347 16.3027 206.796 18.0598 207.814 21.0155H208.239C209.42 18.1704 212.352 16.3027 215.912 16.3027C221.002 16.3027 224.166 19.6075 224.166 24.8613V42.374H217.442V26.6475C217.442 23.6162 216.034 22.1093 213.189 22.1093C210.461 22.1093 208.704 24.0526 208.704 26.7638V42.374H202.23V26.3682C202.23 23.6569 200.647 22.1035 198.018 22.1035C195.377 22.1035 193.504 24.1689 193.504 27.014V42.374H186.773V16.8555H186.762Z" fill="#10847E"/>
<path d="M252.531 42.374H230.426V8.99512H252.531V14.9588H237.406V22.7609H251.676V28.2882H237.406V36.4046H252.531V42.374Z" fill="#10847E"/>
<path d="M255.958 35.0892C255.958 30.4696 259.506 27.7816 265.836 27.4151L272.019 27.0485V24.9598C272.019 22.8361 270.484 21.6318 267.709 21.6318C265.283 21.6318 263.666 22.4696 263.113 23.9881H256.912C257.348 19.2754 261.676 16.314 268.081 16.314C274.835 16.314 278.663 19.5023 278.663 24.9598V42.3852H272.13V39.0456H271.723C270.396 41.3903 267.627 42.7809 264.312 42.7809C259.413 42.7692 255.958 39.7612 255.958 35.0892ZM272.019 33.1227V31.2434L266.848 31.5751C263.957 31.7787 262.549 32.8201 262.549 34.6471C262.549 36.5496 264.195 37.7074 266.528 37.7074C269.652 37.7074 272.019 35.7118 272.019 33.1227Z" fill="#10847E"/>
<path d="M293.421 16.3027C299.89 16.3027 303.712 19.0082 304.078 23.8896H297.854C297.51 22.2431 295.957 21.2191 293.462 21.2191C291.059 21.2191 289.273 22.3129 289.273 23.9304C289.273 25.1755 290.361 25.9493 292.717 26.4787L297.51 27.526C302.461 28.614 304.677 30.6853 304.677 34.5078C304.677 39.5929 300.128 42.9326 293.438 42.9326C286.708 42.9326 282.636 40.1747 282.17 35.2758H288.738C289.256 37.0038 290.896 37.9987 293.584 37.9987C296.196 37.9987 297.999 36.9166 297.999 35.2758C297.999 34.0191 297.028 33.2569 294.788 32.774L290.163 31.7326C285.213 30.6387 282.805 28.2824 282.805 24.3493C282.799 19.5202 287.051 16.3027 293.421 16.3027Z" fill="#10847E"/>
<path d="M308.208 51.5837V46.1728C308.435 46.2136 309.453 46.2136 309.738 46.2136C312.257 46.2136 313.694 45.4048 314.246 43.4557L314.473 42.5365L305.521 16.8608H312.949L318.318 36.1947H318.726L324.095 16.8608H331.221L322.431 42.7692C320.256 49.3379 317.132 51.6477 310.773 51.6477C310.517 51.6477 308.481 51.6303 308.208 51.5837Z" fill="#10847E"/>
<path d="M34.2052 32.6343C31.029 35.6539 27.9168 38.7201 24.8104 41.7979C23.9087 42.6939 23.5655 43.8401 23.8331 45.1143C24.4846 48.2386 28.1902 49.379 30.5985 47.1855C32.5299 45.411 34.3797 43.5666 36.2354 41.6932C36.8172 41.123 37.1662 40.9892 37.8177 41.6466C40.674 44.515 43.5768 47.3426 46.5145 50.1004C47.166 50.7288 47.0904 51.0779 46.4621 51.6539C44.5657 53.4459 42.6809 55.2961 40.8252 57.1404C39.6036 58.3681 39.3535 59.8634 40.005 61.4168C40.6682 62.9877 41.9654 63.7324 43.3383 63.8081C44.7169 63.8372 45.6651 63.5114 46.3981 62.7841C49.5452 59.747 52.704 56.7215 55.7871 53.6263C57.2647 52.1194 57.2647 49.9317 55.7639 48.4481C50.3771 43.1361 44.9904 37.8881 39.5571 32.6459C38.7834 31.907 37.8293 31.5288 36.8811 31.5288C35.9329 31.5288 34.9673 31.9128 34.2052 32.6343Z" fill="#10847E"/>
<path d="M44.88 0.12207C39.7026 0.12207 34.4497 1.94898 30.1915 5.91698C26.515 9.36134 22.9665 12.9279 19.354 16.4479C15.9684 19.7468 12.5944 23.0166 9.22621 26.3097C8.05114 27.4617 7.67883 28.8581 8.23147 30.429C8.77829 31.9999 9.97663 32.8261 11.588 33.0239C13.0132 33.2043 14.165 32.605 15.1656 31.6043C21.7798 25.1344 28.4114 18.6937 35.0256 12.2355C38.3298 8.95989 42.2622 7.63916 46.8811 8.13952C53.9897 8.91334 59.4056 15.7788 58.4283 22.7897C57.9745 25.9199 56.6191 28.5148 54.3679 30.7373C52.6692 32.4013 52.4656 34.6297 53.9956 36.2006C56.3225 38.6268 58.7599 40.9948 61.2322 43.2755C62.8145 44.7126 65.3101 44.4915 66.776 42.973C68.2536 41.373 68.2012 39.1272 66.5957 37.4806C65.5718 36.4566 64.5713 35.3861 63.4718 34.4377C62.7156 33.7861 62.5701 33.3323 63.1984 32.413C65.4729 29.0733 66.5259 25.3032 66.5782 21.2595C66.5782 19.5373 66.3513 17.8675 65.9732 16.2152C63.3729 6.10898 54.2341 0.133707 44.8858 0.133707H44.88" fill="#10847E"/>
</g>
<defs>
<clipPath id="clip0_254_11209">
<rect width="331" height="64" fill="white"/>
</clipPath>
</defs>
</svg>
