<svg width="56" height="56" viewBox="0 0 56 56" fill="none" xmlns="http://www.w3.org/2000/svg">
<path d="M32.9208 0.321396C53.3163 3.31682 49.1645 33 28.5502 33C7.89795 33 3.71783 3.25618 24.1589 0.309838C25.5743 0.105816 27.0241 0 28.5001 0C30.0038 0 31.4802 0.109814 32.9208 0.321396Z" fill="#F1F7FF"/>
<path d="M28.1058 5.70166C28.278 5.77701 31.7925 7.36776 28.9988 10.6477C28.953 10.7013 28.9088 10.7578 28.8658 10.8168C28.3182 10.912 27.751 10.879 27.2182 10.7134C26.1769 10.3898 24.5439 10.0657 23.2127 10.6254C21.6459 11.2842 21.8254 13.2546 21.9119 14.37C21.942 14.7577 21.8434 15.1467 21.619 15.4755C21.4866 15.6696 21.3815 16.1922 21.2982 16.3955C21.1946 16.6482 20.8949 16.9092 20.8493 17.1743C20.6087 17.0654 20.265 16.9467 19.971 16.9856C19.935 15.8196 19.8198 14.2458 19.8198 14.2458C18.5872 8.60408 23.4675 5.80315 28.1058 5.70166Z" fill="#4B4B51"/>
<path d="M29.8206 5.7902C34.4996 6.38592 34.9443 8.86501 34.9463 9.77453C34.9468 9.96523 35.0598 10.1421 35.2434 10.2255C37.6772 11.3319 36.365 16.9811 36.365 16.9811C36.1206 16.9963 35.8648 17.0888 35.674 17.1752C35.6274 16.9024 35.5501 16.6349 35.4433 16.3773C35.3612 16.1803 35.0326 15.6644 34.9043 15.4764C34.6826 15.1501 34.5796 14.7657 34.6107 14.3803C34.6982 13.2678 34.882 11.287 33.3107 10.6263C31.9795 10.0665 30.3464 10.3907 29.3051 10.7142C29.0063 10.8062 28.695 10.8578 28.3806 10.8674C28.4326 10.7921 28.4882 10.719 28.5475 10.6485C31.2275 7.50191 28.1016 5.90968 27.6908 5.71898C28.4097 5.67834 29.1275 5.70194 29.8206 5.7902Z" fill="#424248"/>
<path d="M24.0487 26.9658C24.3585 27.2625 24.6895 27.5391 25.0394 27.7938C25.9615 28.4618 27.0952 28.824 28.2619 28.8234C28.429 28.8234 28.5953 28.8151 28.7605 28.8004C28.8059 29.723 28.9965 31.1715 29.7039 32.1423C29.7104 32.1513 29.7188 32.1603 29.7261 32.1692H26.5308C26.4909 32.0731 26.4312 31.9852 26.3552 31.9105L23.359 28.9833C23.3113 28.9369 23.2567 28.8972 23.197 28.8652C23.7212 28.2388 23.9517 27.4442 24.0487 26.9658Z" fill="#C2856B"/>
<path d="M29.4764 32.1426C28.773 31.1772 28.5806 29.7395 28.5339 28.8161C29.6052 28.7642 30.6358 28.4091 31.4833 27.794C31.8246 27.5454 32.148 27.276 32.4512 26.9875C32.5503 27.4657 32.7801 28.241 33.2915 28.8569C33.2257 28.8903 33.1658 28.933 33.1139 28.9835L30.1178 31.9107C30.0418 31.9855 29.9821 32.0734 29.942 32.1695H29.4987C29.4914 32.1606 29.483 32.1516 29.4764 32.1426Z" fill="#B17860"/>
<path d="M26.5329 32.7573H29.9447C30.1662 33.3224 30.6439 34.2332 31.564 34.8683C30.7499 36.26 29.9291 37.4615 29.2612 38.3747C28.8814 38.8947 28.5694 39.4552 28.3319 40.0443C28.0944 39.4552 27.7824 38.8947 27.4027 38.3747C26.7198 37.4409 25.8769 36.2053 25.0448 34.7736C25.8796 34.1453 26.3222 33.2948 26.5329 32.7573Z" fill="#4BA8B7"/>
<path d="M26.5889 32.7337C26.6293 32.6294 26.646 32.5184 26.6379 32.4077C26.6299 32.297 26.5972 32.1891 26.5421 32.0908H29.9314C29.8763 32.1891 29.8436 32.297 29.8356 32.4077C29.8275 32.5184 29.8442 32.6294 29.8847 32.7337C30.0102 33.0578 30.1693 33.3696 30.3599 33.6647L29.3481 34.9379H27.175L26.136 33.6303C26.3167 33.3454 26.4683 33.0452 26.5889 32.7337Z" fill="#28747C"/>
<path d="M42.0403 5.84494C44.1097 4.44818 45.7648 3.78398 47.4417 3.85246C47.7361 4.18265 48.5232 5.17915 48.4408 6.31377C48.3927 6.97521 48.0568 7.56543 47.4417 8.07014C47.4786 8.12309 47.5107 8.17893 47.5374 8.23703C46.1819 8.17142 44.8018 8.51008 43.7041 9.25418C43.2488 9.56278 42.8856 10.0504 42.6683 10.6433L42.3858 11.6692L41.785 12.93C41.5952 12.8097 41.1999 12.707 40.9178 12.809L40.9175 12.8086L40.6458 8.86281C40.5314 7.72555 41.0613 6.50585 42.0403 5.84494Z" fill="#4BA8B7"/>
<path d="M50.7121 9.2553C49.739 8.59566 48.5452 8.25531 47.3436 8.2316C47.3063 8.16574 47.261 8.10415 47.2085 8.04809C49.6106 6.23256 47.2159 3.85178 47.2118 3.84766C48.8061 3.84871 50.4023 4.51397 52.3758 5.84606C53.3548 6.50687 53.8848 7.72657 53.7702 8.86394L53.4985 12.8097L53.4983 12.8102C53.2162 12.7081 52.8208 12.8108 52.6311 12.9311L52.0305 11.6704L51.7481 10.6445C51.5306 10.0516 51.1674 9.56391 50.7121 9.2553Z" fill="#28747C"/>
<path d="M42.6682 10.4626C42.8855 9.86971 43.2486 9.38204 43.704 9.07333C44.7816 8.34289 46.1313 8.00254 47.4628 8.05238C47.4556 8.05831 47.4489 8.06445 47.4416 8.07037C47.6063 8.30479 47.7305 8.68102 47.4735 9.04487C47.5989 9.10674 47.7218 9.17265 47.8423 9.24245C46.3917 9.13779 44.8853 9.39241 43.704 10.0082C43.2487 10.2456 42.8855 10.6208 42.6682 11.0768L42.2678 11.9172L42.6682 10.4626Z" fill="#95D7E5"/>
<path d="M50.7137 10.0087C49.775 9.51929 48.63 9.25757 47.4704 9.2235C47.3116 9.14201 47.21 9.09872 47.21 9.09872C47.7554 8.58915 47.2103 8.04782 47.21 8.04761C48.4568 8.04761 49.7039 8.38934 50.7135 9.07364C51.1688 9.38224 51.532 9.87002 51.7493 10.4629L52.1499 11.9176L51.7496 11.0773C51.5321 10.6212 51.1689 10.246 50.7137 10.0087Z" fill="#59A0A5"/>
<path d="M40.8634 12.7134C41.1285 12.4864 41.6565 12.6014 41.8847 12.7405C41.8347 13.0315 41.8319 13.3292 41.8751 13.6232L42.1445 15.4567C42.1445 15.6046 42.1495 15.7495 42.1587 15.892C41.5018 16.0771 41.1755 15.526 41.1205 15.1479C41.0969 14.9851 41.0581 14.8245 41.0046 14.6681C40.8298 14.158 40.1995 13.2821 40.8634 12.7134Z" fill="#C2856B"/>
<path d="M53.5595 12.7134C53.2944 12.4864 52.7664 12.6014 52.5382 12.7405C52.588 13.0326 52.5912 13.3301 52.5478 13.6232L52.2784 15.4567C52.2784 15.6046 52.2734 15.7495 52.2642 15.892C52.9211 16.0771 53.2475 15.526 53.3024 15.1479C53.326 14.9851 53.3649 14.8245 53.4184 14.6681C53.5932 14.158 54.2236 13.2821 53.5595 12.7134Z" fill="#D1714B"/>
<path d="M41.8245 12.7333L42.4622 11.3951L42.6708 10.9573C42.8881 10.5012 43.2512 10.1261 43.7066 9.88869C44.8214 9.30746 46.2257 9.04807 47.5996 9.10871C48.2304 9.43753 49.5675 10.2719 49.5675 11.4381C49.5675 11.502 49.5682 11.5779 49.5689 11.6646C49.5784 12.8388 49.5145 13.9091 49.3798 14.8776C47.672 14.2535 45.4597 14.4023 43.9932 15.3248C43.9774 15.3348 43.9615 15.3448 43.9457 15.3551C43.43 15.6857 42.8187 16.0122 42.1366 16.3028C42.102 16.0312 42.0825 15.7499 42.0825 15.4576L41.8131 13.6241C41.7693 13.3283 41.7732 13.0281 41.8245 12.7333Z" fill="#E19E79"/>
<path d="M50.3011 15.3234C49.9752 15.1184 49.6123 14.9518 49.2265 14.8231C49.437 13.2971 49.3953 11.9649 49.3953 11.4367C49.3953 10.0283 47.2078 9.09825 47.2078 9.09825L47.2079 9.09814C48.4554 9.09825 49.7026 9.36145 50.7113 9.88743C51.1667 10.1248 51.5298 10.5 51.7471 10.9561L51.9556 11.3937L52.6026 12.7515C52.6508 13.0399 52.6538 13.3332 52.6113 13.6223L52.3419 15.4562C52.3419 15.7671 52.3203 16.0657 52.2812 16.3531C51.5492 16.0498 50.8952 15.7039 50.3486 15.3535L50.3011 15.3234ZM43.3638 21.6567C43.8662 21.1872 44.0734 20.4974 44.155 20.0994C44.378 20.3122 44.6159 20.5108 44.8672 20.6938C45.5263 21.171 46.3343 21.4337 47.168 21.4417C47.2287 22.4026 47.5184 24.4748 48.8534 26.025C48.9051 26.0201 48.9569 26.017 49.0088 26.0159C48.056 27.1959 47.2244 27.8702 47.2122 27.8864C47.2054 27.8774 44.2721 25.4419 43.1115 21.8879C43.1112 21.8868 43.1104 21.8859 43.1101 21.8848C43.1963 21.8104 43.2809 21.7343 43.3638 21.6567Z" fill="#C2856B"/>
<path d="M47.21 21.4418C48.0585 21.4423 48.8831 21.1789 49.5537 20.6931C49.8051 20.51 50.043 20.3114 50.266 20.0986C50.3476 20.4967 50.5546 21.1865 51.0571 21.6559C51.1401 21.7336 51.2248 21.8096 51.311 21.884C51.3107 21.8852 51.3099 21.886 51.3094 21.8872C50.726 23.674 49.7331 25.144 48.8705 26.1822C48.8145 26.1876 48.781 26.1935 48.781 26.1935C47.3509 24.5868 47.0541 22.4224 46.9952 21.4355C47.0668 21.4392 47.1382 21.4418 47.21 21.4418Z" fill="#B17860"/>
<path d="M34.8257 26.439C34.9551 25.9825 35.2088 25.5651 35.562 25.2274C35.9153 24.8898 36.3561 24.6433 36.8415 24.5121C38.5765 24.042 40.3312 23.3311 41.346 22.8916C42.7418 26.6846 45.6127 29.0357 45.6654 29.1039L45.6638 29.105L46.8396 30.2287C46.9055 30.291 46.9939 30.3281 47.0876 30.3326C47.1812 30.3372 47.2734 30.309 47.3459 30.2534C47.4283 30.1597 48.969 29.1528 50.5362 27.258C50.5405 27.2936 50.5453 27.3289 50.5478 27.366C51.1685 27.3536 53.2497 27.4202 54.8367 28.7888C55.3171 29.2033 55.704 29.6984 55.9989 30.2697C55.9994 30.3298 56.0005 30.3896 56.0005 30.4498C56.0005 37.8663 52.667 44.5538 47.3254 49.2797C46.9145 43.4708 45.7878 38.7217 45.0509 36.1154C44.6899 34.8388 43.6368 33.8341 42.2796 33.4663C40.1227 32.8819 37.9434 32.0267 36.5142 31.4215L33.9152 30.3215C34.223 28.7071 34.5594 27.3808 34.8257 26.439Z" fill="#95D7E5"/>
<path d="M50.3835 27.5318C50.3835 27.5006 50.3818 27.4717 50.3807 27.4419C51.3712 26.279 52.3912 24.7611 53.0773 22.8916C53.7253 23.1723 54.3813 23.4368 55.0444 23.6848C55.6666 25.8417 56.0005 28.1092 56.0005 30.4498C56.0005 30.5199 55.9981 30.5894 55.9975 30.6594C54.5093 27.2235 50.3835 27.5318 50.3835 27.5318Z" fill="#2A428C"/>
<path d="M41.3441 22.4274C42.0481 22.1299 42.4952 21.9172 42.4952 21.9172C42.4952 21.9172 42.598 21.879 42.7954 21.7499C42.9326 21.6601 43.1243 21.7202 43.1733 21.87C43.5068 22.8915 44.5715 25.5061 47.2759 27.8598C46.9742 28.1287 46.6611 28.3863 46.3373 28.6317L45.6367 29.1622C42.8866 26.7059 41.6812 24.0535 41.2114 22.7085C41.1926 22.6546 41.1957 22.5961 41.2202 22.5442C41.2446 22.4923 41.2888 22.4507 41.3441 22.4274Z" fill="#4BA8B7"/>
<path d="M45.4589 21.1652C45.251 21.0657 45.0533 20.9485 44.8684 20.8151C43.7094 19.974 42.3665 18.427 42.121 16.1875C42.809 15.8953 43.4251 15.5664 43.9444 15.2334C43.9603 15.2233 43.9761 15.2131 43.992 15.2032C45.4629 14.2779 47.6841 14.1308 49.394 14.7614C48.9455 18.1543 47.6281 20.3003 45.4589 21.1652Z" fill="#E9EFFF"/>
<path d="M49.5565 20.8139C48.3085 21.7196 46.6009 21.7985 45.2704 21.0649C47.9968 20.0469 48.9291 17.1138 49.2435 14.707C49.6236 14.835 49.9813 14.9998 50.3028 15.202C50.3187 15.212 50.3345 15.2221 50.3504 15.2323C50.9006 15.585 51.5595 15.9332 52.2974 16.238C52.037 18.4494 50.7065 19.9793 49.5565 20.8139Z" fill="#D3DCFB"/>
<path d="M9.54938 8.98532C9.64134 9.09549 9.83987 9.37266 9.81235 9.68327C9.79411 9.88985 9.6837 10.0687 9.48426 10.2148C9.06682 10.5205 6.45719 14.9497 4.80305 17.8553C4.75379 17.9565 4.17565 19.0908 2.91098 19.4326C2.0385 19.6687 1.06251 19.4658 0.00905323 18.8325C0.00336838 18.7679 0.000421524 18.7031 0.000219345 18.6383C0.000219345 17.9223 0.332271 17.2776 0.862848 16.826C1.5154 16.2706 1.6676 15.4735 1.43386 14.8221C0.563753 12.3972 2.51347 11.5177 3.76727 8.48008C4.85753 5.83864 7.94202 6.00564 8.93998 6.13465C9.05758 6.14956 9.17625 6.15593 9.29491 6.1537C9.37996 6.15508 9.46478 6.15084 9.54949 6.14365V8.98532H9.54938Z" fill="#4B4B51"/>
<path d="M4.65136 17.7854C4.65136 17.7854 8.78274 10.5275 9.38036 10.0899C9.97798 9.65216 9.38036 9.04236 9.38036 9.04236V6.15222C9.47073 6.1515 9.56097 6.14563 9.65057 6.13465C10.6484 6.00564 13.733 5.83864 14.8233 8.48008C16.0772 11.5177 18.0268 12.3972 17.1567 14.8221C16.9229 15.4736 17.0752 16.2706 17.7277 16.826C18.2583 17.2776 18.5903 17.9223 18.5903 18.6383C18.5903 19.1063 18.4484 19.5438 18.202 19.9168C17.8929 20.3846 17.7504 20.9312 17.8156 21.4748C17.8998 22.1767 17.7652 22.9697 17.1331 23.7277H9.29588L1.46359 23.6826C0.831537 22.9247 0.69179 22.1768 0.776047 21.4749C0.84128 20.9313 0.698698 20.3847 0.389639 19.9169C0.135313 19.5328 0.000814438 19.09 0.00130081 18.6384C3.27367 20.6838 4.65136 17.7854 4.65136 17.7854Z" fill="#424248"/>
<path d="M10.5081 27.6729L10.5278 27.7117L10.5239 27.7544C10.5224 27.7701 10.5189 27.807 10.5133 27.8619C10.1102 27.8991 9.70428 27.92 9.29623 27.92C7.84799 27.92 6.42273 27.6823 5.08049 27.2307L4.11661 22.4488C4.36723 22.31 4.61458 22.1662 4.85852 22.0173C5.5729 21.5802 6.07448 20.894 6.23768 20.1107L6.24017 20.0986C6.46311 20.3114 6.70105 20.51 6.9524 20.6931C7.6666 21.2105 8.55387 21.4746 9.45671 21.4387C9.45512 22.7168 9.55739 25.799 10.5081 27.6729Z" fill="#C2856B"/>
<path d="M10.354 27.7407C9.38494 25.8307 9.28268 22.7319 9.2854 21.4416L9.29559 21.4418C10.1441 21.4423 10.9687 21.1789 11.6393 20.6931C11.8907 20.51 12.1286 20.3114 12.3515 20.0986L12.354 20.1107C12.5172 20.894 13.0188 21.5802 13.7332 22.0173L13.7333 22.0175C13.9772 22.1662 14.2246 22.3101 14.4751 22.4489L13.5112 27.2308C12.4889 27.5748 11.4228 27.7924 10.3401 27.8782C10.3496 27.7894 10.354 27.7407 10.354 27.7407Z" fill="#B17860"/>
<path d="M10.5249 27.7563C10.5002 28.0234 9.89884 34.3161 7.9917 35.7041C7.73326 35.8922 7.45931 35.9869 7.17483 35.9869L7.16226 35.9868C7.1438 36.2065 7.09306 36.6184 6.95682 37.1032L5.03892 27.021C6.39314 27.528 7.83851 27.7887 9.29737 27.789C9.71017 27.789 10.1207 27.7673 10.5278 27.7261L10.5249 27.7563Z" fill="#95D7E5"/>
<path d="M9.29381 46.7282H8.78463L6.87659 36.6976C6.98893 36.1794 6.99935 35.8131 6.99935 35.8131C9.57082 36.2043 10.3522 27.7408 10.3522 27.7408C11.4505 27.6453 12.5283 27.4022 13.5522 27.019L12.3287 34.4727C11.9082 34.9126 11.6048 35.439 11.4432 36.0092C10.8126 38.2395 9.8963 42.0384 9.38746 46.7281H9.29381V46.7282Z" fill="#59A0A5"/>
<path d="M5.45612 39.4806C4.69474 40.0723 3.72328 40.3339 2.56382 40.2639C1.23755 37.2374 0.50629 33.9243 0.50629 30.4513C0.50629 28.1099 0.840379 25.8417 1.46303 23.6841C2.43329 23.3151 3.37054 22.8744 4.26586 22.3662L7.11377 36.3705C6.99316 37.1507 6.61841 38.5775 5.45612 39.4806Z" fill="#95D7E5"/>
<path d="M7.00217 35.8131L9.33332 47.2762C9.26716 47.9373 9.21109 48.5992 9.16514 49.2617C6.28915 46.7125 3.99798 43.5935 2.49628 40.0989C6.87443 40.4208 7.00217 35.8131 7.00217 35.8131ZM22.0602 29.6219L20.3144 30.744C20.0893 30.8894 19.9042 31.0825 19.7742 31.3076C18.3454 31.9133 16.1576 32.7732 13.9906 33.3602C13.1102 33.5991 12.3434 34.1116 11.8169 34.8129L14.3261 22.3643C15.2932 22.9126 16.3077 23.385 17.3621 23.7702C18.0885 24.0356 18.8822 24.2993 19.6717 24.5129C20.1562 24.6441 20.5961 24.8904 20.9485 25.2277C21.3008 25.5651 21.5536 25.982 21.6823 26.4378C21.9075 27.2344 22.1829 28.307 22.4487 29.5956C22.3289 29.542 22.182 29.5437 22.0602 29.6219Z" fill="#95D7E5"/>
<path d="M10.2221 3.21392C10.2276 3.57554 10.0309 3.91621 9.637 4.22852C9.69951 4.29763 9.76622 4.39023 9.80744 4.50019H4.86112C5.81752 3.11296 7.48366 2.1936 9.38083 2.1936C9.47415 2.1936 9.56633 2.19763 9.65852 2.20196C9.87675 2.38939 10.2149 2.75324 10.2221 3.21392Z" fill="#D3DCFB"/>
<path d="M9.38019 2.1936C11.2773 2.1936 12.9435 3.11296 13.8999 4.50019H9.62425C9.53897 4.32684 9.38019 4.21529 9.38019 4.21529C10.8908 3.17413 9.38019 2.1936 9.38019 2.1936Z" fill="#BEC8F7"/>
<path d="M14.5654 15.4811C14.5654 15.4811 14.8945 13.5345 14.5155 12.3752C14.8594 12.1609 15.524 12.0563 15.8229 12.3294C16.4349 12.8885 15.9865 13.7327 15.772 14.266C15.7073 14.4254 15.6644 14.5918 15.6443 14.7613C15.6026 15.1218 15.3934 15.6494 14.5261 15.637C14.5391 15.585 14.5526 15.5339 14.5654 15.4811Z" fill="#B17860"/>
<path d="M2.68618 12.3291C2.98504 12.0561 3.6496 12.1606 3.99365 12.3749C3.61449 13.5342 3.94371 15.4809 3.94371 15.4809C3.95651 15.5337 3.96998 15.5848 3.98301 15.6368C3.11574 15.6491 2.90656 15.1216 2.86477 14.761C2.84552 14.5951 2.80305 14.4294 2.73714 14.2657C2.52264 13.7324 2.07428 12.8882 2.68618 12.3291Z" fill="#C2856B"/>
<path d="M4.27939 11.7722C4.4043 11.6406 4.47304 11.4867 4.47814 11.3276C4.4975 10.7214 4.66126 9.23773 5.76161 8.55311C6.54201 8.06745 7.63919 8.07253 9.02265 8.56825C9.17165 8.6218 9.33662 8.6218 9.48562 8.56825C9.57429 8.5365 9.66172 8.50687 9.74813 8.47914C10.8545 9.20292 11.0234 10.648 11.0438 11.2488C11.0494 11.4115 11.1242 11.5686 11.2606 11.7029C12.0113 12.4438 11.8469 14.6086 11.6717 15.4998C11.2838 16.9993 10.7219 18.3068 10.0018 19.3861C9.44802 20.2162 8.67712 20.9053 7.7436 21.4157C6.77961 20.9056 5.9889 20.1824 5.43442 19.2956C4.77372 18.2391 4.25809 16.9586 3.90136 15.4875C3.747 14.5701 3.58256 12.506 4.27939 11.7722Z" fill="#E19E79"/>
<path d="M9.94994 19.2949C10.655 18.2381 11.2052 16.9577 11.5851 15.4894C11.7565 14.6168 11.9176 12.4971 11.1824 11.7715C11.049 11.64 10.9756 11.4862 10.9702 11.3269C10.9496 10.7207 10.7747 9.23706 9.60079 8.55233C9.59161 8.54693 9.58165 8.54249 9.57236 8.5372C10.9135 8.07323 11.9807 8.07736 12.7442 8.55233C13.8445 9.23695 14.0083 10.7207 14.0276 11.3269C14.0327 11.4862 14.1015 11.64 14.2265 11.7715C14.9155 12.4971 14.7646 14.6168 14.6038 15.4894C14.2479 16.9577 13.7322 18.2381 13.0713 19.2949C12.4006 20.3678 11.3846 21.2022 10.1334 21.7081C9.85495 21.8202 9.55494 21.878 9.25175 21.878C8.94856 21.878 8.64856 21.8202 8.3701 21.7081C8.11128 21.6032 7.85998 21.4829 7.61777 21.3477C8.58663 20.8421 9.3838 20.1435 9.94994 19.2949Z" fill="#C2856B"/>
<path d="M9.21277 4.01323C9.31028 4.12096 9.41866 4.28521 9.42319 4.48492C9.42772 4.68811 9.32795 4.87829 9.12648 5.05101V8.77055C9.21844 8.88072 9.41697 9.15789 9.38945 9.4685C9.37597 9.62079 9.31209 9.75784 9.19975 9.87796C7.45945 9.84444 5.73242 10.1677 4.14018 10.8249C3.85886 10.941 3.52432 10.9202 3.29929 10.7884C3.1724 10.7143 3.06365 10.616 2.98015 10.5C2.89665 10.3839 2.84027 10.2527 2.81469 10.1149L2.02658 5.87861C1.84414 4.89766 2.65207 4 3.71753 4H9.2284C9.22274 4.00434 9.21821 4.00878 9.21277 4.01323Z" fill="#E9EFFF"/>
<path d="M9.38154 9.0439V5.19482C10.0495 4.68429 9.38154 4.21631 9.38154 4.21631H14.6206C15.6861 4.21631 16.4941 5.11397 16.3116 6.09492L15.5235 10.3312C15.4979 10.469 15.4415 10.6002 15.358 10.7162C15.2745 10.8323 15.1657 10.9306 15.0389 11.0047C14.8141 11.1364 14.4795 11.1576 14.198 11.0412C12.6807 10.4148 11.0403 10.0913 9.38154 10.0914C9.97905 9.65359 9.38154 9.0439 9.38154 9.0439Z" fill="#D3DCFB"/>
<path d="M9.38135 5.19409C9.0066 5.19414 8.69981 5.48062 8.69971 5.83081V6.48218H8.00146C7.62671 6.48219 7.31982 6.76856 7.31982 7.1189C7.32001 7.46898 7.62683 7.7555 8.00146 7.75562H8.69971V8.40601C8.69959 8.75628 9.00653 9.04267 9.38135 9.04272C9.75621 9.04272 10.063 8.75631 10.063 8.40601V7.75562H10.7573C11.1321 7.75562 11.4388 7.46905 11.439 7.1189C11.439 6.7686 11.1322 6.48218 10.7573 6.48218H10.063V5.83081C10.0629 5.48059 9.75614 5.19409 9.38135 5.19409Z" fill="#CC4C4E"/>
<path d="M46.3363 28.5181C47.3041 27.7859 48.1735 26.9469 48.9257 26.0196C49.1813 26.004 49.664 26.0215 50.0428 26.3133C50.3397 26.5419 50.5071 26.887 50.5435 27.3396C49.7058 28.3502 48.7457 29.2666 47.6823 30.0706L47.3857 30.3004C47.3009 30.3662 47.1928 30.3997 47.0828 30.3944C46.9728 30.389 46.8689 30.3452 46.7919 30.2716L45.5669 29.101L46.3363 28.5181Z" fill="#28747C"/>
<path d="M48.7826 26.1939C50.3073 24.3732 50.9934 22.6531 51.2491 21.87C51.298 21.7202 51.4898 21.6601 51.627 21.7499C51.8244 21.8791 51.9271 21.9173 51.9271 21.9173C51.9271 21.9173 52.3741 22.13 53.0782 22.4275C53.1335 22.4508 53.1777 22.4923 53.2022 22.5442C53.2267 22.5961 53.2298 22.6546 53.2109 22.7085C52.8444 23.758 52.0297 25.6039 50.3832 27.5314C50.3831 25.9031 48.7826 26.1939 48.7826 26.1939Z" fill="#28747C"/>
<path d="M27.1752 34.938C27.5838 34.938 27.9465 34.772 28.3104 34.772C28.6435 34.772 28.9773 34.938 29.3482 34.938L30.1206 37.1524C29.8411 37.5647 29.554 37.9725 29.2593 38.3755C28.8795 38.8955 28.5675 39.456 28.33 40.0451C28.0925 39.456 27.7805 38.8955 27.4008 38.3755C27.0634 37.9139 26.7358 37.4461 26.4182 36.9724L27.1752 34.938Z" fill="#28747C"/>
<path d="M25.1101 34.8878C24.1769 33.295 23.2519 31.4517 22.5756 29.5049C22.5549 29.4448 22.518 29.3907 22.4684 29.3478C22.4188 29.3049 22.3582 29.2746 22.2925 29.26L22.4951 29.0254C22.7704 28.7069 23.2825 28.6867 23.5854 28.9826L26.5815 31.9098C26.6914 32.0172 26.767 32.1512 26.7998 32.2967C26.8326 32.4422 26.8212 32.5933 26.767 32.733C26.5476 33.3017 26.0617 34.2432 25.1101 34.8878ZM34.0856 29.5049C33.3969 31.4877 32.45 33.3627 31.4994 34.9756C30.4581 34.3315 29.9374 33.3279 29.7076 32.733C29.6534 32.5933 29.642 32.4422 29.6748 32.2967C29.7076 32.1512 29.7832 32.0172 29.8931 31.9098L32.8892 28.9826C33.1921 28.6867 33.7043 28.7068 33.9795 29.0254L34.2397 29.3134C34.1668 29.3593 34.1126 29.4267 34.0856 29.5049Z" fill="#95D7E5"/>
<path d="M19.5351 16.8204C19.8995 16.5083 20.6254 16.6665 20.9392 16.8577C20.8705 17.2578 20.8665 17.6672 20.926 18.0714L21.2964 20.5923C21.2964 20.7955 21.3032 20.9949 21.3159 21.1908C20.4127 21.4453 19.9642 20.6877 19.8885 20.1677C19.856 19.9439 19.8028 19.7232 19.7291 19.508C19.4886 18.8066 18.622 17.6023 19.5351 16.8204Z" fill="#C2856B"/>
<path d="M36.989 16.8204C36.6246 16.5083 35.8986 16.6665 35.5848 16.8577C35.6533 17.2594 35.6578 17.6684 35.5981 18.0714L35.2277 20.5923C35.2277 20.7955 35.2208 20.9949 35.2083 21.1908C36.1114 21.4453 36.56 20.6877 36.6357 20.1677C36.6681 19.9439 36.7215 19.7231 36.7951 19.508C37.0353 18.8066 37.902 17.6023 36.989 16.8204Z" fill="#B17860"/>
<path d="M28.7913 41.9677C30.709 39.9528 33.1159 39.0983 34.0867 38.8192C34.2104 38.7841 34.3143 38.705 34.3761 38.5989C34.4379 38.4928 34.4525 38.3682 34.4169 38.2521L34.0783 37.1206C34.0135 36.9041 34.0597 36.6772 34.2051 36.4981C34.3505 36.3191 34.5719 36.2163 34.8125 36.2163H35.1575C36.2568 36.362 39.6714 37.111 39.6714 40.7833V54.0865C36.3141 55.5051 32.6008 56.3176 28.6909 56.3744V41.2576C28.7358 41.4927 28.7693 41.7297 28.7913 41.9677Z" fill="#BEEDF7"/>
<path d="M39.5024 40.7835C39.5024 36.5307 34.8135 36.341 34.8135 36.341C34.8015 36.2982 34.7878 36.2593 34.7749 36.2185C34.7878 36.2179 34.8004 36.2164 34.8135 36.2164H36.8769C37.0182 36.2164 37.1485 36.1627 37.2436 36.065C37.3387 35.9673 37.3838 35.841 37.3706 35.7095L36.9582 31.6248C36.9356 31.4005 36.8597 31.1876 36.7397 30.9993C38.169 31.6045 40.3482 32.4597 42.5052 33.0441C43.8624 33.4119 44.9155 34.4164 45.2764 35.6932C46.0221 38.3306 47.1675 43.1615 47.5659 49.0654C45.2194 51.1926 42.4897 52.9162 39.5023 54.1569L39.5024 40.7835Z" fill="#A2DFED"/>
<path d="M35.4333 46.2491C33.5747 45.5304 32.6916 43.5399 33.4606 41.8031C34.2297 40.0663 36.3598 39.241 38.2183 39.9597C40.0769 40.6784 40.96 42.6689 40.191 44.4057C39.4219 46.1425 37.2918 46.9678 35.4333 46.2491Z" fill="#E9EFFF"/>
<path d="M29.2489 38.2452C29.9245 37.3214 30.7588 36.0982 31.5819 34.6808L31.5833 34.6955C31.9881 34.5412 32.8597 34.2922 33.6589 34.6185C34.2689 34.8677 34.7023 35.3966 34.9482 36.191C35.1152 36.2066 35.4371 36.2461 35.8374 36.34H34.8159C34.3993 36.34 34.0978 36.7113 34.21 37.0862L34.5486 38.2176C34.5929 38.365 34.5739 38.5227 34.4955 38.6572C34.4172 38.7917 34.2858 38.8922 34.1292 38.9374C33.0227 39.2554 30.5783 40.157 28.6836 42.2783C28.6461 41.5438 28.4979 40.818 28.2432 40.1223C28.4865 39.4571 28.8248 38.8257 29.2489 38.2452Z" fill="#D3F4FB"/>
<path d="M31.4328 34.934V34.9335C32.3791 33.3327 33.3238 31.4674 34.0093 29.4936C34.0898 29.2617 34.3862 29.1674 34.6013 29.3056L36.3469 30.4276C36.5563 30.5622 36.7316 30.7381 36.8604 30.943C36.9892 31.1478 37.0683 31.3765 37.0922 31.613L37.5045 35.6977C37.5128 35.7792 37.5027 35.8614 37.475 35.939C37.4472 36.0167 37.4024 36.0881 37.3435 36.1486C37.2845 36.2092 37.2127 36.2575 37.1325 36.2906C37.0524 36.3237 36.9658 36.3408 36.8782 36.3408H34.8146C34.0546 33.6251 31.4328 34.934 31.4328 34.934Z" fill="#BEEDF7"/>
<path d="M16.3787 43.0375C16.3787 42.6482 16.1029 42.4153 15.8449 42.3269C15.5921 42.2406 15.2287 42.2515 14.9659 42.5419C14.1425 43.4517 13.7251 44.559 13.7251 45.8332V52.5418C11.9959 51.5465 10.3882 50.3776 8.93084 49.0559C9.32982 43.1563 10.4744 38.3294 11.2197 35.6933C11.5807 34.4168 12.6338 33.4122 13.9909 33.0445C16.2699 32.427 18.5739 31.5073 19.9917 30.8994C19.8308 31.1111 19.7289 31.3598 19.7021 31.6252L19.2897 35.7099C19.2765 35.8414 19.3216 35.9677 19.4167 36.0653C19.5118 36.163 19.6421 36.2168 19.7834 36.2168H21.8469C22.0875 36.2168 22.3089 36.3195 22.4543 36.4986C22.5997 36.6777 22.6459 36.9046 22.5811 37.1211L22.2425 38.2526C22.2068 38.3687 22.2214 38.4932 22.2832 38.5994C22.3449 38.7055 22.4489 38.7846 22.5726 38.8197C23.7936 39.1705 26.7624 40.2668 28.7373 43.0152H28.8706V56.3727C28.6656 56.377 28.4604 56.38 28.2543 56.38C24.0045 56.38 19.9786 55.4862 16.3786 53.8899V43.0375H16.3787Z" fill="#DFF9FF"/>
<path d="M27.4138 38.2457C26.0027 36.316 23.8987 33.0829 22.652 29.4936C22.5715 29.2617 22.2751 29.1674 22.0601 29.3056L20.3144 30.4276C20.105 30.5622 19.9297 30.7381 19.8009 30.943C19.6722 31.1478 19.5931 31.3765 19.5692 31.613L19.1569 35.6977C19.1487 35.7792 19.1587 35.8614 19.1865 35.939C19.2142 36.0167 19.259 36.0881 19.318 36.1486C19.3769 36.2092 19.4488 36.2575 19.5289 36.2906C19.609 36.3237 19.6957 36.3408 19.7833 36.3408H21.8468C22.2634 36.3408 22.5648 36.7122 22.4527 37.087L22.1141 38.2185C22.0698 38.3658 22.0888 38.5236 22.1671 38.658C22.2455 38.7925 22.3769 38.893 22.5335 38.9382C23.8241 39.3092 26.9352 40.4721 28.8706 43.4403V42.6524C28.8709 41.0799 28.3631 39.544 27.4138 38.2457Z" fill="#E9FBFF"/>
<path d="M21.0712 16.0798C21.1545 15.8766 21.2596 15.6707 21.392 15.4766C21.6162 15.1478 21.715 14.7588 21.6849 14.3711C21.5985 13.2557 21.6448 11.0742 23.2116 10.4154C24.5427 9.85569 26.1756 10.1797 27.2169 10.5034C27.7361 10.6641 28.2899 10.702 28.8286 10.6135C29.8075 11.5417 29.8271 13.2935 29.7515 14.2563C29.7197 14.6509 29.8252 15.0446 30.0523 15.3787C30.1836 15.5713 30.2887 15.7751 30.3728 15.9769C30.6453 16.6313 30.7248 17.3412 30.6227 18.0362L30.2433 20.6183C30.2433 24.3304 28.1228 26.8535 26.3192 28.1624C26.1743 28.2675 26.0224 28.3622 25.8677 28.452C25.5749 28.3128 25.2969 28.1482 25.0373 27.9602C23.2759 26.6821 21.2052 24.2182 21.2052 20.5933L20.8348 18.0724C20.7362 17.4004 20.811 16.714 21.0712 16.0798Z" fill="#E19E79"/>
<path d="M26.3067 27.9602C28.0681 26.6821 30.1387 24.2182 30.1387 20.5933L30.5092 18.0719C30.609 17.3932 30.5313 16.7 30.265 16.0609C30.1829 15.8638 30.0803 15.6648 29.952 15.4767C29.7304 15.1504 29.6274 14.766 29.6583 14.3806C29.7373 13.3761 29.7102 11.4914 28.5472 10.6488C28.8051 10.6282 29.0595 10.5794 29.3051 10.5034C30.3465 10.1797 31.9793 9.85569 33.3104 10.4154C34.8818 11.0761 34.9239 13.2682 34.8365 14.3806C34.8055 14.766 34.9085 15.1504 35.1301 15.4767C35.2583 15.6648 35.361 15.8638 35.4431 16.0609C35.7093 16.7 35.7869 17.3932 35.6872 18.0719L35.3168 20.5933C35.3168 24.2182 33.2461 26.6821 31.4847 27.9602C30.5627 28.6282 29.429 28.9904 28.2623 28.9897C27.3549 28.9897 26.463 28.7703 25.6732 28.3529C25.8944 28.2367 26.1061 28.1054 26.3067 27.9602Z" fill="#C2856B"/>
<path d="M36.8423 41.1807C36.4675 41.1807 36.1607 41.4672 36.1606 41.8174V42.4688H35.4624C35.0876 42.4688 34.7808 42.7552 34.7808 43.1055C34.7809 43.4556 35.0877 43.7421 35.4624 43.7422H36.1606V44.3926C36.1605 44.7428 36.4675 45.0292 36.8423 45.0293C37.2171 45.0293 37.5239 44.7429 37.5239 44.3926V43.7422H38.2183C38.593 43.7422 38.8997 43.4556 38.8999 43.1055C38.8999 42.7552 38.5931 42.4688 38.2183 42.4688H37.5239V41.8174C37.5238 41.4672 37.2171 41.1807 36.8423 41.1807Z" fill="#CC4C4E"/>
<path d="M13.554 45.832C13.554 44.2794 14.1651 43.1785 14.835 42.4382C15.4179 41.7942 16.5474 42.1928 16.5474 43.0363V53.9629C15.5172 53.5144 14.5175 53.0071 13.5539 52.4438L13.554 45.832Z" fill="#BEEDF7"/>
</svg>
