<svg width="1440" height="10" viewBox="0 0 1440 10" fill="none" xmlns="http://www.w3.org/2000/svg">
<path d="M0 8.5V0.5H1440V8.5L1423.57 4.84979C1419.57 3.96077 1415.43 3.96077 1411.43 4.84979L1401.07 7.15021C1397.07 8.03923 1392.93 8.03923 1388.93 7.15021L1378.57 4.84979C1374.57 3.96077 1370.43 3.96077 1366.43 4.84979L1356.07 7.15021C1352.07 8.03923 1347.93 8.03923 1343.93 7.15021L1333.57 4.84979C1329.57 3.96077 1325.43 3.96077 1321.43 4.84979L1311.07 7.15021C1307.07 8.03923 1302.93 8.03923 1298.93 7.15021L1288.57 4.84981C1284.57 3.96079 1280.43 3.96079 1276.43 4.84981L1266.07 7.15023C1262.07 8.03925 1257.93 8.03924 1253.93 7.15023L1243.57 4.84981C1239.57 3.96079 1235.43 3.96079 1231.43 4.84981L1221.07 7.15023C1217.07 8.03925 1212.93 8.03924 1208.93 7.15023L1198.57 4.84981C1194.57 3.96079 1190.43 3.96079 1186.43 4.84981L1176.07 7.15023C1172.07 8.03925 1167.93 8.03924 1163.93 7.15023L1153.57 4.84981C1149.57 3.96079 1145.43 3.96079 1141.43 4.84981L1131.07 7.15023C1127.07 8.03925 1122.93 8.03924 1118.93 7.15023L1108.57 4.84981C1104.57 3.96079 1100.43 3.96079 1096.43 4.84981L1086.07 7.15023C1082.07 8.03925 1077.93 8.03924 1073.93 7.15023L1063.57 4.84981C1059.57 3.96079 1055.43 3.96079 1051.43 4.84981L1041.07 7.15023C1037.07 8.03925 1032.93 8.03924 1028.93 7.15023L1018.57 4.84981C1014.57 3.96079 1010.43 3.96079 1006.43 4.84981L996.074 7.15023C993.316 7.76321 990.488 7.95354 987.686 7.72121C984.493 7.18698 979.095 5.98462 974.837 4.99925C970.661 4.03284 966.324 3.9836 962.139 4.9135L952.074 7.15023C948.073 8.03925 943.927 8.03924 939.926 7.15023L929.574 4.84981C925.573 3.96079 921.427 3.96079 917.426 4.84981L907.074 7.15023C903.073 8.03925 898.927 8.03924 894.926 7.15023L884.574 4.84981C880.573 3.96079 876.427 3.96079 872.426 4.84981L862.074 7.15023C858.073 8.03925 853.927 8.03924 849.926 7.15023L839.574 4.84981C835.573 3.96079 831.427 3.96079 827.426 4.84981L817.074 7.15023C813.073 8.03925 808.927 8.03924 804.926 7.15023L794.574 4.84981C790.573 3.96079 786.427 3.96079 782.426 4.84981L772.074 7.15023C768.073 8.03925 763.927 8.03924 759.926 7.15023L749.574 4.84981C745.573 3.96079 741.427 3.96079 737.426 4.84981L727.074 7.15023C723.073 8.03925 718.927 8.03924 714.926 7.15023L704.574 4.84981C700.573 3.96079 696.427 3.96079 692.426 4.84981L682.074 7.15023C678.073 8.03925 673.927 8.03924 669.926 7.15023L665.537 6.17485L659.574 4.84981C657.246 4.33256 654.869 4.11626 652.5 4.2009C650.131 4.11621 647.754 4.33251 645.426 4.84979L635.074 7.15021C631.073 8.03923 626.927 8.03923 622.926 7.15021L612.574 4.84979C608.573 3.96077 604.427 3.96077 600.426 4.84979L590.074 7.15021C586.073 8.03923 581.927 8.03923 577.926 7.15021L567.574 4.84979C563.573 3.96077 559.427 3.96077 555.426 4.84979L545.074 7.15021C541.073 8.03923 536.927 8.03923 532.926 7.15021L522.574 4.84979C518.573 3.96077 514.427 3.96077 510.426 4.84979L500.074 7.15021C496.073 8.03923 491.927 8.03923 487.926 7.15021L477.574 4.84979C473.573 3.96077 469.427 3.96077 465.426 4.84979L455.074 7.15021C451.073 8.03923 446.927 8.03923 442.926 7.15021L432.574 4.84979C428.573 3.96077 424.427 3.96077 420.426 4.84979L410.074 7.15021C406.073 8.03923 401.927 8.03923 397.926 7.15021L387.574 4.84979C383.573 3.96077 379.427 3.96077 375.426 4.84979L365.074 7.15021C361.073 8.03923 356.927 8.03923 352.926 7.15021L342.861 4.91348C338.676 3.98358 334.339 4.03282 330.163 4.99923C325.905 5.98461 320.507 7.18696 317.314 7.72119C314.512 7.95352 311.684 7.76319 308.926 7.15021L298.574 4.84979C294.573 3.96077 290.427 3.96077 286.426 4.84979L276.074 7.15021C272.073 8.03923 267.927 8.03923 263.926 7.15021L253.574 4.84979C249.573 3.96077 245.427 3.96077 241.426 4.84979L231.074 7.15021C227.073 8.03923 222.927 8.03923 218.926 7.15021L208.574 4.84979C204.573 3.96077 200.427 3.96077 196.426 4.84979L186.074 7.15021C182.073 8.03923 177.927 8.03923 173.926 7.15021L163.574 4.84979C159.573 3.96077 155.427 3.96077 151.426 4.84979L141.074 7.15021C137.073 8.03923 132.927 8.03923 128.926 7.15021L118.574 4.84979C114.573 3.96077 110.427 3.96077 106.426 4.84979L96.0741 7.15021C92.0735 8.03923 87.9265 8.03923 83.926 7.15021L73.5741 4.84979C69.5735 3.96077 65.4265 3.96077 61.426 4.84979L51.0741 7.15021C47.0735 8.03923 42.9265 8.03923 38.926 7.15021L28.5741 4.84979C24.5735 3.96077 20.4265 3.96077 16.426 4.84979L0 8.5Z" fill="#F5F8FC"/>
<path d="M945 8.00002C949.622 8.24328 955.072 7.18469 959.451 6.03343C964.777 4.63302 970.367 4.13723 975.744 5.33193L983.926 7.15023C985.168 7.42626 986.424 7.61659 987.686 7.72121M987.686 7.72121C990.488 7.95354 993.316 7.76321 996.074 7.15023L1006.43 4.84981C1010.43 3.96079 1014.57 3.96079 1018.57 4.84981L1028.93 7.15023C1032.93 8.03924 1037.07 8.03925 1041.07 7.15023L1051.43 4.84981C1055.43 3.96079 1059.57 3.96079 1063.57 4.84981L1073.93 7.15023C1077.93 8.03924 1082.07 8.03925 1086.07 7.15023L1096.43 4.84981C1100.43 3.96079 1104.57 3.96079 1108.57 4.84981L1118.93 7.15023C1122.93 8.03924 1127.07 8.03925 1131.07 7.15023L1141.43 4.84981C1145.43 3.96079 1149.57 3.96079 1153.57 4.84981L1163.93 7.15023C1167.93 8.03924 1172.07 8.03925 1176.07 7.15023L1186.43 4.84981C1190.43 3.96079 1194.57 3.96079 1198.57 4.84981L1208.93 7.15023C1212.93 8.03924 1217.07 8.03925 1221.07 7.15023L1231.43 4.84981C1235.43 3.96079 1239.57 3.96079 1243.57 4.84981L1253.93 7.15023C1257.93 8.03924 1262.07 8.03925 1266.07 7.15023L1276.43 4.84981C1280.43 3.96079 1284.57 3.96079 1288.57 4.84981L1298.93 7.15021C1302.93 8.03923 1307.07 8.03923 1311.07 7.15021L1321.43 4.84979C1325.43 3.96077 1329.57 3.96077 1333.57 4.84979L1343.93 7.15021C1347.93 8.03923 1352.07 8.03923 1356.07 7.15021L1366.43 4.84979C1370.43 3.96077 1374.57 3.96077 1378.57 4.84979L1388.93 7.15021C1392.93 8.03923 1397.07 8.03923 1401.07 7.15021L1411.43 4.84979C1415.43 3.96077 1419.57 3.96077 1423.57 4.84979L1440 8.5V0.5H0V8.5L16.426 4.84979C20.4265 3.96077 24.5735 3.96077 28.5741 4.84979L38.926 7.15021C42.9265 8.03923 47.0735 8.03923 51.0741 7.15021L61.426 4.84979C65.4265 3.96077 69.5735 3.96077 73.5741 4.84979L83.926 7.15021C87.9265 8.03923 92.0735 8.03923 96.0741 7.15021L106.426 4.84979C110.427 3.96077 114.573 3.96077 118.574 4.84979L128.926 7.15021C132.927 8.03923 137.073 8.03923 141.074 7.15021L151.426 4.84979C155.427 3.96077 159.573 3.96077 163.574 4.84979L173.926 7.15021C177.927 8.03923 182.073 8.03923 186.074 7.15021L196.426 4.84979C200.427 3.96077 204.573 3.96077 208.574 4.84979L218.926 7.15021C222.927 8.03923 227.073 8.03923 231.074 7.15021L241.426 4.84979C245.427 3.96077 249.573 3.96077 253.574 4.84979L263.926 7.15021C267.927 8.03923 272.073 8.03923 276.074 7.15021L286.426 4.84979C290.427 3.96077 294.573 3.96077 298.574 4.84979L308.926 7.15021C311.684 7.76319 314.512 7.95352 317.314 7.72119C320.507 7.18696 325.905 5.98461 330.163 4.99923C334.339 4.03282 338.676 3.98358 342.861 4.91348L352.926 7.15021C356.927 8.03923 361.073 8.03923 365.074 7.15021L375.426 4.84979C379.427 3.96077 383.573 3.96077 387.574 4.84979L397.926 7.15021C401.927 8.03923 406.073 8.03923 410.074 7.15021L420.426 4.84979C424.427 3.96077 428.573 3.96077 432.574 4.84979L442.926 7.15021C446.927 8.03923 451.073 8.03923 455.074 7.15021L465.426 4.84979C469.427 3.96077 473.573 3.96077 477.574 4.84979L487.926 7.15021C491.927 8.03923 496.073 8.03923 500.074 7.15021L510.426 4.84979C514.427 3.96077 518.573 3.96077 522.574 4.84979L532.926 7.15021C536.927 8.03923 541.073 8.03923 545.074 7.15021L555.426 4.84979C559.427 3.96077 563.573 3.96077 567.574 4.84979L577.926 7.15021C581.927 8.03923 586.073 8.03923 590.074 7.15021L600.426 4.84979C604.427 3.96077 608.573 3.96077 612.574 4.84979L622.926 7.15021C626.927 8.03923 631.073 8.03923 635.074 7.15021L645.426 4.84979C647.754 4.33251 650.131 4.11621 652.5 4.2009C654.869 4.11626 657.246 4.33256 659.574 4.84981L665.537 6.17485L669.926 7.15023C673.927 8.03924 678.073 8.03925 682.074 7.15023L692.426 4.84981C696.427 3.96079 700.573 3.96079 704.574 4.84981L714.926 7.15023C718.927 8.03924 723.073 8.03925 727.074 7.15023L737.426 4.84981C741.427 3.96079 745.573 3.96079 749.574 4.84981L759.926 7.15023C763.927 8.03924 768.073 8.03925 772.074 7.15023L782.426 4.84981C786.427 3.96079 790.573 3.96079 794.574 4.84981L804.926 7.15023C808.927 8.03924 813.073 8.03925 817.074 7.15023L827.426 4.84981C831.427 3.96079 835.573 3.96079 839.574 4.84981L849.926 7.15023C853.927 8.03924 858.073 8.03925 862.074 7.15023L872.426 4.84981C876.427 3.96079 880.573 3.96079 884.574 4.84981L894.926 7.15023C898.927 8.03924 903.073 8.03925 907.074 7.15023L917.426 4.84981C921.427 3.96079 925.573 3.96079 929.574 4.84981L939.926 7.15023C943.927 8.03924 948.073 8.03925 952.074 7.15023L962.139 4.9135C966.324 3.9836 970.661 4.03284 974.837 4.99925C979.095 5.98462 984.493 7.18698 987.686 7.72121ZM987.686 7.72121C988.734 7.89664 989.545 8.00002 990 8.00002" stroke="url(#paint0_linear_250_8487)"/>
<defs>
<linearGradient id="paint0_linear_250_8487" x1="720" y1="14" x2="720" y2="1.5" gradientUnits="userSpaceOnUse">
<stop stop-color="#B8D2FF"/>
<stop offset="1" stop-color="#F2F6FD"/>
</linearGradient>
</defs>
</svg>
