<svg width="16" height="16" viewBox="0 0 16 16" fill="none" xmlns="http://www.w3.org/2000/svg">
<path d="M8.0001 6.69329C9.11203 6.69329 10.0134 5.79189 10.0134 4.67996C10.0134 3.56803 9.11203 2.66663 8.0001 2.66663C6.88817 2.66663 5.98677 3.56803 5.98677 4.67996C5.98677 5.79189 6.88817 6.69329 8.0001 6.69329Z" stroke="#30363C" stroke-width="1.2" stroke-linecap="round" stroke-linejoin="round"/>
<path d="M4.08009 13.3333H11.9201C12.1039 13.3351 12.2863 13.3006 12.4569 13.2318C12.6274 13.1631 12.7827 13.0615 12.914 12.9327C13.0452 12.8039 13.1498 12.6506 13.2218 12.4814C13.2937 12.3122 13.3317 12.1305 13.3334 11.9466V11.0466C13.3334 10.5066 12.6668 9.99996 11.7801 9.57996C10.593 8.99833 9.28866 8.69594 7.96676 8.69594C6.64487 8.69594 5.34049 8.99833 4.15343 9.57996C3.31343 9.99996 2.66676 10.4933 2.66676 11.0266V11.9266C2.66587 12.1122 2.70187 12.296 2.77266 12.4675C2.84345 12.639 2.94763 12.7948 3.07914 12.9256C3.21064 13.0565 3.36686 13.16 3.53869 13.23C3.71053 13.2999 3.89456 13.3351 4.08009 13.3333Z" stroke="#30363C" stroke-width="1.2" stroke-linecap="round" stroke-linejoin="round"/>
</svg>
