<svg width="70" height="48" viewBox="0 0 70 48" fill="none" xmlns="http://www.w3.org/2000/svg">
<rect x="0.5" y="0.5" width="68.75" height="47" rx="11.5" fill="url(#paint0_linear_243_8294)"/>
<rect x="0.5" y="0.5" width="68.75" height="47" rx="11.5" stroke="#E6EBF4"/>
<path fill-rule="evenodd" clip-rule="evenodd" d="M46.783 11.449L46.8145 11.482L47.4505 12.118L47.4835 12.1495C48.0505 12.7165 48.523 13.189 48.8785 13.6075C49.2475 14.0425 49.5535 14.4925 49.7305 15.0325C49.9998 15.8612 49.9998 16.7538 49.7305 17.5825C49.555 18.1225 49.2475 18.5725 48.877 19.0075C48.523 19.426 48.0505 19.8985 47.482 20.4655L47.452 20.497L46.8145 21.133L46.783 21.166C46.216 21.733 45.7435 22.2055 45.325 22.561C44.89 22.93 44.44 23.236 43.9 23.413C43.0713 23.6823 42.1787 23.6823 41.35 23.413C40.81 23.2375 40.36 22.93 39.925 22.5595C39.5065 22.2055 39.034 21.7315 38.467 21.1645L38.4355 21.1345L37.7995 20.497L37.7665 20.4655C37.2833 19.9972 36.818 19.5109 36.3715 19.0075C36.0025 18.5725 35.6965 18.1225 35.5195 17.5825C35.2502 16.7538 35.2502 15.8612 35.5195 15.0325C35.695 14.4925 36.0025 14.0425 36.373 13.6075C36.727 13.189 37.1995 12.7165 37.768 12.1495L37.798 12.118L38.4355 11.482L38.467 11.449C39.034 10.882 39.5065 10.4095 39.925 10.054C40.36 9.68499 40.81 9.37899 41.35 9.20199C42.1787 8.93267 43.0713 8.93267 43.9 9.20199C44.44 9.37749 44.89 9.68499 45.325 10.0555C45.7435 10.4095 46.216 10.882 46.783 11.4505V11.449ZM25.63 9.93249H26.62C27.4225 9.93249 28.09 9.93249 28.6375 9.97749C29.2075 10.0225 29.7415 10.1245 30.247 10.3825C31.0229 10.7772 31.654 11.4073 32.05 12.1825C32.308 12.6895 32.41 13.2235 32.455 13.7935C32.5 14.3395 32.5 15.0085 32.5 15.8095V16.801C32.5 17.6035 32.5 18.271 32.455 18.8185C32.41 19.3885 32.308 19.9225 32.05 20.428C31.6545 21.2043 31.0233 21.8355 30.247 22.231C29.7415 22.489 29.2075 22.591 28.6375 22.636C28.09 22.681 27.4225 22.681 26.62 22.681H25.63C24.8275 22.681 24.16 22.681 23.6125 22.636C23.0425 22.591 22.5085 22.489 22.003 22.231C21.2269 21.8359 20.5958 21.2053 20.2 20.4295C19.942 19.924 19.84 19.39 19.795 18.82C19.75 18.2725 19.75 17.605 19.75 16.8025V15.8125C19.75 15.01 19.75 14.3425 19.795 13.795C19.84 13.225 19.942 12.691 20.2 12.184C20.5958 11.4082 21.2269 10.7776 22.003 10.3825C22.5085 10.1245 23.0425 10.0225 23.6125 9.97749C24.16 9.93249 24.8275 9.93249 25.63 9.93249ZM25.675 26.4325H25.63C24.8275 26.4325 24.16 26.4325 23.6125 26.4775C23.0425 26.5225 22.5085 26.6245 22.003 26.8825C21.2271 27.2772 20.596 27.9073 20.2 28.6825C19.942 29.1895 19.84 29.7235 19.795 30.2935C19.75 30.841 19.75 31.5085 19.75 32.311V33.301C19.75 34.1035 19.75 34.771 19.795 35.3185C19.84 35.8885 19.942 36.4225 20.2 36.928C20.5955 37.7043 21.2267 38.3355 22.003 38.731C22.5085 38.989 23.0425 39.091 23.6125 39.136C24.16 39.181 24.8275 39.181 25.6285 39.181H26.62C27.4225 39.181 28.09 39.181 28.6375 39.136C29.2075 39.091 29.7415 38.989 30.247 38.731C31.0233 38.3355 31.6545 37.7043 32.05 36.928C32.308 36.4225 32.41 35.887 32.455 35.3185C32.5 34.771 32.5 34.1035 32.5 33.301V32.311C32.5 31.5085 32.5 30.841 32.455 30.2935C32.41 29.7235 32.308 29.1895 32.05 28.6825C31.6542 27.9067 31.0231 27.2761 30.247 26.881C29.7415 26.623 29.2075 26.521 28.6375 26.476C28.09 26.431 27.4225 26.431 26.62 26.431H26.575L25.675 26.4325ZM42.13 26.4325H43.12C43.9225 26.4325 44.59 26.4325 45.1375 26.4775C45.7075 26.5225 46.2415 26.6245 46.7485 26.8825C47.524 27.2779 48.1546 27.9084 48.55 28.684C48.808 29.191 48.91 29.725 48.955 30.295C49 30.8425 49 31.51 49 32.3125V33.3025C49 34.105 49 34.7725 48.955 35.32C48.91 35.89 48.808 36.424 48.55 36.9295C48.1545 37.7058 47.5233 38.337 46.747 38.7325C46.2415 38.9905 45.7075 39.0925 45.1375 39.1375C44.5915 39.1825 43.9225 39.1825 43.1215 39.1825H42.13C41.3275 39.1825 40.66 39.1825 40.1125 39.1375C39.5425 39.0925 39.0085 38.9905 38.5015 38.7325C37.7257 38.3367 37.0951 37.7056 36.7 36.9295C36.442 36.424 36.34 35.8885 36.295 35.32C36.25 34.7725 36.25 34.105 36.25 33.3025V32.3125C36.25 31.51 36.25 30.8425 36.295 30.295C36.34 29.725 36.442 29.191 36.7 28.684C37.0954 27.9084 37.726 27.2779 38.5015 26.8825C39.0085 26.6245 39.5425 26.5225 40.1125 26.4775C40.66 26.4325 41.3275 26.4325 42.13 26.4325Z" fill="#45A081"/>
<defs>
<linearGradient id="paint0_linear_243_8294" x1="34.875" y1="48.9" x2="34.875" y2="1.19789e-07" gradientUnits="userSpaceOnUse">
<stop stop-color="#F5F8FC"/>
<stop offset="1" stop-color="#F5F8FC" stop-opacity="0"/>
</linearGradient>
</defs>
</svg>
