<svg width="24" height="24" viewBox="0 0 24 24" fill="none" xmlns="http://www.w3.org/2000/svg">
  <path d="M12 2C6.48 2 2 6.48 2 12C2 13.54 2.38 14.99 3.06 16.27L2 22L7.73 20.94C9.01 21.62 10.46 22 12 22C17.52 22 22 17.52 22 12C22 6.48 17.52 2 12 2Z" fill="#10847E" fill-opacity="0.1"/>
  <path d="M12 2C6.48 2 2 6.48 2 12C2 13.54 2.38 14.99 3.06 16.27L2 22L7.73 20.94C9.01 21.62 10.46 22 12 22C17.52 22 22 17.52 22 12C22 6.48 17.52 2 12 2Z" stroke="#10847E" stroke-width="1.5" stroke-linecap="round" stroke-linejoin="round"/>
  <circle cx="12" cy="16" r="1" fill="#10847E"/>
  <path d="M12 7V13" stroke="#10847E" stroke-width="2" stroke-linecap="round"/>
</svg>

