<svg width="403" height="270" viewBox="0 0 403 270" fill="none" xmlns="http://www.w3.org/2000/svg">
<path d="M206.414 0C260.7 0 304.707 44.0074 304.707 98.293V117.173C304.707 120.768 307.621 123.682 311.216 123.682C361.907 123.682 403 164.775 403 215.466C403 266.157 361.907 307.25 311.216 307.25C307.465 307.25 304.393 310.185 303.922 313.906C297.796 362.305 256.477 399.732 206.414 399.732C156.649 399.732 115.523 362.748 109.02 314.766C108.451 310.567 104.983 307.25 100.746 307.25H91.7842C41.0933 307.25 0.000148438 266.157 0 215.466C0 164.775 41.0932 123.682 91.7842 123.682H100.122C104.54 123.682 108.122 120.1 108.122 115.682V98.293C108.122 44.0075 152.129 0.000177301 206.414 0Z" fill="url(#paint0_linear_246_7249)" fill-opacity="0.6"/>
<defs>
<linearGradient id="paint0_linear_246_7249" x1="13.761" y1="21.4491" x2="293.806" y2="275.255" gradientUnits="userSpaceOnUse">
<stop stop-color="#1FB5DF"/>
<stop offset="1" stop-color="#B9DEEB" stop-opacity="0"/>
</linearGradient>
</defs>
</svg>
