<svg width="56" height="57" viewBox="0 0 56 57" fill="none" xmlns="http://www.w3.org/2000/svg">
<rect width="56" height="56" rx="28" fill="#E5EBFE"/>
<g clip-path="url(#clip0_252_9087)">
<path d="M13.5135 53.5445C18.0773 53.5445 21.7769 49.8619 21.7769 45.3191C21.7769 40.7764 18.0773 37.0938 13.5135 37.0938C8.94968 37.0938 5.25 40.7764 5.25 45.3191C5.25 49.8619 8.94968 53.5445 13.5135 53.5445Z" fill="#EA9A23"/>
<path d="M14.173 52.745C18.5811 52.745 22.1546 49.188 22.1546 44.8003C22.1546 40.4125 18.5811 36.8555 14.173 36.8555C9.76488 36.8555 6.19141 40.4125 6.19141 44.8003C6.19141 49.188 9.76488 52.745 14.173 52.745Z" fill="#FAC03B"/>
<path d="M14.1757 49.0387C16.5271 49.0387 18.4334 47.1412 18.4334 44.8006C18.4334 42.46 16.5271 40.5625 14.1757 40.5625C11.8242 40.5625 9.91797 42.46 9.91797 44.8006C9.91797 47.1412 11.8242 49.0387 14.1757 49.0387Z" fill="#EA9A23"/>
<path d="M14.9555 47.1335C14.8905 47.0868 14.8233 47.0424 14.7612 46.9923C14.5861 46.8501 14.4132 46.7039 14.2386 46.5611C14.0658 46.4199 13.8918 46.2793 13.7167 46.1405C13.5393 46.0004 13.3602 45.8621 13.1817 45.7238C13.0908 45.6535 12.9992 45.5843 12.9077 45.5152C12.8778 45.4927 12.8608 45.464 12.8541 45.4275C12.8309 45.297 12.8066 45.1671 12.784 45.0367C12.7705 44.9568 12.8049 44.9085 12.8863 44.8933C13.0247 44.8674 13.1631 44.8438 13.3015 44.8179C13.4935 44.7814 13.6771 44.7229 13.8432 44.6177C14.0138 44.5092 14.137 44.3653 14.1782 44.1623C14.1827 44.1403 14.185 44.1179 14.1895 44.0903C14.1703 44.0926 14.1556 44.0931 14.1415 44.0954C13.6975 44.1741 13.2529 44.2534 12.8089 44.3327C12.7976 44.3349 12.7863 44.3372 12.775 44.3383C12.6953 44.3467 12.6558 44.3186 12.6411 44.2399C12.6219 44.1381 12.6038 44.0369 12.5863 43.9345C12.571 43.8463 12.601 43.8041 12.6908 43.7883C13.1241 43.7113 13.5568 43.6343 13.9901 43.5572C14.0048 43.5544 14.02 43.5522 14.0404 43.5482C14.0116 43.4976 13.9714 43.4639 13.9291 43.4335C13.8008 43.3408 13.6528 43.3098 13.4975 43.3003C13.3495 43.2913 13.2043 43.3121 13.0591 43.3368C12.9168 43.361 12.7744 43.3874 12.632 43.4127C12.5354 43.4296 12.4903 43.3987 12.4727 43.3042C12.449 43.1737 12.4259 43.0439 12.4027 42.9134C12.3863 42.8206 12.4163 42.7784 12.5089 42.7616C13.415 42.6002 14.3211 42.4388 15.2272 42.278C15.3227 42.2611 15.3645 42.2898 15.382 42.3848C15.4001 42.4816 15.417 42.5783 15.434 42.675C15.4504 42.7689 15.4227 42.8077 15.3272 42.8251C15.095 42.8667 14.8629 42.9078 14.6307 42.9494C14.616 42.9522 14.6019 42.9544 14.5793 42.9584C14.5906 42.973 14.5962 42.9826 14.6041 42.9899C14.7154 43.0973 14.7985 43.2244 14.8583 43.3661C14.8702 43.3936 14.8849 43.3992 14.9131 43.3936C15.0815 43.3621 15.2498 43.3329 15.4187 43.3031C15.5148 43.2862 15.5554 43.3143 15.573 43.4105C15.5905 43.5061 15.6074 43.6017 15.6244 43.6967C15.6413 43.7917 15.6131 43.8322 15.5165 43.8502C15.3532 43.88 15.1894 43.9092 15.0261 43.9374C14.9962 43.9424 14.9821 43.9503 14.9821 43.9863C14.9821 44.1685 14.9476 44.3445 14.8719 44.5109C14.8013 44.6667 14.7013 44.8016 14.5765 44.9191C14.381 45.1024 14.1494 45.2228 13.8957 45.3043C13.8839 45.3083 13.8715 45.3122 13.8596 45.3167C13.8562 45.3178 13.8528 45.3206 13.8438 45.3257C13.8624 45.3409 13.8788 45.3549 13.8957 45.3684C14.1195 45.5433 14.3448 45.7165 14.5663 45.8942C14.7623 46.0511 14.9555 46.2119 15.1487 46.3727C15.3261 46.5206 15.5018 46.6701 15.6775 46.8203C15.7436 46.8771 15.7413 46.9412 15.6735 46.998C15.6707 47.0002 15.6696 47.0042 15.6673 47.007C15.43 47.0491 15.1928 47.0913 14.9561 47.1335H14.9555Z" fill="white"/>
<path d="M27.6785 56.8802C28.0644 57.0647 28.5186 57.0354 28.8767 56.8021C31.8803 54.8458 45.5889 45.9114 45.4901 45.8478C44.4128 45.154 44.5778 45.524 43.6281 44.7114C42.1921 43.4822 40.9595 42.09 39.9641 40.5852C39.0111 39.1446 38.483 37.618 37.8045 36.0671C36.055 32.0692 33.5265 28.7156 30.0692 25.6179C27.8164 23.5986 25.3878 21.711 22.8458 19.947C22.7424 19.8756 21.695 18.065 21.5651 18.1122C21.5651 18.1122 8.73775 24.5782 4.52693 26.7003C3.89762 27.0174 3.78972 27.8671 4.31904 28.3304C6.61087 30.3378 8.1237 31.8262 10.3952 34.2436C12.8836 36.8915 15.4223 39.5894 16.9176 42.7293C18.1548 45.3271 19.8433 48.4305 21.46 50.8754C22.9599 53.1426 25.0229 55.5099 27.6774 56.8808L27.6785 56.8802Z" fill="#23776C"/>
<path d="M45.4905 45.8478C44.4132 45.154 44.5782 45.524 43.6286 44.7114C42.1926 43.4822 40.96 42.09 39.9646 40.5852C39.0116 39.1446 38.4834 37.618 37.805 36.0671C36.0554 32.0692 33.5269 28.7156 30.0697 25.6179C27.8168 23.5986 25.3883 21.711 22.8462 19.947C22.7428 19.8756 21.6955 18.065 21.5656 18.1122C21.5656 18.1122 10.4069 23.737 5.48828 26.2161C5.50975 26.2381 5.53234 26.26 5.55664 26.2803C7.96936 28.3366 9.56465 29.8632 11.9621 32.3458C14.5884 35.0651 17.2672 37.8356 18.8653 41.0789C20.1872 43.7623 21.9858 46.9657 23.7015 49.4843C25.2928 51.8206 27.4722 54.2537 30.255 55.6437C30.3408 55.6831 30.4295 55.7123 30.5199 55.732C35.1855 52.6905 45.5764 45.9035 45.4905 45.8484V45.8478Z" fill="#195E55"/>
<path d="M29.3316 54.8863C32.125 53.3591 46.7014 45.4008 48.9853 44.4055C48.8378 44.4696 48.6006 44.5343 48.4887 44.4516C47.4047 43.647 46.3827 42.7698 45.4303 41.8347C43.9892 40.4199 42.7577 38.8269 41.7697 37.113C40.8235 35.4716 40.31 33.7437 39.644 31.9842C37.9266 27.4498 35.4083 23.6228 31.942 20.0606C29.6829 17.7394 27.2437 15.5616 24.6869 13.5204C24.583 13.4378 23.5757 12.5027 23.4435 12.5527L4.72193 19.6591C4.0881 19.8998 3.91129 20.7106 4.38977 21.1897C6.99229 23.7943 9.4971 26.4838 11.8149 29.3088C14.3039 32.3424 16.211 35.4503 17.6832 39.0141C18.9011 41.9629 19.9654 44.9802 21.5714 47.7653C23.0306 50.2951 25.4043 53.0554 28.0679 54.6884C28.1797 54.757 28.6921 55.1821 29.3321 54.8874L29.3316 54.8863Z" fill="#1C9B8A"/>
<path d="M6.78409 19.3602C9.4352 22.0992 11.9875 24.9282 14.3488 27.8988C16.8846 31.0893 18.829 34.3563 20.33 38.1029C21.5722 41.2023 22.6586 44.3749 24.2957 47.3028C25.6983 49.8106 27.9286 52.5339 30.452 54.277C34.8295 51.8872 46.9242 45.3066 48.9872 44.4075C48.8398 44.4716 48.6025 44.5362 48.4907 44.4536C47.4066 43.6489 46.3847 42.7717 45.4322 41.8366C43.9912 40.4219 42.7597 38.8289 41.7716 37.115C40.8254 35.4736 40.3119 33.7456 39.6459 31.9862C37.9286 27.4518 35.4102 23.6247 31.9439 20.0625C29.6849 17.7414 27.2456 15.5636 24.6888 13.5224C24.5849 13.4397 23.5777 12.5046 23.4455 12.5547L6.55078 18.9672C6.59484 19.1089 6.67111 19.2438 6.78409 19.3602Z" fill="#23776C"/>
<path d="M30.8291 52.6871C33.8096 51.3882 45.876 46.1211 50.5071 44.0985C51.1822 43.8039 51.3274 42.9098 50.7749 42.424C50.7721 42.4212 50.7692 42.4189 50.767 42.4172C49.6931 41.5074 48.6836 40.52 47.7464 39.4713C46.3279 37.8851 45.1264 36.1099 44.1739 34.2104C43.2616 32.3908 42.7893 30.4891 42.1634 28.5497C40.5501 23.5491 38.108 19.2981 34.701 15.3092C32.4803 12.7096 30.0738 10.2614 27.5442 7.95929C27.4826 7.90306 27.0521 7.52182 26.7177 7.22492C26.4692 7.0045 26.1184 6.9404 25.8071 7.05792L7.18096 14.0901C6.52002 14.3397 6.31382 15.168 6.77874 15.6977C9.35416 18.6312 11.8279 21.6559 14.1062 24.8239C16.5398 28.2078 18.3836 31.6559 19.7756 35.5897C20.9269 38.8438 21.9211 42.1693 23.4695 45.2563C24.8999 48.1077 26.8595 50.786 29.4999 52.5651C29.5022 52.5668 29.5044 52.5679 29.5067 52.5696C29.8982 52.8322 30.3975 52.8761 30.8302 52.6877L30.8291 52.6871Z" fill="#23B6A2"/>
<path d="M30.0834 29.0991C30.0461 29.0445 30.006 28.9911 29.9721 28.9343C29.8761 28.7741 29.7834 28.6121 29.688 28.4513C29.5936 28.2927 29.4982 28.1347 29.401 27.9773C29.3027 27.8182 29.2027 27.6607 29.1027 27.5027C29.0519 27.4223 29.0005 27.343 28.9485 27.2632C28.9316 27.2373 28.9265 27.2103 28.9316 27.1799C28.9508 27.072 28.9689 26.964 28.9881 26.8561C28.9999 26.7903 29.0406 26.7622 29.1084 26.7734C29.2231 26.7925 29.3377 26.8133 29.453 26.8313C29.6128 26.8566 29.7727 26.8628 29.9315 26.8279C30.0953 26.792 30.232 26.7144 30.3218 26.5676C30.3314 26.5519 30.3399 26.535 30.3512 26.5147C30.3359 26.5108 30.3241 26.5074 30.3122 26.5052C29.9439 26.4416 29.5761 26.3781 29.2078 26.3146C29.1988 26.3129 29.1892 26.3118 29.1801 26.3095C29.1157 26.2938 29.0931 26.2606 29.1039 26.1954C29.118 26.111 29.1327 26.0267 29.1479 25.9423C29.1609 25.8692 29.1965 25.845 29.2705 25.858C29.6292 25.9198 29.9879 25.9817 30.3472 26.0435C30.3597 26.0458 30.3721 26.048 30.389 26.0508C30.3806 26.0036 30.3591 25.9659 30.3354 25.9305C30.2619 25.822 30.1552 25.7562 30.0371 25.705C29.9247 25.6561 29.8055 25.6314 29.6857 25.61C29.5682 25.5886 29.4502 25.5689 29.3321 25.5487C29.2524 25.5346 29.2253 25.4975 29.2389 25.4194C29.2575 25.3114 29.2762 25.2035 29.2954 25.0955C29.3089 25.0185 29.344 24.9943 29.4213 25.0072C30.1721 25.1365 30.9229 25.2664 31.6736 25.3958C31.7527 25.4093 31.777 25.4441 31.764 25.5223C31.7505 25.6027 31.7363 25.6825 31.7222 25.7629C31.7081 25.8405 31.6753 25.863 31.5962 25.8495C31.4036 25.8164 31.2115 25.7832 31.0195 25.75C31.0076 25.7478 30.9952 25.7461 30.9771 25.7427C30.9816 25.7573 30.9833 25.7663 30.9873 25.7742C31.0432 25.8895 31.072 26.0115 31.0782 26.1386C31.0793 26.1633 31.0895 26.1717 31.1132 26.1757C31.2528 26.1987 31.3923 26.2235 31.5324 26.2476C31.6121 26.2617 31.6358 26.2949 31.6217 26.3747C31.6081 26.454 31.594 26.5333 31.5804 26.612C31.5663 26.6907 31.533 26.7144 31.4528 26.7009C31.3172 26.6778 31.1816 26.6548 31.0466 26.6306C31.0217 26.6261 31.0087 26.6283 30.9986 26.6564C30.9466 26.7981 30.8703 26.9252 30.7641 27.0337C30.6647 27.135 30.5489 27.212 30.4184 27.2682C30.2145 27.3559 29.9998 27.3841 29.7795 27.3768C29.7688 27.3768 29.7586 27.3768 29.7479 27.3768C29.745 27.3768 29.7416 27.3779 29.7332 27.379C29.7433 27.3959 29.7518 27.4116 29.7614 27.4268C29.8857 27.6259 30.0117 27.8243 30.1337 28.0245C30.2416 28.2017 30.3467 28.381 30.4512 28.5604C30.5472 28.7252 30.6415 28.8916 30.7353 29.0575C30.7709 29.1199 30.7506 29.1694 30.6817 29.1947C30.6788 29.1958 30.6766 29.1981 30.6743 29.1997C30.4777 29.166 30.2811 29.1317 30.0851 29.098L30.0834 29.0991Z" fill="#FFC70E"/>
<path d="M29.8692 50.7546C29.872 50.7562 29.8748 50.7585 29.8782 50.7602C30.0816 50.8946 45.4634 43.1848 47.5519 42.162C47.4299 42.2216 46.6091 41.2769 46.5192 41.1915C45.6516 40.3677 44.8364 39.4736 44.0794 38.5245C42.9338 37.0883 41.9627 35.4813 41.1933 33.7618C40.4567 32.1148 40.0748 30.393 39.5692 28.6369C38.2659 24.1104 36.2933 20.2614 33.5405 16.6503C31.7469 14.2971 29.8025 12.0805 27.7592 9.99657C27.6762 9.91223 26.8746 8.96137 26.765 9.00748C26.765 9.00748 9.33928 15.9947 9.33984 15.9947C11.7006 18.9586 14.8341 22.0394 16.904 25.2642C18.8698 28.3277 20.3595 31.449 21.4837 35.0101C22.4135 37.956 23.2168 40.9665 24.4675 43.7612C25.7165 46.5525 27.466 49.1593 29.8692 50.7534V50.7546Z" fill="#1C9B8A"/>
<path d="M32.382 33.4415C32.1888 33.3667 31.9917 33.3009 31.803 33.216C31.2708 32.9753 30.7438 32.7234 30.2128 32.481C29.6874 32.2415 29.1603 32.0048 28.631 31.7737C28.0955 31.5397 27.5571 31.3126 27.0193 31.0848C26.7459 30.969 26.472 30.8554 26.1968 30.7441C26.1065 30.7075 26.0454 30.6474 26.0048 30.5602C25.8613 30.2498 25.715 29.9411 25.5721 29.6302C25.4845 29.4401 25.5393 29.2967 25.7325 29.2056C26.0607 29.051 26.3917 28.9014 26.7194 28.7451C27.1741 28.5281 27.595 28.261 27.9396 27.8898C28.2943 27.5075 28.5067 27.0666 28.4751 26.5324C28.4717 26.4745 28.4633 26.4172 28.4553 26.3452C28.409 26.3626 28.3729 26.3744 28.339 26.3902C27.282 26.8783 26.2251 27.3669 25.1681 27.8555C25.1416 27.8679 25.115 27.8814 25.0879 27.8921C24.8947 27.9657 24.7772 27.9213 24.6885 27.7346C24.5733 27.494 24.4609 27.2516 24.3496 27.0087C24.253 26.7984 24.3004 26.6736 24.5134 26.5752C25.5432 26.0983 26.5736 25.6226 27.604 25.1464C27.6391 25.1301 27.6746 25.1137 27.7238 25.0907C27.6176 24.9839 27.4956 24.9259 27.3707 24.8776C26.9888 24.7297 26.5985 24.7494 26.2042 24.8275C25.828 24.9018 25.4794 25.0491 25.1337 25.206C24.7942 25.36 24.4564 25.5186 24.118 25.6744C23.8886 25.7801 23.7542 25.7323 23.6491 25.5079C23.5039 25.1981 23.3593 24.8888 23.2158 24.5784C23.1136 24.3574 23.1599 24.2321 23.3808 24.1303C25.5365 23.1339 27.6916 22.1375 29.8473 21.1416C30.0738 21.037 30.1986 21.0815 30.3049 21.307C30.4133 21.5364 30.5206 21.7669 30.6268 21.9975C30.7297 22.2207 30.6862 22.3365 30.4591 22.4422C29.9072 22.6981 29.3547 22.9528 28.8028 23.2081C28.7683 23.2238 28.7338 23.2402 28.6807 23.2643C28.7192 23.2936 28.7395 23.3132 28.7632 23.3267C29.1129 23.5224 29.4033 23.785 29.6467 24.0994C29.6942 24.1606 29.7343 24.1646 29.8021 24.1325C30.2015 23.9442 30.6026 23.7603 31.0036 23.5753C31.233 23.4696 31.3528 23.514 31.4595 23.7423C31.5657 23.9695 31.6719 24.1966 31.7776 24.4238C31.8826 24.6498 31.8391 24.7702 31.6098 24.877C31.2217 25.0581 30.8325 25.238 30.4427 25.4157C30.3709 25.4483 30.341 25.4764 30.3653 25.567C30.4845 26.0213 30.5161 26.483 30.4376 26.9485C30.3642 27.3838 30.2037 27.7864 29.9693 28.1609C29.6027 28.7468 29.1039 29.1989 28.5248 29.5689C28.4971 29.5863 28.47 29.6049 28.4435 29.6234C28.4356 29.629 28.4294 29.6369 28.4102 29.656C28.4666 29.6825 28.5164 29.7066 28.5678 29.7291C29.2417 30.0198 29.919 30.3044 30.5901 30.6024C31.1838 30.8655 31.7725 31.1399 32.3605 31.4149C32.9012 31.668 33.439 31.9266 33.9767 32.1858C34.1796 32.2837 34.2157 32.4467 34.0846 32.6323C34.0796 32.6396 34.0784 32.6497 34.0756 32.6587C33.5113 32.9196 32.9475 33.18 32.3831 33.4409L32.382 33.4415Z" fill="white"/>
<path d="M10.2478 17.9931C11.0749 17.9931 11.7454 17.3257 11.7454 16.5024C11.7454 15.6791 11.0749 15.0117 10.2478 15.0117C9.42073 15.0117 8.75024 15.6791 8.75024 16.5024C8.75024 17.3257 9.42073 17.9931 10.2478 17.9931Z" fill="#23B6A2"/>
<path d="M26.4859 10.8485C27.3129 10.8485 27.9834 10.1811 27.9834 9.35785C27.9834 8.53458 27.3129 7.86719 26.4859 7.86719C25.6588 7.86719 24.9883 8.53458 24.9883 9.35785C24.9883 10.1811 25.6588 10.8485 26.4859 10.8485Z" fill="#23B6A2"/>
<path d="M30.103 51.9208C30.9301 51.9208 31.6006 51.2534 31.6006 50.4301C31.6006 49.6068 30.9301 48.9395 30.103 48.9395C29.276 48.9395 28.6055 49.6068 28.6055 50.4301C28.6055 51.2534 29.276 51.9208 30.103 51.9208Z" fill="#23B6A2"/>
<path d="M46.9624 43.7645C47.7895 43.7645 48.46 43.0971 48.46 42.2739C48.46 41.4506 47.7895 40.7832 46.9624 40.7832C46.1353 40.7832 45.4648 41.4506 45.4648 42.2739C45.4648 43.0971 46.1353 43.7645 46.9624 43.7645Z" fill="#23B6A2"/>
</g>
<defs>
<clipPath id="clip0_252_9087">
<rect width="51.0417" height="50" fill="white" transform="translate(3.98047 7)"/>
</clipPath>
</defs>
</svg>
