<svg width="64" height="64" viewBox="0 0 64 64" fill="none" xmlns="http://www.w3.org/2000/svg">
<path d="M25.8071 38.1929H38.1941V49.0315H25.8071V38.1929Z" fill="#D98C67"/>
<path d="M25.8069 31.5723H38.1939V41.931C38.1939 41.931 34.4309 43.4759 31.9997 43.4758C29.569 43.4758 25.8069 41.931 25.8069 41.931V31.5723Z" fill="#C87F5C"/>
<path d="M25.8071 44.3862C27.2198 45.8902 29.468 46.9669 32.0006 46.9669C34.5911 46.9669 36.7887 45.9491 38.1941 44.3862V63.9995H25.8071V44.3862Z" fill="#7FAFDE"/>
<path d="M25.8049 44.3862C27.2176 45.8902 29.4658 46.9669 31.9984 46.9669C34.5889 46.9669 36.7865 45.9491 38.1919 44.3862C38.7638 44.5127 39.4714 44.6835 40.2693 44.8895C39.0688 47.3003 35.824 49.0314 31.9984 49.0314C28.1729 49.0314 24.928 47.3003 23.7275 44.8895C24.5255 44.6835 25.2331 44.5132 25.8049 44.3862Z" fill="#7FAFDE"/>
<path d="M17.0321 50.0635L7.74187 49.0317C7.74187 49.0317 2.58062 54.193 0 63.9994H17.0321V50.0635Z" fill="#EFF0F0"/>
<path d="M23.7428 43.8711C20.0633 44.6861 10.7937 46.7949 7.74292 49.0323L12.9042 64H29.9363L23.7428 43.8711Z" fill="#EFF0F0"/>
<path d="M46.9673 50.0635L56.2575 49.0317C56.2575 49.0317 61.4188 54.193 63.9994 63.9994H46.9673V50.0635Z" fill="#EFF0F0"/>
<path d="M40.2577 43.8711C43.9372 44.6861 53.2068 46.7949 56.2576 49.0323L51.0963 64H34.0642L40.2577 43.8711Z" fill="#EFF0F0"/>
<path d="M50.5793 26.2481C50.5793 28.5283 48.9617 30.967 46.9664 30.967C44.9711 30.967 43.3535 28.5283 43.3535 26.2481C43.3535 23.9678 44.9711 22.709 46.9664 22.709C48.9617 22.709 50.5793 23.9678 50.5793 26.2481Z" fill="#D98C67"/>
<path d="M20.1288 26.2481C20.1288 28.5283 18.5113 30.967 16.516 30.967C14.5206 30.967 12.9031 28.5283 12.9031 26.2481C12.9031 23.9678 14.5206 22.709 16.516 22.709C18.5113 22.709 20.1288 23.9678 20.1288 26.2481Z" fill="#D98C67"/>
<path d="M44.9027 6.79883H19.0965C17.9414 7.07908 17.032 8.19082 17.032 9.37945V26.3262C17.032 35.0967 23.7416 41.8063 31.9996 41.8063C40.2576 41.8063 46.9672 35.0967 46.9672 26.3262V9.37945C46.9672 8.1872 46.0625 7.07599 44.9027 6.79883Z" fill="#D98C67"/>
<path d="M24.9031 15.129C24.9031 15.129 22.8788 15.5285 21.5666 16.54C20.4795 17.3756 20.4955 18.0185 21.4172 18.4724C22.0687 18.5134 23.1733 18.0948 24.2755 17.7969C25.9822 17.0805 28.9693 17.0403 28.878 16.0523C28.7493 14.6593 26.3452 14.7752 24.9039 15.1371L24.9031 15.129Z" fill="#23272C"/>
<path d="M40.1123 15.129C40.1123 15.129 42.1365 15.5285 43.4488 16.54C44.5359 17.3756 44.5198 18.0185 43.5982 18.4724C42.9467 18.5134 41.8421 18.0948 40.7398 17.7969C39.0332 17.0805 36.0461 17.0403 36.1374 16.0523C36.2661 14.6593 38.6702 14.7752 40.1115 15.1371L40.1123 15.129Z" fill="#23272C"/>
<path d="M31.9997 0C40.0951 0 49.0318 6.29053 49.0318 15.9999C49.005 22.148 46.9673 26.3224 46.9673 26.3224C46.9673 23.2256 44.1376 9.93095 44.1376 9.93095C35.3635 11.9955 18.7585 8.82751 18.7585 8.82751C18.7585 8.82751 17.0321 17.0321 17.0321 26.3224C17.0321 26.3224 13.9353 22.7095 13.9353 16.516C13.9353 8.79271 17.5482 7.22575 17.5482 7.22575C17.5482 7.22575 18.5804 0 31.9997 0Z" fill="#23272C"/>
<path d="M26.3223 25.8062C27.1774 25.8062 27.8707 25.113 27.8707 24.2578C27.8707 23.4027 27.1774 22.7095 26.3223 22.7095C25.4672 22.7095 24.7739 23.4027 24.7739 24.2578C24.7739 25.113 25.4672 25.8062 26.3223 25.8062Z" fill="#23272C"/>
<path d="M38.7093 25.8062C39.5644 25.8062 40.2576 25.113 40.2576 24.2578C40.2576 23.4027 39.5644 22.7095 38.7093 22.7095C37.8541 22.7095 37.1609 23.4027 37.1609 24.2578C37.1609 25.113 37.8541 25.8062 38.7093 25.8062Z" fill="#23272C"/>
<path d="M25.8061 42.3228L29.9351 64L21.6771 56.2581L22.7093 52.1291L19.0964 51.6125L23.2254 43.8706C23.6445 43.1124 24.8383 42.3233 25.8061 42.3228Z" fill="#DDDDDD"/>
<path d="M38.1932 42.3228L34.0642 64L42.3222 56.2581L41.29 52.1291L44.9028 51.6125L40.7738 43.8706C40.3547 43.1124 39.1609 42.3233 38.1932 42.3228Z" fill="#DDDDDD"/>
<path d="M23.2253 60.387H20.6447C20.5078 60.387 20.3765 60.3326 20.2797 60.2358C20.1829 60.139 20.1286 60.0078 20.1286 59.8709C20.1286 59.734 20.1829 59.6027 20.2797 59.5059C20.3765 59.4091 20.5078 59.3548 20.6447 59.3548H23.2253C23.7946 59.3548 24.2576 58.8918 24.2576 58.3225V53.1613C24.2576 50.5997 22.1734 48.5161 19.6124 48.5161C17.0514 48.5161 14.9673 50.5997 14.9673 53.1613V58.3225C14.9673 58.8918 15.4303 59.3548 15.9996 59.3548H18.0641C18.2009 59.3548 18.3322 59.4091 18.429 59.5059C18.5258 59.6027 18.5802 59.734 18.5802 59.8709C18.5802 60.0078 18.5258 60.139 18.429 60.2358C18.3322 60.3326 18.2009 60.387 18.0641 60.387H15.9996C14.861 60.387 13.9351 59.4611 13.9351 58.3225V53.1613C13.9351 50.031 16.4821 47.4839 19.6124 47.4839C22.7427 47.4839 25.2898 50.031 25.2898 53.1613V58.3225C25.2898 59.4611 24.3639 60.387 23.2253 60.387Z" fill="url(#paint0_linear_254_11852)"/>
<path d="M19.6124 47.4839C16.4821 47.4839 13.9351 50.031 13.9351 53.1613H14.9673C14.9673 50.5997 17.0514 48.5161 19.6124 48.5161C22.1734 48.5161 24.2576 50.5997 24.2576 53.1613H25.2898C25.2898 50.031 22.7427 47.4839 19.6124 47.4839Z" fill="url(#paint1_linear_254_11852)"/>
<path d="M18.0642 59.3545H17.032V60.3867H18.0642C18.2011 60.3867 18.3324 60.3324 18.4292 60.2356C18.526 60.1388 18.5804 60.0075 18.5804 59.8706C18.5804 59.7337 18.526 59.6025 18.4292 59.5057C18.3324 59.4089 18.2011 59.3545 18.0642 59.3545Z" fill="url(#paint2_linear_254_11852)"/>
<path d="M20.645 59.3545H21.6773V60.3867H20.645C20.5081 60.3867 20.3769 60.3324 20.2801 60.2356C20.1833 60.1388 20.1289 60.0075 20.1289 59.8706C20.1289 59.7337 20.1833 59.6025 20.2801 59.5057C20.3769 59.4089 20.5081 59.3545 20.645 59.3545Z" fill="url(#paint3_linear_254_11852)"/>
<path d="M40.2482 39.2964C39.7196 39.6523 39.1686 39.9736 38.5986 40.2584H39.2247C43.2092 40.2584 46.4504 43.4997 46.4504 47.4842V53.6777C46.4504 53.8146 46.5048 53.9459 46.6016 54.0426C46.6984 54.1394 46.8297 54.1938 46.9666 54.1938C47.1034 54.1938 47.2347 54.1394 47.3315 54.0426C47.4283 53.9459 47.4827 53.8146 47.4827 53.6777V47.4842C47.4827 43.2783 44.3194 39.8032 40.2482 39.2964Z" fill="url(#paint4_linear_254_11852)"/>
<path d="M23.7836 39.3179C21.1245 39.7881 19.0967 42.1106 19.0967 44.9029V47.9996C19.0967 48.1365 19.1511 48.2678 19.2478 48.3646C19.3446 48.4614 19.4759 48.5157 19.6128 48.5157C19.7497 48.5157 19.881 48.4614 19.9778 48.3646C20.0746 48.2678 20.1289 48.1365 20.1289 47.9996V44.9029C20.1289 42.3413 22.213 40.2577 24.7741 40.2577C24.9053 40.2572 25.0314 40.2062 25.1261 40.1153C24.6648 39.8733 24.2167 39.6071 23.7836 39.3179Z" fill="url(#paint5_linear_254_11852)"/>
<path d="M46.9659 58.3229C48.3911 58.3229 49.5465 57.1675 49.5465 55.7422C49.5465 54.317 48.3911 53.1616 46.9659 53.1616C45.5406 53.1616 44.3853 54.317 44.3853 55.7422C44.3853 57.1675 45.5406 58.3229 46.9659 58.3229Z" fill="url(#paint6_linear_254_11852)"/>
<path d="M46.9659 58.3229C48.3911 58.3229 49.5465 57.1675 49.5465 55.7422C49.5465 54.317 48.3911 53.1616 46.9659 53.1616C45.5406 53.1616 44.3853 54.317 44.3853 55.7422C44.3853 57.1675 45.5406 58.3229 46.9659 58.3229Z" fill="black"/>
<mask id="mask0_254_11852" style="mask-type:luminance" maskUnits="userSpaceOnUse" x="44" y="53" width="6" height="6">
<path d="M46.9659 58.3229C48.3911 58.3229 49.5465 57.1675 49.5465 55.7422C49.5465 54.317 48.3911 53.1616 46.9659 53.1616C45.5406 53.1616 44.3853 54.317 44.3853 55.7422C44.3853 57.1675 45.5406 58.3229 46.9659 58.3229Z" fill="white"/>
</mask>
<g mask="url(#mask0_254_11852)">
<path d="M44.3853 53.1616H49.5465V58.3229H44.3853V53.1616Z" fill="url(#paint7_linear_254_11852)"/>
</g>
<path d="M46.9669 58.839C45.259 58.839 43.8701 57.4501 43.8701 55.7423C43.8701 54.0344 45.259 52.6455 46.9669 52.6455C48.6747 52.6455 50.0636 54.0344 50.0636 55.7423C50.0636 57.4501 48.6747 58.839 46.9669 58.839ZM46.9669 53.6778C45.8283 53.6778 44.9024 54.6037 44.9024 55.7423C44.9024 56.8808 45.8283 57.8068 46.9669 57.8068C48.1054 57.8068 49.0314 56.8808 49.0314 55.7423C49.0314 54.6037 48.1054 53.6778 46.9669 53.6778Z" fill="url(#paint8_linear_254_11852)"/>
<path d="M33.6443 27.8075C33.5067 27.8074 33.3714 27.8416 33.2504 27.907C33.1294 27.9724 33.0266 28.067 32.9513 28.1821C32.6856 28.2745 32.408 28.3282 32.127 28.3415C31.8497 28.3282 31.5758 28.2747 31.3138 28.1826C31.2164 28.0331 31.0733 27.919 30.9058 27.8575C30.7383 27.7959 30.5554 27.7901 30.3844 27.841C30.2133 27.8919 30.0633 27.9967 29.9567 28.1398C29.8501 28.2829 29.7925 28.4566 29.7927 28.635C29.7927 29.9592 32.1039 29.9967 32.127 29.9967C32.1502 29.9967 34.4719 29.9597 34.4719 28.635C34.4719 28.4156 34.3847 28.2051 34.2295 28.0499C34.0743 27.8947 33.8638 27.8075 33.6443 27.8075Z" fill="#B26249"/>
<path d="M31.9998 34.2062C30.8333 34.2062 30.1771 34.0582 29.1201 33.3078C29.0085 33.2284 28.9329 33.108 28.9101 32.973C28.8872 32.838 28.919 32.6994 28.9983 32.5878C29.0776 32.4761 29.198 32.4006 29.3331 32.3778C29.4681 32.3549 29.6066 32.3866 29.7183 32.466C31.9998 31.9992 33.1032 31.9992 35.3167 32.4644C35.3722 32.4253 35.4348 32.3974 35.501 32.3825C35.5673 32.3676 35.6358 32.3659 35.7027 32.3776C35.7696 32.3892 35.8335 32.4139 35.8909 32.4503C35.9482 32.4866 35.9978 32.534 36.0368 32.5895C36.0758 32.6451 36.1035 32.7078 36.1182 32.7741C36.1329 32.8404 36.1344 32.9089 36.1226 32.9758C36.1108 33.0427 36.0859 33.1065 36.0494 33.1638C36.0129 33.221 35.9654 33.2705 35.9097 33.3093C34.8408 34.0587 33.1652 34.2062 31.9998 34.2062Z" fill="white"/>
<path d="M32.439 29.8843C34.9037 29.8843 36.0343 30.6549 37.5299 31.504C37.6856 31.5905 37.8095 31.7245 37.8835 31.8865C37.9574 32.0486 37.9775 32.23 37.9408 32.4043C37.9041 32.5786 37.8125 32.7365 37.6795 32.8549C37.5465 32.9733 37.379 33.046 37.2017 33.0623C35.2443 33.1957 33.4566 32.4637 32.439 32.4637C31.4238 32.4637 29.6338 33.1957 27.6764 33.0623C27.5 33.045 27.3337 32.972 27.2017 32.8537C27.0696 32.7355 26.9788 32.5782 26.9422 32.4048C26.9057 32.2313 26.9254 32.0508 26.9985 31.8893C27.0716 31.7278 27.1943 31.5939 27.3487 31.5069C28.8438 30.6549 29.9743 29.8843 32.439 29.8843Z" fill="#23272C"/>
<path d="M47.1261 22.5206H46.3277C45.8982 20.1187 43.6317 18.7583 39.9511 18.7583C36.6181 18.7583 34.4399 19.8711 33.7391 21.8648C33.351 21.4464 32.7163 21.1722 31.9988 21.1722C31.2821 21.1722 30.6481 21.4463 30.2603 21.8645C29.5594 19.8709 27.3812 18.7583 24.0484 18.7583C20.3678 18.7583 18.1013 20.1187 17.6718 22.5206H16.8733C16.6955 22.5206 16.5515 22.6536 16.5515 22.8178C16.5515 22.982 16.6955 23.1151 16.8733 23.1151H17.6051C17.6004 23.2055 17.5912 23.2935 17.5912 23.3864C17.5912 26.7991 20.6084 29.7927 24.0483 29.7927C27.4883 29.7927 30.5055 26.7991 30.5055 23.3864V22.8178C30.5055 22.2382 31.1752 21.7667 31.9987 21.7667C32.8231 21.7667 33.4938 22.2382 33.4938 22.8178V23.3864C33.4938 26.7991 36.5111 29.7927 39.951 29.7927C43.3909 29.7927 46.4081 26.7991 46.4081 23.3864C46.4081 23.2935 46.399 23.2055 46.3943 23.1151H47.126C47.3039 23.1151 47.4478 22.982 47.4478 22.8178C47.4478 22.6536 47.304 22.5206 47.1261 22.5206ZM24.0484 29.1981C20.9514 29.1981 18.2349 26.4824 18.2349 23.3864C18.2349 19.8768 21.8773 19.3528 24.0484 19.3528C26.2195 19.3528 29.8619 19.8769 29.8619 23.3864C29.8619 26.4824 27.1454 29.1981 24.0484 29.1981ZM39.951 29.1981C36.854 29.1981 34.1375 26.4824 34.1375 23.3864C34.1375 19.8768 37.7799 19.3528 39.951 19.3528C42.1222 19.3528 45.7645 19.8769 45.7645 23.3864C45.7645 26.4824 43.0481 29.1981 39.951 29.1981Z" fill="white"/>
<defs>
<linearGradient id="paint0_linear_254_11852" x1="13.9351" y1="47.4839" x2="25.2898" y2="47.4839" gradientUnits="userSpaceOnUse">
<stop stop-color="#D0D3D3"/>
<stop offset="1" stop-color="#AAAEB1"/>
</linearGradient>
<linearGradient id="paint1_linear_254_11852" x1="13.9351" y1="47.4839" x2="25.2898" y2="47.4839" gradientUnits="userSpaceOnUse">
<stop stop-color="#58595B"/>
<stop offset="1" stop-color="#414042"/>
</linearGradient>
<linearGradient id="paint2_linear_254_11852" x1="17.032" y1="59.3545" x2="18.5804" y2="59.3545" gradientUnits="userSpaceOnUse">
<stop stop-color="#58595B"/>
<stop offset="1" stop-color="#414042"/>
</linearGradient>
<linearGradient id="paint3_linear_254_11852" x1="20.1289" y1="59.3545" x2="21.6773" y2="59.3545" gradientUnits="userSpaceOnUse">
<stop stop-color="#58595B"/>
<stop offset="1" stop-color="#414042"/>
</linearGradient>
<linearGradient id="paint4_linear_254_11852" x1="38.5986" y1="39.2964" x2="47.4827" y2="39.2964" gradientUnits="userSpaceOnUse">
<stop stop-color="#58595B"/>
<stop offset="1" stop-color="#414042"/>
</linearGradient>
<linearGradient id="paint5_linear_254_11852" x1="19.0967" y1="39.3179" x2="25.1261" y2="39.3179" gradientUnits="userSpaceOnUse">
<stop stop-color="#58595B"/>
<stop offset="1" stop-color="#414042"/>
</linearGradient>
<linearGradient id="paint6_linear_254_11852" x1="52.2154" y1="57.6049" x2="53.4654" y2="58.0483" gradientUnits="userSpaceOnUse">
<stop stop-color="#6C6F73"/>
<stop offset="1" stop-color="#56585B"/>
</linearGradient>
<linearGradient id="paint7_linear_254_11852" x1="44.3853" y1="53.1616" x2="49.5465" y2="53.1616" gradientUnits="userSpaceOnUse">
<stop stop-color="#6C6F73"/>
<stop offset="1" stop-color="#56585B"/>
</linearGradient>
<linearGradient id="paint8_linear_254_11852" x1="43.8701" y1="52.6455" x2="50.0636" y2="52.6455" gradientUnits="userSpaceOnUse">
<stop stop-color="#D0D3D3"/>
<stop offset="1" stop-color="#AAAEB1"/>
</linearGradient>
</defs>
</svg>
