<svg width="24" height="24" viewBox="0 0 24 24" fill="none" xmlns="http://www.w3.org/2000/svg">
<rect x="0.5" y="0.5" width="23" height="23" rx="11.5" fill="#FFF0F3"/>
<rect x="0.5" y="0.5" width="23" height="23" rx="11.5" stroke="#FFD7E1"/>
<path d="M16.4392 12.1318L17.6982 13.7745L19.3512 12.6454" stroke="#AA4860" stroke-width="1.4" stroke-linecap="round" stroke-linejoin="round"/>
<path d="M15.8523 16.6791V18.3691C15.853 18.526 15.8208 18.6813 15.758 18.825C15.6951 18.9688 15.6029 19.0978 15.4873 19.2039C15.3717 19.3099 15.2352 19.3907 15.0866 19.4409C14.938 19.4912 14.7805 19.5099 14.6242 19.4958C12.8908 19.3074 11.2257 18.7151 9.76268 17.7663C8.40157 16.9014 7.24759 15.7474 6.38269 14.3863C5.43064 12.9167 4.83816 11.2435 4.65325 9.50223C4.63918 9.34645 4.65769 9.18944 4.70762 9.04121C4.75754 8.89298 4.83779 8.75676 4.94324 8.64124C5.04869 8.52572 5.17704 8.43342 5.32012 8.37022C5.4632 8.30703 5.61787 8.27431 5.77429 8.27416H7.46429C7.73767 8.27147 8.00271 8.36828 8.21 8.54655C8.41729 8.72482 8.55269 8.97238 8.59095 9.2431C8.66228 9.78393 8.79457 10.315 8.98528 10.8261C9.06108 11.0277 9.07748 11.2468 9.03255 11.4575C8.98762 11.6682 8.88324 11.8615 8.73178 12.0147L8.01635 12.7301C8.81829 14.1405 9.98602 15.3082 11.3963 16.1101L12.1118 15.3947C12.2649 15.2432 12.4583 15.1389 12.669 15.0939C12.8797 15.049 13.0988 15.0654 13.3004 15.1412C13.8115 15.3319 14.3425 15.4642 14.8834 15.5355C15.157 15.5741 15.4069 15.712 15.5856 15.9228C15.7642 16.1337 15.8592 16.4028 15.8523 16.6791Z" stroke="#AA4860" stroke-width="1.4" stroke-linecap="round" stroke-linejoin="round"/>
<path d="M9.18433 5.99863C9.93769 5.67763 10.7668 5.5 11.6374 5.5C15.0965 5.5 17.9006 8.30412 17.9006 11.7632C17.9006 12.2708 17.8402 12.7643 17.7262 13.2369" stroke="#AA4860" stroke-width="1.4" stroke-linecap="round"/>
</svg>
