<svg width="56" height="53" viewBox="0 0 56 53" fill="none" xmlns="http://www.w3.org/2000/svg">
<g clip-path="url(#clip0_252_9700)">
<rect width="56" height="56" rx="28" fill="#FFE5C0"/>
<path d="M41.8035 48.0554C41.7701 48.0887 41.7368 48.1554 41.7035 48.1887C40.5704 49.8883 39.3707 51.6212 37.4378 52.521C36.6047 52.8876 35.7382 53.1542 35.205 53.3541C32.5723 53.5208 30.3728 53.2875 28.1734 52.7209C20.2752 50.7214 14.0101 46.5891 9.44447 40.2239C8.64466 39.0908 7.87818 37.9245 7.17834 36.6581C6.2119 34.9585 5.47874 33.1256 4.97886 31.226C4.379 28.8266 4.87889 26.6271 6.24523 24.6276C6.67846 23.9944 7.17834 23.3612 7.67822 22.7614C7.71155 22.6947 7.7782 22.6614 7.81152 22.5948C9.27784 20.7952 11.8106 20.2953 13.7435 21.595C15.3097 22.6281 16.8094 23.7945 18.2091 25.0275C19.9087 26.5272 20.1086 28.9599 18.8756 30.8261C18.8422 30.8928 18.8089 30.9261 18.7756 30.9928C18.409 31.4926 18.0091 31.9925 17.6425 32.4591C16.7427 33.6588 16.7761 34.6919 17.7758 35.7916C20.2086 38.4577 23.0746 40.5572 26.2405 42.2568C27.4069 42.8899 28.4733 42.6567 29.3064 41.5903C29.7397 41.057 30.1396 40.4905 30.5728 39.9906C30.6061 39.924 30.6728 39.8907 30.7061 39.8573C32.2057 38.1577 34.7385 37.7912 36.638 39.1242C38.071 40.1239 39.4374 41.157 40.7704 42.2568C42.6033 43.7564 43.0032 46.1558 41.8035 48.0554Z" fill="#528EFE"/>
<path d="M18.9425 30.8261C18.9091 30.8928 18.8758 30.9261 18.8425 30.9928L7.74512 22.7614C7.77844 22.6947 7.84509 22.6614 7.87842 22.5948C9.34474 20.7952 11.8775 20.2953 13.8103 21.595C15.3766 22.6281 16.8763 23.7945 18.276 25.0275C19.9756 26.5272 20.2088 28.9599 18.9425 30.8261Z" fill="#386EE7"/>
<path d="M41.8032 48.0554L30.7725 39.8573C32.2721 38.1577 34.8048 37.7912 36.7044 39.1242C38.1374 40.1239 39.5037 41.157 40.8367 42.2568C42.603 43.7564 43.0029 46.1558 41.8032 48.0554Z" fill="#386EE7"/>
<path d="M29.9893 4.93237C42.0863 4.93237 51.9178 14.7632 51.918 26.8601C51.918 31.3619 51.6419 34.1824 50.0898 36.6794L51.9316 36.1951L52.9502 40.0623L43.4434 42.5671L40.8965 32.8992L44.7637 31.8796L45.3682 34.1726C46.6488 32.3877 46.5859 30.5657 46.5859 26.8601C46.5857 17.6958 39.1536 10.2644 29.9893 10.2644C23.0912 10.2646 17.1596 14.4633 14.6602 20.4949C14.5269 20.3949 14.3598 20.295 14.2266 20.1951C13.2602 19.5287 12.0939 19.1961 10.9277 19.196C10.3946 19.196 9.89438 19.262 9.39453 19.3953C12.4272 10.9642 20.4918 4.93254 29.9893 4.93237Z" fill="#DE7C63"/>
</g>
<defs>
<clipPath id="clip0_252_9700">
<rect width="56" height="56" rx="28" fill="white"/>
</clipPath>
</defs>
</svg>
