<svg width="56" height="62" viewBox="0 0 56 62" fill="none" xmlns="http://www.w3.org/2000/svg">
<g clip-path="url(#clip0_254_11895)">
<path d="M29.0599 64H1.64763C0.662481 64 -0.105826 63.1414 0.0119439 62.1652C2.42342 42.0016 2.48697 21.9331 0.0362455 1.96541C-0.0927402 0.920178 0.727908 0 1.78223 0H28.9496C30.0039 0 30.8246 0.920178 30.6956 1.96728C28.1944 22.3101 28.086 42.3823 30.6918 62.1484C30.8208 63.1321 30.0507 64.0019 29.058 64.0019L29.0599 64Z" fill="#DB7D4A"/>
<path d="M30.6971 1.96541C30.8261 0.920178 30.0054 0 28.9511 0H20.4418C21.4961 0 22.3168 0.920178 22.1878 1.96541C19.6866 22.3083 19.5781 42.3805 22.184 62.1466C22.313 63.1302 21.5428 64 20.5502 64H29.0595C30.0522 64 30.8223 63.1302 30.6933 62.1466C28.0875 42.3805 28.1959 22.3083 30.6971 1.96541Z" fill="#B25440"/>
<path d="M28.9513 0H1.78206C0.727741 0 -0.0929075 0.920178 0.0360782 1.96541C0.471639 5.51174 0.824947 9.0618 1.10348 12.6156C10.8316 10.6651 20.3541 10.4859 29.6056 12.6567C29.8953 9.10099 30.2599 5.53787 30.6973 1.96541C30.8263 0.920178 30.0056 0 28.9513 0Z" fill="#834042"/>
<path d="M22.1869 1.96541C21.8018 5.09178 21.4747 8.21068 21.2055 11.324C24.0282 11.5685 26.8285 12.0052 29.6026 12.6567C29.6026 12.6548 29.6026 12.6511 29.6026 12.6492C29.7466 10.8854 29.9073 9.11966 30.0887 7.3521C30.0924 7.30543 30.098 7.26064 30.1036 7.21398C30.1803 6.45991 30.2625 5.70585 30.3466 4.95179C30.3672 4.76514 30.3878 4.57849 30.4102 4.38998C30.5018 3.58179 30.5971 2.7736 30.6962 1.96355C30.8252 0.920178 30.0046 0 28.9502 0H20.4409C21.4952 0 22.3159 0.920178 22.1869 1.96541Z" fill="#5B313E"/>
<path d="M24.3009 23.3972L21.2389 24.0076C17.3619 24.7803 13.3708 24.7915 9.48812 24.0412L6.15505 23.3954C5.90642 23.3468 5.7251 23.1285 5.7251 22.8765V16.3849C5.7251 16.131 5.90456 15.9126 6.15505 15.866L9.86386 15.1474C13.4979 14.4437 17.2347 14.4549 20.865 15.1772L24.3009 15.8622C24.5495 15.9108 24.7271 16.1291 24.7271 16.3811V22.8784C24.7271 23.1303 24.5495 23.3487 24.3009 23.3972Z" fill="#434B9F"/>
<path d="M21.2373 24.0094L24.2993 23.3991C24.548 23.3505 24.7255 23.1322 24.7255 22.8802V16.3829C24.7255 16.131 24.548 15.9126 24.2993 15.8641L20.899 15.1865C20.684 18.1841 20.5251 21.1742 20.4204 24.1606C20.6933 24.1139 20.9644 24.0654 21.2355 24.0113L21.2373 24.0094Z" fill="#2C387A"/>
<path d="M23.3043 27.4136H7.57557C7.3154 27.4136 7.10449 27.6242 7.10449 27.8839V29.3211C7.10449 29.5809 7.3154 29.7915 7.57557 29.7915H23.3043C23.5645 29.7915 23.7754 29.5809 23.7754 29.3211V27.8839C23.7754 27.6242 23.5645 27.4136 23.3043 27.4136Z" fill="#B25440"/>
<path d="M22.2432 31.2319H8.63246C8.37229 31.2319 8.16138 31.4425 8.16138 31.7023V32.8371C8.16138 33.0969 8.37229 33.3075 8.63246 33.3075H22.2432C22.5034 33.3075 22.7143 33.0969 22.7143 32.8371V31.7023C22.7143 31.4425 22.5034 31.2319 22.2432 31.2319Z" fill="#B25440"/>
<path d="M22.2432 44.5454H8.63246C8.37229 44.5454 8.16138 44.756 8.16138 45.0158V46.1506C8.16138 46.4104 8.37229 46.6209 8.63246 46.6209H22.2432C22.5034 46.6209 22.7143 46.4104 22.7143 46.1506V45.0158C22.7143 44.756 22.5034 44.5454 22.2432 44.5454Z" fill="#FCB22C"/>
<path d="M20.6955 46.6253H22.2433C22.5032 46.6253 22.7144 46.4144 22.7144 46.155V45.0202C22.7144 44.7607 22.5032 44.5498 22.2433 44.5498H20.5796C20.6151 45.2423 20.6544 45.9347 20.6955 46.6253Z" fill="#CB872A"/>
<path d="M23.3026 29.794C23.5624 29.794 23.7736 29.5831 23.7736 29.3237V27.8883C23.7736 27.6289 23.5624 27.418 23.3026 27.418H20.3303C20.3134 28.2112 20.3004 29.0045 20.291 29.7959H23.3044L23.3026 29.794Z" fill="#834042"/>
<path d="M22.717 32.8371V31.7023C22.717 31.4428 22.5058 31.2319 22.2459 31.2319H20.2794C20.2756 31.9244 20.2738 32.6169 20.2756 33.3075H22.2459C22.5058 33.3075 22.717 33.0966 22.717 32.8371Z" fill="#834042"/>
<path d="M7.49985 21.0779L6.48853 17.959H7.19327L7.88867 20.1521H7.89802L8.60277 17.959H9.31126L8.27376 21.0779H7.49985Z" fill="#434B9F"/>
<path d="M9.29776 19.5147C9.30711 19.3691 9.34262 19.2478 9.40618 19.1526C9.46974 19.0574 9.55199 18.979 9.65107 18.9212C9.75014 18.8633 9.8623 18.8223 9.98568 18.7961C10.1091 18.77 10.2343 18.7588 10.3596 18.7588C10.4736 18.7588 10.5876 18.7663 10.7054 18.7831C10.8213 18.7999 10.9278 18.8297 11.025 18.8764C11.1204 18.923 11.2008 18.9884 11.2606 19.0705C11.3223 19.1526 11.3522 19.2627 11.3522 19.4009V20.5767C11.3522 20.6794 11.3578 20.7765 11.369 20.8698C11.3802 20.9631 11.4008 21.034 11.4307 21.0788H10.8007C10.7895 21.0434 10.7802 21.0079 10.7727 20.9724C10.7652 20.937 10.7596 20.8997 10.7577 20.8605C10.6587 20.9631 10.5409 21.034 10.4082 21.0751C10.2736 21.1162 10.1371 21.1367 9.9969 21.1367C9.88848 21.1367 9.78753 21.1236 9.69406 21.0975C9.60059 21.0714 9.51834 21.0303 9.44918 20.9743C9.37814 20.9183 9.32393 20.8493 9.28467 20.7653C9.24542 20.6813 9.22485 20.5805 9.22485 20.4629C9.22485 20.3341 9.24729 20.2296 9.29215 20.1456C9.33702 20.0616 9.39497 19.9963 9.46787 19.9459C9.53891 19.8973 9.62116 19.86 9.71276 19.8339C9.80435 19.8078 9.89782 19.7891 9.99129 19.7742C10.0848 19.7592 10.1764 19.748 10.2661 19.7387C10.3558 19.7294 10.4362 19.7163 10.5072 19.6995C10.5764 19.6827 10.6325 19.6566 10.6736 19.623C10.7147 19.5894 10.7334 19.5408 10.7297 19.4774C10.7297 19.4102 10.7185 19.3579 10.696 19.3187C10.6736 19.2795 10.6456 19.2497 10.6082 19.2273C10.5708 19.2049 10.5297 19.1899 10.4811 19.1843C10.4325 19.1787 10.3801 19.1731 10.3259 19.1731C10.2025 19.1731 10.1072 19.1993 10.038 19.2515C9.96699 19.3038 9.92773 19.3915 9.91465 19.5129H9.29402L9.29776 19.5147ZM10.7334 19.9739C10.7073 19.9963 10.6736 20.0149 10.6343 20.028C10.5951 20.0411 10.5521 20.0523 10.5072 20.0597C10.4624 20.0691 10.4138 20.0765 10.3652 20.0821C10.3147 20.0877 10.2661 20.0952 10.2156 20.1045C10.1689 20.1139 10.1221 20.1251 10.0773 20.14C10.0324 20.1549 9.99316 20.1736 9.95951 20.1997C9.92586 20.224 9.89969 20.2557 9.87913 20.293C9.85857 20.3304 9.84922 20.3789 9.84922 20.4368C9.84922 20.4946 9.85857 20.5394 9.87913 20.5767C9.89969 20.6141 9.92773 20.6439 9.96138 20.6663C9.9969 20.6887 10.038 20.7037 10.0848 20.713C10.1315 20.7223 10.1801 20.7261 10.2287 20.7261C10.3521 20.7261 10.4455 20.7055 10.5128 20.6645C10.5801 20.6234 10.6287 20.5749 10.6624 20.5189C10.6942 20.4629 10.7147 20.405 10.7222 20.3472C10.7297 20.2893 10.7334 20.2426 10.7334 20.2072V19.9757V19.9739Z" fill="#434B9F"/>
<path d="M12.4114 20.5164C12.4394 20.5649 12.4749 20.6041 12.5179 20.6339C12.5609 20.6638 12.6114 20.6881 12.6694 20.7011C12.7254 20.7161 12.7853 20.7235 12.8469 20.7235C12.8899 20.7235 12.9367 20.7179 12.9853 20.7086C13.0339 20.6993 13.0769 20.6825 13.1161 20.6601C13.1554 20.6377 13.189 20.6097 13.2152 20.5724C13.2414 20.5369 13.2545 20.4902 13.2545 20.4342C13.2545 20.3409 13.1928 20.2718 13.0675 20.2252C12.9442 20.1785 12.7703 20.1319 12.5497 20.0852C12.46 20.0647 12.3703 20.0404 12.2843 20.0124C12.1983 19.9844 12.1216 19.9489 12.0543 19.9023C11.987 19.8575 11.9328 19.7996 11.8917 19.7324C11.8506 19.6634 11.83 19.5794 11.83 19.4805C11.83 19.3349 11.8581 19.2154 11.916 19.1221C11.9721 19.0288 12.0487 18.956 12.1422 18.9018C12.2357 18.8477 12.3403 18.8104 12.4581 18.788C12.574 18.7656 12.6937 18.7544 12.817 18.7544C12.9404 18.7544 13.0582 18.7656 13.1741 18.7899C13.29 18.8141 13.3928 18.8515 13.4825 18.9074C13.5723 18.9634 13.6489 19.0362 13.7087 19.1277C13.7685 19.2192 13.8041 19.3349 13.8153 19.4749H13.2246C13.2152 19.3554 13.1703 19.2751 13.0881 19.2322C13.0058 19.1893 12.9105 19.1688 12.8002 19.1688C12.7647 19.1688 12.7273 19.1706 12.6862 19.1762C12.6451 19.1818 12.6077 19.1893 12.574 19.2042C12.5404 19.2192 12.5123 19.2397 12.488 19.2677C12.4656 19.2957 12.4525 19.333 12.4525 19.3797C12.4525 19.4357 12.4731 19.4805 12.5142 19.5159C12.5553 19.5514 12.6077 19.5794 12.6731 19.6018C12.7385 19.6242 12.8133 19.6428 12.8993 19.6615C12.9834 19.6783 13.0694 19.6988 13.1573 19.7175C13.247 19.738 13.3367 19.7623 13.4227 19.7922C13.5087 19.822 13.5853 19.8594 13.6526 19.9079C13.7199 19.9564 13.7741 20.0161 13.8153 20.0871C13.8564 20.158 13.877 20.2457 13.877 20.3521C13.877 20.5014 13.8471 20.6246 13.7872 20.7254C13.7274 20.8262 13.6489 20.9065 13.5536 20.968C13.4582 21.0296 13.3479 21.0726 13.2227 21.0968C13.0993 21.1211 12.9722 21.1342 12.8432 21.1342C12.7142 21.1342 12.5834 21.1211 12.4581 21.095C12.3329 21.0688 12.2207 21.024 12.1235 20.9643C12.0263 20.9027 11.9459 20.8225 11.8824 20.7217C11.8188 20.6209 11.7851 20.4958 11.7795 20.3446H12.3703C12.3703 20.4118 12.3833 20.4697 12.4114 20.5164Z" fill="#434B9F"/>
<path d="M14.9556 20.5376C15.049 20.6271 15.1836 20.6738 15.3575 20.6738C15.4827 20.6738 15.5911 20.6421 15.6809 20.5805C15.7706 20.5189 15.8267 20.4517 15.8472 20.3808H16.395C16.3071 20.6514 16.1725 20.8455 15.993 20.9612C15.8117 21.077 15.593 21.1367 15.3369 21.1367C15.1593 21.1367 14.9985 21.1087 14.8546 21.0508C14.7125 20.9948 14.591 20.9127 14.492 20.8082C14.3929 20.7037 14.3162 20.5786 14.262 20.433C14.2078 20.2874 14.1816 20.1269 14.1816 19.9515C14.1816 19.776 14.2097 19.6248 14.2658 19.4793C14.3218 19.3337 14.4004 19.2067 14.5013 19.1022C14.6041 18.9958 14.7256 18.9118 14.8677 18.8502C15.0098 18.7887 15.1668 18.7588 15.3388 18.7588C15.5313 18.7588 15.6996 18.7961 15.8416 18.8708C15.9837 18.9454 16.1015 19.0444 16.1931 19.1694C16.2847 19.2945 16.352 19.4382 16.3931 19.5968C16.4342 19.7574 16.4492 19.9253 16.4361 20.0989H14.8041C14.8135 20.3005 14.864 20.4461 14.9574 20.5357L14.9556 20.5376ZM15.6584 19.3486C15.5837 19.2665 15.4715 19.2254 15.3201 19.2254C15.221 19.2254 15.1388 19.2422 15.0733 19.2758C15.0079 19.3094 14.9556 19.3505 14.9163 19.4009C14.877 19.4513 14.849 19.5035 14.8322 19.5576C14.8154 19.6136 14.806 19.6622 14.8041 19.707H15.8155C15.7855 19.5502 15.7351 19.4307 15.6603 19.3486H15.6584Z" fill="#434B9F"/>
<path d="M17.4954 17.959V21.0779H16.8748V17.959H17.4954Z" fill="#434B9F"/>
<path d="M18.0542 18.4704V17.959H18.6748V18.4704H18.0542ZM18.6748 18.8194V21.0779H18.0542V18.8194H18.6748Z" fill="#434B9F"/>
<path d="M22.5305 20.5376C22.624 20.6271 22.7586 20.6738 22.9324 20.6738C23.0577 20.6738 23.1661 20.6421 23.2558 20.5805C23.3455 20.5189 23.4016 20.4517 23.4222 20.3808H23.9699C23.8821 20.6514 23.7475 20.8455 23.568 20.9612C23.3867 21.077 23.168 21.1367 22.9119 21.1367C22.7343 21.1367 22.5735 21.1087 22.4296 21.0508C22.2875 20.9948 22.166 20.9127 22.0669 20.8082C21.9678 20.7037 21.8912 20.5786 21.837 20.433C21.7828 20.2874 21.7566 20.1269 21.7566 19.9515C21.7566 19.776 21.7846 19.6248 21.8407 19.4793C21.8968 19.3337 21.9753 19.2067 22.0763 19.1022C22.1791 18.9958 22.3006 18.9118 22.4426 18.8502C22.5847 18.7887 22.7417 18.7588 22.9137 18.7588C23.1063 18.7588 23.2745 18.7961 23.4166 18.8708C23.5587 18.9454 23.6764 19.0444 23.768 19.1694C23.8596 19.2945 23.9269 19.4382 23.968 19.5968C24.0092 19.7574 24.0241 19.9253 24.011 20.0989H22.3791C22.3884 20.3005 22.4389 20.4461 22.5324 20.5357L22.5305 20.5376ZM23.2334 19.3486C23.1586 19.2665 23.0464 19.2254 22.895 19.2254C22.796 19.2254 22.7137 19.2422 22.6483 19.2758C22.5828 19.3094 22.5305 19.3505 22.4912 19.4009C22.452 19.4513 22.424 19.5035 22.4071 19.5576C22.3903 19.6136 22.381 19.6622 22.3791 19.707H23.3904C23.3605 19.5502 23.31 19.4307 23.2353 19.3486H23.2334Z" fill="#2C387A"/>
<path d="M3.32598 62.1652C5.73746 41.9997 5.80101 21.9312 3.35029 1.96541C3.2213 0.920178 4.04195 0 5.09627 0H1.7819C0.727577 0 -0.0930706 0.920178 0.0359151 1.96541C2.48664 21.9331 2.42308 42.0016 0.0116135 62.1652C-0.104287 63.1414 0.66215 64 1.6473 64H4.96167C3.97652 64 3.20821 63.1414 3.32598 62.1652Z" fill="#F9A164"/>
<path d="M0.318351 4.37318C0.338914 4.55796 0.359477 4.74274 0.38004 4.92939C0.464161 5.69092 0.544544 6.45431 0.621187 7.21771C0.624926 7.24944 0.628665 7.28117 0.630534 7.31476C0.718394 8.19015 0.800645 9.06553 0.879158 9.94278C0.879158 9.95398 0.881028 9.96704 0.882897 9.97824C0.96141 10.8574 1.03432 11.7383 1.10348 12.6193C2.19519 12.4009 3.28315 12.205 4.36925 12.0314C4.09819 8.67357 3.75984 5.31949 3.34858 1.96914C3.22146 0.920178 4.04211 0 5.09643 0H1.78206C0.727741 0 -0.0929075 0.920178 0.0360782 1.96541C0.135154 2.768 0.226753 3.57059 0.318351 4.37131V4.37318Z" fill="#B25440"/>
<path d="M8.84082 2.75877C12.9478 6.72133 17.3277 6.99383 22.0441 2.71958C17.7053 2.4956 13.3011 2.51613 8.84082 2.75877Z" fill="#5B313E"/>
<path d="M0.192787 3.31014C0.207742 3.43333 0.222697 3.55652 0.235783 3.68158C10.9622 2.45529 21.1352 2.45343 30.4951 3.67598C30.51 3.55279 30.525 3.4296 30.5381 3.30454C21.1483 2.07826 10.9472 2.08013 0.190918 3.31014H0.192787Z" fill="#B25440"/>
<path d="M0.192787 3.31014C0.207742 3.43333 0.222697 3.55652 0.235783 3.68158C10.9622 2.45529 21.1352 2.45343 30.4951 3.67598C30.51 3.55279 30.525 3.4296 30.5381 3.30454C21.1483 2.07826 10.9472 2.08013 0.190918 3.31014H0.192787Z" fill="#B25440"/>
<path d="M22.075 2.92124C24.9463 3.06869 27.7559 3.3188 30.4964 3.67716C30.5114 3.55398 30.5263 3.43079 30.5394 3.30573C27.8008 2.94737 24.9893 2.69726 22.1198 2.5498C22.1049 2.67299 22.0899 2.79805 22.075 2.92124Z" fill="#834042"/>
<path d="M3.46823 2.97266C2.38213 3.07345 1.2923 3.1817 0.193115 3.30676C0.20807 3.42995 0.223025 3.55313 0.23611 3.67819C1.33342 3.55313 2.42513 3.44301 3.51123 3.34409C3.49627 3.2209 3.48319 3.09584 3.46823 2.97266Z" fill="#DB7D4A"/>
<path d="M4.72014 2.19332C5.1393 2.19332 5.4791 1.85405 5.4791 1.43553C5.4791 1.01701 5.1393 0.677734 4.72014 0.677734C4.30098 0.677734 3.96118 1.01701 3.96118 1.43553C3.96118 1.85405 4.30098 2.19332 4.72014 2.19332Z" fill="#B25440"/>
<path d="M13.7588 41.4008C15.1846 41.4008 16.3404 40.2468 16.3404 38.8232C16.3404 37.3996 15.1846 36.2456 13.7588 36.2456C12.3331 36.2456 11.1772 37.3996 11.1772 38.8232C11.1772 40.2468 12.3331 41.4008 13.7588 41.4008Z" fill="#FCB22C"/>
<path d="M18.1673 41.2721C18.792 41.2721 19.2983 40.7666 19.2983 40.1429C19.2983 39.5192 18.792 39.0137 18.1673 39.0137C17.5427 39.0137 17.0364 39.5192 17.0364 40.1429C17.0364 40.7666 17.5427 41.2721 18.1673 41.2721Z" fill="#E8AC4A"/>
<path d="M4.4607 4.53695L4.64576 6.30451C4.67567 6.59195 5.02711 6.71327 5.229 6.50423L7.13575 4.52948C7.35446 4.30177 7.17127 3.92474 6.85721 3.95647L4.7654 4.16365C4.57847 4.18232 4.442 4.34843 4.4607 4.53695Z" fill="#B25440"/>
<path d="M38.2536 9.26367H40.652C41.2875 9.26367 41.8035 9.77882 41.8035 10.4134V15.3708H37.1021V10.4134C37.1021 9.77882 37.618 9.26367 38.2536 9.26367Z" fill="#71AB42"/>
<path d="M35.8241 13.25H43.0828C43.7184 13.25 44.2344 13.7652 44.2344 14.3998V19.4374H34.6726V14.3998C34.6726 13.7652 35.1886 13.25 35.8241 13.25Z" fill="#4D8E49"/>
<path d="M34.8258 15.5591H44.0753C44.9913 15.5591 45.7353 16.3019 45.7353 17.2165V23.6932H33.1658V17.2165C33.1658 16.3019 33.9098 15.5591 34.8258 15.5591Z" fill="#71AB42"/>
<path d="M45.7353 19.418H33.1658V23.6904H45.7353V19.418Z" fill="#4D8E49"/>
<path d="M53.9871 46.9349C53.3572 43.4353 53.3572 39.8497 53.9871 36.3501L55.7799 26.3942C56.2696 23.6748 54.3105 21.1662 51.6205 20.9105C51.5476 20.903 51.4766 20.8974 51.4018 20.8937C51.3252 20.89 51.2467 20.8862 51.17 20.8862H27.7357C26.0458 20.8862 24.5971 21.7709 23.7727 23.07H46.1807C47.9304 23.07 49.2969 24.6341 48.9997 26.355C48.9978 26.3662 48.996 26.3793 48.9941 26.3905L47.2014 36.3463C46.5714 39.846 46.5714 43.4315 47.2014 46.9312L48.9941 56.887C49.51 59.7558 47.3023 62.3932 44.3824 62.3932H51.1681C54.0881 62.3932 56.2958 59.7558 55.7799 56.887L53.9871 46.9312V46.9349Z" fill="#B7AFD1"/>
<path d="M53.9871 46.9349C53.3572 43.4353 53.3572 39.8497 53.9871 36.3501L55.7799 26.3942C56.2696 23.6748 54.3105 21.1662 51.6205 20.9105C51.5476 20.903 51.4766 20.8974 51.4018 20.8937C51.3252 20.89 51.2467 20.8862 51.17 20.8862H27.7357C26.0458 20.8862 24.5971 21.7709 23.7727 23.07H46.1807C47.9304 23.07 49.2969 24.6341 48.9997 26.355C48.9978 26.3662 48.996 26.3793 48.9941 26.3905L47.2014 36.3463C46.5714 39.846 46.5714 43.4315 47.2014 46.9312L48.9941 56.887C49.51 59.7558 47.3023 62.3932 44.3824 62.3932H51.1681C54.0881 62.3932 56.2958 59.7558 55.7799 56.887L53.9871 46.9312V46.9349Z" fill="#B7AFD1"/>
<path d="M41.105 17.3143C41.105 16.9927 40.8438 16.7319 40.5217 16.7319C40.1996 16.7319 39.9385 16.9927 39.9385 17.3143V21.5232C39.9385 21.8448 40.1996 22.1056 40.5217 22.1056C40.8438 22.1056 41.105 21.8448 41.105 21.5232V17.3143Z" fill="#4D8E49"/>
<path d="M38.8596 17.3143C38.8596 16.9927 38.5985 16.7319 38.2764 16.7319C37.9542 16.7319 37.6931 16.9927 37.6931 17.3143V21.5232C37.6931 21.8448 37.9542 22.1056 38.2764 22.1056C38.5985 22.1056 38.8596 21.8448 38.8596 21.5232V17.3143Z" fill="#4D8E49"/>
<path d="M36.614 17.3143C36.614 16.9927 36.3529 16.7319 36.0308 16.7319C35.7086 16.7319 35.4475 16.9927 35.4475 17.3143V21.5232C35.4475 21.8448 35.7086 22.1056 36.0308 22.1056C36.3529 22.1056 36.614 21.8448 36.614 21.5232V17.3143Z" fill="#4D8E49"/>
<path d="M45.7373 20.7598V16.7319H42.8734C42.4454 16.7319 42.0977 17.1314 42.0977 17.6241V22.1056H44.5671C45.2139 22.1056 45.7373 21.5027 45.7373 20.7598Z" fill="#4D8E49"/>
<path d="M34.394 17.5678C34.7523 17.5678 35.0427 17.2778 35.0427 16.9201C35.0427 16.5624 34.7523 16.2725 34.394 16.2725C34.0358 16.2725 33.7454 16.5624 33.7454 16.9201C33.7454 17.2778 34.0358 17.5678 34.394 17.5678Z" fill="#D7E484"/>
<path d="M51.1687 62.395H27.7344C24.8145 62.395 22.6068 59.7577 23.1227 56.8889L24.9154 46.9331C25.5454 43.4334 25.5454 39.8479 24.9154 36.3482L23.1227 26.3924C22.6068 23.5236 24.8145 20.8862 27.7344 20.8862H51.1687C54.0886 20.8862 56.2963 23.5236 55.7804 26.3924L53.9877 36.3482C53.3577 39.8479 53.3577 43.4334 53.9877 46.9331L55.7804 56.8889C56.2963 59.7577 54.0886 62.395 51.1687 62.395Z" fill="#E1DBED"/>
<path d="M51.1687 62.395H27.7344C24.8145 62.395 22.6068 59.7577 23.1227 56.8889L24.9154 46.9331C25.5454 43.4334 25.5454 39.8479 24.9154 36.3482L23.1227 26.3924C22.6068 23.5236 24.8145 20.8862 27.7344 20.8862H51.1687C54.0886 20.8862 56.2963 23.5236 55.7804 26.3924L53.9877 36.3482C53.3577 39.8479 53.3577 43.4334 53.9877 46.9331L55.7804 56.8889C56.2963 59.7577 54.0886 62.395 51.1687 62.395Z" fill="#E1DBED"/>
<path d="M48.5593 57.7729H30.3443C28.0749 57.7729 26.3588 55.7235 26.7608 53.493L28.1553 45.7546C28.6451 43.0332 28.6451 40.2484 28.1553 37.5271L26.7608 29.7886C26.3588 27.5582 28.0749 25.5088 30.3443 25.5088H48.5593C50.8287 25.5088 52.5448 27.5582 52.1429 29.7886L50.7484 37.5271C50.2586 40.2484 50.2586 43.0332 50.7484 45.7546L52.1429 53.493C52.5448 55.7235 50.8287 57.7729 48.5593 57.7729Z" fill="white"/>
<path d="M50.7509 45.7546C50.2611 43.0332 50.2611 40.2484 50.7509 37.5271L52.1454 29.7886C52.5473 27.5582 50.8313 25.5088 48.5619 25.5088H39.4543V57.7729H48.5619C50.8313 57.7729 52.5473 55.7235 52.1454 53.493L50.7509 45.7546Z" fill="#71AB42"/>
<path d="M39.4513 48.4115C44.4327 48.4115 48.4709 44.3795 48.4709 39.4057C48.4709 34.4319 44.4327 30.3999 39.4513 30.3999C34.4699 30.3999 30.4316 34.4319 30.4316 39.4057C30.4316 44.3795 34.4699 48.4115 39.4513 48.4115Z" fill="white"/>
<path d="M39.4505 47.3726C43.8579 47.3726 47.4308 43.8052 47.4308 39.4046C47.4308 35.0039 43.8579 31.4365 39.4505 31.4365C35.0431 31.4365 31.4702 35.0039 31.4702 39.4046C31.4702 43.8052 35.0431 47.3726 39.4505 47.3726Z" fill="#71AB42"/>
<path d="M53.9888 46.9331C53.3588 43.4334 53.3588 39.8479 53.9888 36.3482L55.7815 26.3924C56.2975 23.5236 54.0897 20.8862 51.1698 20.8862H44.384C47.304 20.8862 49.5117 23.5236 48.9957 26.3924L47.203 36.3482C46.5731 39.8479 46.5731 43.4334 47.203 46.9331L48.9957 56.8889C49.5117 59.7577 47.304 62.395 44.384 62.395H51.1698C54.0897 62.395 56.2975 59.7577 55.7815 56.8889L53.9888 46.9331Z" fill="#E1DBED"/>
<path d="M53.9888 46.9331C53.3588 43.4334 53.3588 39.8479 53.9888 36.3482L55.7815 26.3924C56.2975 23.5236 54.0897 20.8862 51.1698 20.8862H44.384C47.304 20.8862 49.5117 23.5236 48.9957 26.3924L47.203 36.3482C46.5731 39.8479 46.5731 43.4334 47.203 46.9331L48.9957 56.8889C49.5117 59.7577 47.304 62.395 44.384 62.395H51.1698C54.0897 62.395 56.2975 59.7577 55.7815 56.8889L53.9888 46.9331Z" fill="#E1DBED"/>
<path d="M53.9871 46.9349C53.3572 43.4353 53.3572 39.8497 53.9871 36.3501L55.7799 26.3942C56.2696 23.6748 54.3105 21.1662 51.6205 20.9105C51.5476 20.903 51.4766 20.8974 51.4018 20.8937C51.3252 20.89 51.2467 20.8862 51.17 20.8862H27.7357C26.0458 20.8862 24.5971 21.7709 23.7727 23.07H46.1807C47.9304 23.07 49.2969 24.6341 48.9997 26.355C48.9978 26.3662 48.996 26.3793 48.9941 26.3905L47.2014 36.3463C46.5714 39.846 46.5714 43.4315 47.2014 46.9312L48.9941 56.887C49.51 59.7558 47.3023 62.3932 44.3824 62.3932H51.1681C54.0881 62.3932 56.2958 59.7558 55.7799 56.887L53.9871 46.9312V46.9349Z" fill="#B7AFD1"/>
<path d="M52.1421 53.4923L50.7476 45.7539C50.2578 43.0325 50.2578 40.2477 50.7476 37.5264L52.1421 29.7879C52.5141 27.7292 51.0766 25.8235 49.067 25.5454C49.067 25.8235 49.0446 26.1072 48.9922 26.3928L47.1995 36.3486C46.5696 39.8483 46.5696 43.4338 47.1995 46.9335L48.9922 56.8893C49.0446 57.1749 49.067 57.4586 49.067 57.7367C51.0766 57.4568 52.5122 55.5529 52.1421 53.4942V53.4923Z" fill="#4D8E49"/>
<path d="M47.4123 35.1729L47.201 36.3487C46.715 39.0514 46.6047 41.8026 46.8701 44.5277C47.8796 43.0737 48.4722 41.3099 48.4722 39.406C48.4722 37.8755 48.089 36.4346 47.4141 35.1729H47.4123Z" fill="#B7AFD1"/>
<path d="M47.0829 37.0684C46.7969 38.9124 46.6866 40.7771 46.7483 42.638C47.1876 41.6506 47.4343 40.5587 47.4343 39.4089C47.4343 38.5951 47.3109 37.8094 47.0847 37.0684H47.0829Z" fill="#4D8E49"/>
<path d="M34.1581 28.5741H32.7355V27.1537C32.7355 26.9615 32.5785 26.8047 32.3859 26.8047H31.0307C30.8381 26.8047 30.6811 26.9615 30.6811 27.1537V28.5741H29.2585C29.066 28.5741 28.9089 28.7309 28.9089 28.9232V30.2764C28.9089 30.4686 29.066 30.6254 29.2585 30.6254H30.6811V32.0458C30.6811 32.238 30.8381 32.3948 31.0307 32.3948H32.3859C32.5785 32.3948 32.7355 32.238 32.7355 32.0458V30.6254H34.1581C34.3506 30.6254 34.5077 30.4686 34.5077 30.2764V28.9232C34.5077 28.7309 34.3506 28.5741 34.1581 28.5741Z" fill="#71AB42"/>
<path d="M25.2557 56.8889L27.0484 46.9331C27.6783 43.4334 27.6783 39.8479 27.0484 36.3482L25.2557 26.3924C24.7397 23.5236 26.9474 20.8862 29.8674 20.8862H27.7344C24.8145 20.8862 22.6068 23.5236 23.1227 26.3924L24.9154 36.3482C25.5454 39.8479 25.5454 43.4334 24.9154 46.9331L23.1227 56.8889C22.6068 59.7577 24.8145 62.395 27.7344 62.395H29.8674C26.9474 62.395 24.7397 59.7577 25.2557 56.8889Z" fill="#EFEDF3"/>
<path d="M27.3463 20.9068C27.2809 20.9124 27.2136 20.918 27.1482 20.9254C27.1127 20.9292 27.0772 20.9348 27.0435 20.9404C26.9818 20.9497 26.922 20.959 26.8622 20.9702C26.8267 20.9758 26.793 20.9833 26.7575 20.9908C26.6958 21.0038 26.636 21.0169 26.5762 21.0337C26.5444 21.0411 26.5126 21.0505 26.4808 21.0579C26.4154 21.0766 26.35 21.0953 26.2845 21.1177C26.2602 21.1251 26.2359 21.1326 26.2135 21.1401C26.0322 21.2017 25.8565 21.2745 25.6864 21.3566C25.6864 21.3566 25.6826 21.3566 25.6807 21.3585C25.5985 21.3995 25.5181 21.4406 25.4377 21.4854C25.4246 21.4928 25.4134 21.5003 25.4003 21.5078C25.3312 21.547 25.262 21.5899 25.1966 21.6328C25.1835 21.6422 25.1704 21.6496 25.1555 21.659C25.0882 21.7038 25.0227 21.7485 24.9573 21.7971C24.948 21.8045 24.9367 21.812 24.9274 21.8195C24.8564 21.8736 24.7853 21.9277 24.718 21.9856C24.718 21.9856 24.7143 21.9893 24.7124 21.9893C24.346 22.2992 24.0282 22.665 23.7703 23.07H25.9032C26.7257 21.7691 28.1763 20.8862 29.8662 20.8862H27.7333C27.6342 20.8862 27.5352 20.89 27.4379 20.8956C27.4062 20.8974 27.3763 20.9012 27.3445 20.903L27.3463 20.9068Z" fill="#C1BCD7"/>
<path d="M40.652 9.26367H38.2536C37.618 9.26367 37.1021 9.77882 37.1021 10.4134V12.4759C37.7732 12.5524 38.4573 12.53 39.106 12.3564C39.6593 12.209 40.151 11.8768 40.6613 11.6285C41.0389 11.4456 41.4203 11.2683 41.8035 11.0966V10.4134C41.8035 9.77882 41.2875 9.26367 40.652 9.26367Z" fill="#4D8E49"/>
<path d="M39.1038 12.3564C39.2066 12.3284 39.3057 12.2948 39.4029 12.2557V10.4134C39.4029 9.77882 38.887 9.26367 38.2514 9.26367C37.8943 9.26367 37.5747 9.42606 37.3634 9.68177C37.326 9.72656 37.2924 9.77696 37.2625 9.82735C37.2457 9.85722 37.2288 9.88521 37.2139 9.91694C37.141 10.0681 37.0999 10.2342 37.0999 10.4134V12.4759C37.771 12.5524 38.4551 12.53 39.1038 12.3564Z" fill="#4D8E49"/>
<path d="M51.1948 8.1239L50.7069 9.79067C50.7069 9.79067 46.9196 8.69318 45.0072 8.95635C44.0015 9.09447 43.0238 9.51817 42.1004 9.91946C41.6162 10.1304 41.1358 10.3525 40.661 10.5839C40.1506 10.8322 39.6571 11.1644 39.1057 11.3119C38.0532 11.5937 36.9073 11.4798 35.8717 11.1831C34.651 10.8322 33.535 10.2013 32.3143 9.83734C32.2021 9.80374 32.1554 9.67308 32.2208 9.57603C32.8844 8.59985 36.6232 4.52158 51.1967 8.12203L51.1948 8.1239Z" fill="#71AB42"/>
<path d="M35.9838 8.93212C35.709 9.07771 35.7015 9.47341 35.967 9.63392C36.4306 9.9139 37.1447 10.2349 37.8588 10.1304C38.7037 10.0072 40.3058 9.33342 41.1844 8.94332C41.3919 8.85187 41.3563 8.54949 41.1339 8.5047C40.0216 8.28445 37.741 8.00448 35.9838 8.93212Z" fill="#94C464"/>
</g>
<defs>
<clipPath id="clip0_254_11895">
<rect width="55.8545" height="64" fill="white"/>
</clipPath>
</defs>
</svg>
