<svg width="32" height="55" viewBox="0 0 32 55" fill="none" xmlns="http://www.w3.org/2000/svg">
<g filter="url(#filter0_d_251_8490)">
<path d="M11.4582 44.0424C11.2767 43.8775 11.2508 43.5623 11.3852 43.3396C11.4818 43.2153 13.245 40.15 15.9105 39.7078C16.4243 39.6442 16.8792 39.6067 17.3175 39.7398C16.5493 38.9357 15.8187 38.0333 15.1471 37.1049C14.9326 37.2813 14.4236 37.5878 13.8343 37.848C12.8327 38.2903 11.4139 38.6719 9.99747 38.1541C7.40507 37.2572 5.95356 33.8965 5.91115 33.7519C5.84753 33.535 5.88055 33.1938 6.05732 33.1157C6.17516 33.0637 8.79135 31.0916 11.3625 31.9162C11.8009 32.0492 12.2816 32.3269 12.6234 32.5844C12.3524 31.8874 12.0814 31.1903 11.8481 30.395L11.5513 29.3828C10.8607 29.5244 8.2706 29.7699 6.41359 27.9766C4.295 25.9722 3.9842 22.1894 4.00071 22.0188C3.99602 21.7759 4.13037 21.5532 4.30714 21.4751C4.42498 21.4231 7.50299 20.7988 9.62158 22.8032C10.0057 23.2052 10.3309 23.6333 10.5972 24.0874C10.536 22.9711 10.5125 21.7564 10.5904 20.6603C9.93287 20.4607 7.45831 19.5118 6.26126 17.0188C4.89926 14.1902 5.8187 10.5175 5.85642 10.4191C5.91064 10.1502 6.14633 10.0461 6.3443 10.0403C6.48335 10.0606 9.53061 10.9199 10.8337 13.7745C11.0622 14.3269 11.2696 14.807 11.3803 15.4114C11.6939 14.2113 12.0074 13.0111 12.4812 11.9035C11.9156 11.3366 9.99502 9.32646 9.703 6.51539C9.34267 3.24447 11.3462 0.318001 11.4428 0.193656C11.5772 -0.0290132 11.834 -0.0607952 12.0155 0.104072C12.1168 0.222657 14.6149 2.38619 14.9752 5.6571C15.173 7.6931 14.4776 9.63356 13.9449 10.7672C13.9449 10.7672 13.886 10.7932 13.9072 10.8655C11.1304 16.8285 10.6726 23.8907 12.6943 30.103C15.0976 37.6168 20.7275 42.9706 27.4231 44.0154C27.6422 44.082 27.786 44.3451 27.7907 44.5881C27.7742 44.7587 27.6987 44.9553 27.522 45.0334C27.4631 45.0594 27.4041 45.0855 27.324 45.0392C25.078 44.6427 22.9829 43.8529 21.0386 42.6698C20.6733 43.2395 19.4594 45.0006 17.6918 45.7812C17.3382 45.9374 17.0224 45.9952 16.6477 46.079C13.9821 46.5211 11.5595 44.161 11.4582 44.0424Z" fill="#45A081"/>
</g>
<defs>
<filter id="filter0_d_251_8490" x="0" y="0" width="31.7908" height="54.1341" filterUnits="userSpaceOnUse" color-interpolation-filters="sRGB">
<feFlood flood-opacity="0" result="BackgroundImageFix"/>
<feColorMatrix in="SourceAlpha" type="matrix" values="0 0 0 0 0 0 0 0 0 0 0 0 0 0 0 0 0 0 127 0" result="hardAlpha"/>
<feOffset dy="4"/>
<feGaussianBlur stdDeviation="2"/>
<feComposite in2="hardAlpha" operator="out"/>
<feColorMatrix type="matrix" values="0 0 0 0 0 0 0 0 0 0 0 0 0 0 0 0 0 0 0.1 0"/>
<feBlend mode="normal" in2="BackgroundImageFix" result="effect1_dropShadow_251_8490"/>
<feBlend mode="normal" in="SourceGraphic" in2="effect1_dropShadow_251_8490" result="shape"/>
</filter>
</defs>
</svg>
