<svg width="43" height="12" viewBox="0 0 43 12" fill="none" xmlns="http://www.w3.org/2000/svg">
<path d="M5.99324 11.7858C4.83816 11.7858 3.90176 10.8819 3.90176 9.76688L3.90176 4.35886L8.08472 4.35886L8.08472 9.76688C8.08472 10.8819 7.14832 11.7858 5.99324 11.7858Z" fill="#EFD06C"/>
<path d="M11.334 6.42526V6.49627C11.334 7.63045 10.3817 8.5497 9.20672 8.5497H3.8985V4.37183H9.20672C10.3817 4.37183 11.334 5.29107 11.334 6.42526Z" fill="#EFD06C"/>
<path d="M6.01042 1.11914C7.16551 1.11914 8.1019 2.02304 8.1019 3.13803V8.54604H3.91895V3.13803C3.91895 2.02304 4.85733 1.11914 6.01042 1.11914Z" fill="#F5B326"/>
<path d="M0.666992 6.49283V6.42183C0.666992 5.28764 1.61929 4.36839 2.79426 4.36839H8.10247V8.54626H2.79426C1.61929 8.54626 0.666992 7.62702 0.666992 6.49283Z" fill="#F5B326"/>
<path d="M14.6055 10V2H17.9102C18.5091 2 19.026 2.11719 19.4609 2.35156C19.8984 2.58333 20.2357 2.90755 20.4727 3.32422C20.7096 3.73828 20.8281 4.22005 20.8281 4.76953C20.8281 5.32161 20.707 5.80469 20.4648 6.21875C20.2253 6.63021 19.8828 6.94922 19.4375 7.17578C18.9922 7.40234 18.4635 7.51562 17.8516 7.51562H15.8125V5.99219H17.4922C17.7839 5.99219 18.0273 5.94141 18.2227 5.83984C18.4206 5.73828 18.5703 5.59635 18.6719 5.41406C18.7734 5.22917 18.8242 5.01432 18.8242 4.76953C18.8242 4.52213 18.7734 4.30859 18.6719 4.12891C18.5703 3.94661 18.4206 3.80599 18.2227 3.70703C18.0247 3.60807 17.7813 3.55859 17.4922 3.55859H16.5391V10H14.6055ZM21.7813 10V2H23.7148V8.42969H27.043V10H21.7813ZM32.8838 2H34.8135V7.16016C34.8135 7.75651 34.6715 8.27604 34.3877 8.71875C34.1038 9.15885 33.708 9.5 33.2002 9.74219C32.6924 9.98177 32.1025 10.1016 31.4307 10.1016C30.751 10.1016 30.1572 9.98177 29.6494 9.74219C29.1416 9.5 28.7471 9.15885 28.4658 8.71875C28.1846 8.27604 28.0439 7.75651 28.0439 7.16016V2H29.9775V6.99219C29.9775 7.26823 30.0374 7.51432 30.1572 7.73047C30.2796 7.94661 30.4502 8.11589 30.6689 8.23828C30.8877 8.36068 31.1416 8.42188 31.4307 8.42188C31.7197 8.42188 31.9723 8.36068 32.1885 8.23828C32.4072 8.11589 32.5778 7.94661 32.7002 7.73047C32.8226 7.51432 32.8838 7.26823 32.8838 6.99219V2ZM40.3496 4.39844C40.3236 4.11198 40.2077 3.88932 40.002 3.73047C39.7988 3.56901 39.5085 3.48828 39.1309 3.48828C38.8809 3.48828 38.6725 3.52083 38.5059 3.58594C38.3392 3.65104 38.2142 3.74089 38.1309 3.85547C38.0475 3.96745 38.0046 4.09635 38.002 4.24219C37.9967 4.36198 38.0202 4.46745 38.0723 4.55859C38.127 4.64974 38.2051 4.73047 38.3066 4.80078C38.4108 4.86849 38.5358 4.92839 38.6816 4.98047C38.8275 5.03255 38.9915 5.07812 39.1738 5.11719L39.8613 5.27344C40.2572 5.35938 40.6061 5.47396 40.9082 5.61719C41.2129 5.76042 41.4681 5.93099 41.6738 6.12891C41.8822 6.32682 42.0397 6.55469 42.1465 6.8125C42.2533 7.07031 42.3079 7.35937 42.3105 7.67969C42.3079 8.1849 42.1803 8.61849 41.9277 8.98047C41.6751 9.34245 41.3118 9.61979 40.8379 9.8125C40.3665 10.0052 39.7975 10.1016 39.1309 10.1016C38.4616 10.1016 37.8783 10.0013 37.3809 9.80078C36.8835 9.60026 36.4967 9.29557 36.2207 8.88672C35.9447 8.47786 35.8027 7.96094 35.7949 7.33594H37.6465C37.6621 7.59375 37.7311 7.80859 37.8535 7.98047C37.9759 8.15234 38.1439 8.28255 38.3574 8.37109C38.5736 8.45964 38.8236 8.50391 39.1074 8.50391C39.3678 8.50391 39.5892 8.46875 39.7715 8.39844C39.9564 8.32813 40.0983 8.23047 40.1973 8.10547C40.2962 7.98047 40.347 7.83724 40.3496 7.67578C40.347 7.52474 40.3001 7.39583 40.209 7.28906C40.1178 7.17969 39.9772 7.08594 39.7871 7.00781C39.5996 6.92708 39.36 6.85286 39.0684 6.78516L38.2324 6.58984C37.5397 6.43099 36.9941 6.17448 36.5957 5.82031C36.1973 5.46354 35.9993 4.98177 36.002 4.375C35.9993 3.88021 36.1322 3.44661 36.4004 3.07422C36.6686 2.70182 37.0397 2.41146 37.5137 2.20313C37.9876 1.99479 38.528 1.89062 39.1348 1.89062C39.7546 1.89062 40.2923 1.99609 40.748 2.20703C41.2064 2.41536 41.5618 2.70833 41.8145 3.08594C42.0671 3.46354 42.196 3.90104 42.2012 4.39844H40.3496Z" fill="#8678DE"/>
</svg>
