<svg width="78" height="70" viewBox="0 0 78 70" fill="none" xmlns="http://www.w3.org/2000/svg">
<path d="M39.0061 57.5715C54.4464 57.5715 66.9629 45.0354 66.9629 29.5715C66.9629 14.1077 54.4464 1.57153 39.0061 1.57153C23.5663 1.57153 11.0493 14.1077 11.0493 29.5715C11.0493 45.0354 23.5663 57.5715 39.0061 57.5715Z" fill="#EAEEF9"/>
<path d="M12.0428 13.1695C12.7816 12.9288 13.1859 12.1345 12.9457 11.3947C12.7055 10.6549 11.9122 10.2502 11.1734 10.4904C10.435 10.7311 10.0308 11.5254 10.271 12.2652C10.5112 13.005 11.3045 13.4098 12.0428 13.1695Z" fill="#EAEEF9"/>
<path d="M15.1138 8.57499C15.6163 8.41141 15.8909 7.87106 15.7278 7.36804C15.5647 6.86502 15.0249 6.58994 14.5228 6.75351C14.0208 6.9166 13.7457 7.45695 13.9088 7.95997C14.0724 8.46299 14.6118 8.73857 15.1138 8.57499Z" fill="#EAEEF9"/>
<path d="M67.2071 14.0643C68.0785 13.2665 68.1394 11.9122 67.3426 11.0398C66.5463 10.1669 65.1945 10.106 64.3231 10.9032C63.4516 11.701 63.3907 13.0553 64.187 13.9282C64.9833 14.8006 66.3356 14.8616 67.2071 14.0643Z" fill="#EAEEF9"/>
<path d="M65.7479 44.6361C66.1148 44.3006 66.1404 43.7303 65.8053 43.3628C65.4698 42.9954 64.9005 42.9699 64.5335 43.3054C64.1666 43.6414 64.1411 44.2117 64.4766 44.5791C64.8116 44.9466 65.3809 44.9721 65.7479 44.6361Z" fill="#EAEEF9"/>
<g filter="url(#filter0_d_252_9109)">
<path d="M66.682 25.9097L57.2882 50.642C56.9507 51.4874 55.9943 51.8819 55.2069 51.5434L31.3003 42.1349C30.4563 41.797 30.0629 40.8396 30.4003 40.0506L42.8319 8.38854C43.1693 7.54362 44.1257 7.14917 44.9132 7.48713L62.2383 14.3044L66.682 25.9097Z" fill="white"/>
</g>
<path d="M55.8805 41.2901L41.5367 35.6562C41.3117 35.6002 41.2557 35.3747 41.3117 35.1492C41.3682 34.9237 41.5932 34.8677 41.8181 34.9237L56.162 40.5576C56.387 40.6141 56.443 40.8396 56.387 41.0646C56.2745 41.2336 56.0495 41.3465 55.8805 41.2901Z" fill="#E3EAF2"/>
<path d="M39.7361 34.9242L37.2048 33.9103C36.9799 33.8538 36.9234 33.6288 36.9799 33.4033C37.0359 33.1779 37.2608 33.1214 37.4858 33.1779L40.0171 34.1917C40.2421 34.2482 40.2986 34.4737 40.2421 34.6992C40.1861 34.9242 39.9611 34.9807 39.7361 34.9242Z" fill="#E3EAF2"/>
<path d="M57.3442 37.4025L50.9312 34.8673C50.7062 34.8108 50.6502 34.5853 50.7062 34.3599C50.7627 34.1349 50.9877 34.0784 51.2127 34.1349L57.6252 36.6701C57.8502 36.7261 57.9066 36.9516 57.8502 37.1771C57.7942 37.4025 57.5692 37.4585 57.3442 37.4025Z" fill="#E3EAF2"/>
<path d="M48.2299 33.797L38.8921 30.1349C38.6672 30.0784 38.6112 29.8529 38.6672 29.6279C38.7236 29.4025 38.9486 29.346 39.1736 29.4025L48.5109 33.0646C48.7359 33.1206 48.7924 33.346 48.7364 33.5715C48.6799 33.797 48.4549 33.853 48.2299 33.797Z" fill="#E3EAF2"/>
<path d="M58.9765 33.5711L56.5017 32.6132C56.2767 32.5567 56.2202 32.3317 56.2767 32.1062C56.3327 31.8808 56.5577 31.8248 56.7832 31.8808L59.258 32.8387C59.483 32.8952 59.5395 33.1201 59.483 33.3456C59.427 33.5711 59.2015 33.6276 58.9765 33.5711Z" fill="#E3EAF2"/>
<path d="M54.1941 31.6564L40.5252 26.248C40.3002 26.192 40.2437 25.9665 40.3002 25.741C40.3562 25.5155 40.5812 25.4595 40.8061 25.5155L54.4755 30.9245C54.7005 30.9805 54.7565 31.2059 54.7005 31.4314C54.644 31.6564 54.4191 31.7694 54.1941 31.6564Z" fill="#E3EAF2"/>
<path d="M43.3373 41.2324L42.4939 40.8944C42.2689 40.8384 42.2124 40.613 42.2689 40.3875C42.3249 40.162 42.5499 40.106 42.7749 40.162L43.6188 40.5005C43.8438 40.5565 43.9003 40.782 43.8438 41.0074C43.7313 41.2324 43.5063 41.2889 43.3373 41.2324Z" fill="#E3EAF2"/>
<path d="M40.9196 40.2764L35.857 38.2482C35.632 38.1917 35.576 37.9667 35.632 37.7412C35.6885 37.5157 35.9135 37.4593 36.1385 37.5157L41.2011 39.544C41.426 39.6 41.4825 39.8255 41.426 40.051C41.37 40.2764 41.0886 40.3324 40.9196 40.2764Z" fill="#E3EAF2"/>
<path d="M60.6611 29.7411L51.8298 26.248C51.6049 26.192 51.5484 25.9665 51.6049 25.741C51.6609 25.5155 51.8858 25.4595 52.1108 25.5155L60.9421 29.0087C61.1671 29.0652 61.2236 29.2906 61.1671 29.5156C61.1111 29.7411 60.8296 29.7976 60.6611 29.7411Z" fill="#E3EAF2"/>
<path d="M48.9644 25.1203L42.158 22.4161C41.933 22.3596 41.8765 22.1342 41.933 21.9087C41.989 21.6837 42.214 21.6272 42.439 21.6837L49.2454 24.4439C49.4704 24.5004 49.5269 24.7259 49.4704 24.9514C49.4144 25.1763 49.1894 25.2328 48.9644 25.1203Z" fill="#E3EAF2"/>
<path d="M57.2318 18.3039L45.7562 13.7969C45.4752 13.6844 45.3627 13.4029 45.4752 13.1209C45.5877 12.8395 45.8687 12.7265 46.1502 12.8395L57.6253 17.3465C57.9067 17.459 58.0192 17.7404 57.9067 18.0224C57.7943 18.3039 57.5128 18.4169 57.2318 18.3039Z" fill="#CED7E2"/>
<path d="M49.074 18.2468L44.6864 16.5C44.4049 16.3875 44.2924 16.106 44.4049 15.8241C44.5174 15.5426 44.7989 15.4296 45.0799 15.5426L49.4675 17.2889C49.749 17.4014 49.8615 17.6834 49.749 17.9648C49.6365 18.2468 49.299 18.3593 49.074 18.2468Z" fill="#CED7E2"/>
<path d="M62.2388 14.304L59.595 21.0647C59.201 22.0226 59.7639 23.1495 60.6639 23.4875L66.6824 25.8537" fill="#E6EDF5"/>
<g filter="url(#filter1_d_252_9109)">
<path d="M40.1306 15.2611L51.0997 39.3176C51.4372 40.1625 51.0997 41.1204 50.2558 41.4583L26.7432 51.8247C25.8993 52.1627 24.9428 51.8247 24.6054 50.9793L10.9364 19.8811C10.599 19.0357 10.9364 18.0783 11.7804 17.7404L28.8245 10.1907L40.1306 15.2611Z" fill="white"/>
</g>
<path d="M43.4499 33.7402L29.331 39.9936C29.1625 40.1065 28.9376 39.9936 28.8251 39.8246C28.7126 39.6556 28.8251 39.4301 28.9936 39.3176L43.1124 33.0643C43.2814 32.9513 43.5064 33.0643 43.6189 33.2333C43.7314 33.4023 43.6189 33.6837 43.4499 33.7402Z" fill="#E3EAF2"/>
<path d="M27.5876 40.7263L25.1128 41.7967C24.9438 41.9097 24.7188 41.7967 24.6063 41.6277C24.4938 41.4588 24.6063 41.2333 24.7753 41.1208L27.2501 40.0504C27.4191 39.9379 27.6441 40.0504 27.7566 40.2194C27.869 40.4449 27.8126 40.6703 27.5876 40.7263Z" fill="#E3EAF2"/>
<path d="M41.7057 29.9668L35.4053 32.7275C35.2368 32.84 35.0118 32.7275 34.8993 32.558C34.7868 32.389 34.8993 32.164 35.0678 32.0511L41.3678 29.2909C41.5368 29.1779 41.7617 29.2909 41.8742 29.4598C41.9867 29.6288 41.9307 29.8538 41.7057 29.9668Z" fill="#E3EAF2"/>
<path d="M32.762 33.9101L23.5932 37.9667C23.4247 38.0792 23.1993 37.9667 23.0868 37.7972C22.9743 37.6282 23.0868 37.4033 23.2558 37.2903L32.4245 33.2342C32.5935 33.1212 32.8185 33.2342 32.931 33.4032C33.0435 33.6287 32.987 33.8536 32.762 33.9101Z" fill="#E3EAF2"/>
<path d="M40.1878 26.0779L37.769 27.1483C37.6 27.2613 37.3751 27.1483 37.2626 26.9793C37.1501 26.8103 37.2626 26.5853 37.4315 26.4724L39.8504 25.402C40.0188 25.2895 40.2438 25.402 40.3563 25.5709C40.4688 25.7964 40.3563 26.0219 40.1878 26.0779Z" fill="#E3EAF2"/>
<path d="M35.4629 28.164L22.019 34.1359C21.85 34.2484 21.6251 34.1359 21.5126 33.9669C21.4001 33.7979 21.5126 33.5725 21.6815 33.4595L35.1815 27.4881C35.3505 27.3751 35.5754 27.4881 35.6879 27.6571C35.7439 27.8821 35.6879 28.1076 35.4629 28.164Z" fill="#E3EAF2"/>
<path d="M34.6164 42.6428L33.7729 43.0368C33.604 43.1498 33.379 43.0368 33.2665 42.8678C33.154 42.6988 33.2665 42.4739 33.435 42.3609L34.2789 41.9664C34.4479 41.8539 34.6729 41.9664 34.7854 42.1354C34.8978 42.3049 34.7854 42.5299 34.6164 42.6428Z" fill="#E3EAF2"/>
<path d="M32.2009 43.7131L27.1948 45.9104C27.0258 46.0229 26.8008 45.9104 26.6883 45.7409C26.5759 45.5719 26.6883 45.347 26.8573 45.234L31.8634 43.0367C32.0324 42.9242 32.2574 43.0367 32.3699 43.2062C32.4824 43.3752 32.4259 43.6002 32.2009 43.7131Z" fill="#E3EAF2"/>
<path d="M38.6115 22.2483L29.9487 26.0789C29.7797 26.1919 29.5547 26.0789 29.4422 25.9099C29.3298 25.7409 29.4422 25.5155 29.6112 25.403L38.2735 21.5719C38.4425 21.4594 38.6675 21.5719 38.78 21.7409C38.8925 21.9099 38.78 22.1353 38.6115 22.2483Z" fill="#E3EAF2"/>
<path d="M27.1383 27.3181L20.4448 30.2478C20.2758 30.3608 20.0508 30.2478 19.9384 30.0788C19.8259 29.9098 19.9384 29.6844 20.1068 29.5719L26.8008 26.6422C26.9698 26.5297 27.1948 26.6422 27.3073 26.8112C27.4198 26.9802 27.3633 27.2056 27.1383 27.3181Z" fill="#E3EAF2"/>
<path d="M28.0935 16.6135L16.7869 21.571C16.5059 21.684 16.2244 21.571 16.112 21.2895C15.9995 21.0076 16.112 20.7261 16.3934 20.6136L27.6435 15.6557C27.9245 15.5432 28.206 15.6557 28.3185 15.9371C28.431 16.2191 28.3185 16.5006 28.0935 16.6135Z" fill="#CED7E2"/>
<path d="M22.2978 22.4163L17.9666 24.3316C17.6851 24.4441 17.4041 24.3316 17.2916 24.0501C17.1792 23.7681 17.2916 23.4867 17.5726 23.3737L21.9043 21.4584C22.1853 21.3459 22.4667 21.4584 22.5792 21.7399C22.6917 21.9653 22.5792 22.3033 22.2978 22.4163Z" fill="#CED7E2"/>
<path d="M28.8228 10.2473L31.7475 16.8951C32.1415 17.7965 33.3224 18.2475 34.2228 17.853L40.1289 15.2613" fill="#E6EDF5"/>
<g filter="url(#filter2_d_252_9109)">
<path d="M57.4015 17.1218L57.7954 50.9247C57.7954 52.0516 56.8955 53.009 55.7141 53.009H22.9197C21.7948 53.009 20.8384 52.1076 20.8384 50.9247V7.48784C20.8384 6.36097 21.7383 5.40356 22.9197 5.40356H46.7138L57.4015 17.1218Z" fill="white"/>
</g>
<path d="M36.8109 46.248H35.6295C35.3485 46.248 35.1235 46.0226 35.1235 45.7406C35.1235 45.4591 35.3485 45.2336 35.6295 45.2336H36.8109C37.0924 45.2336 37.3174 45.4591 37.3174 45.7406C37.3174 46.0226 37.0924 46.248 36.8109 46.248Z" fill="#E3EAF2"/>
<path d="M33.4917 46.248H26.5167C26.2352 46.248 26.0103 46.0226 26.0103 45.7406C26.0103 45.4591 26.2352 45.2336 26.5167 45.2336H33.4917C33.7731 45.2336 33.9981 45.4591 33.9981 45.7406C33.9981 46.0226 33.7731 46.248 33.4917 46.248Z" fill="#E3EAF2"/>
<path d="M42.6073 12.502H26.8571C26.5196 12.502 26.1821 12.22 26.1821 11.8256C26.1821 11.4876 26.4631 11.1497 26.8571 11.1497H42.6073C42.9448 11.1497 43.2823 11.4311 43.2823 11.8256C43.2258 12.22 42.9448 12.502 42.6073 12.502Z" fill="#CED7E2"/>
<path d="M32.8756 16.2754H26.8571C26.5196 16.2754 26.1821 15.9935 26.1821 15.599C26.1821 15.2611 26.4631 14.9231 26.8571 14.9231H32.8756C33.2131 14.9231 33.551 15.2051 33.551 15.599C33.4946 15.9935 33.2131 16.2754 32.8756 16.2754Z" fill="#CED7E2"/>
<path d="M46.7134 5.45825V14.7543C46.7134 16.0501 47.8383 17.1205 49.1322 17.1205H57.401" fill="#E6EDF5"/>
<path d="M39.2274 46.3072C39.1728 46.3072 39.063 46.3072 39.0084 46.2481C36.7613 44.9197 31.336 41.141 29.363 34.977C27.8292 29.8699 27.1711 25.8137 26.897 23.2572C26.897 23.151 26.9522 23.0919 26.9522 23.0388C27.0067 22.9797 27.0619 22.9266 27.2263 22.8735C28.3223 22.8144 30.2947 21.9819 30.3498 21.9819C31.336 21.4801 32.4872 20.8188 33.6377 20.0395C35.4463 18.8704 37.967 17.3176 39.1728 17.3176C40.3233 17.3176 42.7348 18.8704 44.4882 19.9804C45.7486 20.7598 46.8997 21.5391 47.9411 21.9819L48.0503 22.0351C49.6399 22.6491 50.5715 22.8735 51.1744 22.8735C51.229 22.8735 51.3388 22.9266 51.3934 22.9797C51.448 23.0388 51.5031 23.0919 51.448 23.2572C51.1744 25.8137 50.5164 29.8699 48.9819 34.977C47.1187 41.141 41.6934 44.8606 39.4469 46.195C39.3371 46.2481 39.2825 46.3072 39.2274 46.3072Z" fill="#2FABC4"/>
<path opacity="0.1" d="M38.8975 39.2512C39.2261 39.2512 39.3905 39.5285 39.3906 39.8059C39.3906 40.0834 39.1715 40.3616 38.8428 40.3616C38.7331 40.3616 38.6776 40.361 38.623 40.3079C38.623 40.361 38.5694 40.3612 38.5693 40.4202C38.5142 40.4733 38.4589 40.5858 38.4043 40.6389V40.6975L37.3633 41.7542V46.8616C37.2536 46.7494 37.0893 46.6963 36.9795 46.5842V41.5833L38.1299 40.4202C38.1845 40.3611 38.2402 40.3077 38.2402 40.1956C38.2947 40.1425 38.3493 40.0837 38.4043 39.9778C38.4043 39.9187 38.3496 39.865 38.3496 39.8059C38.3498 39.5286 38.5689 39.2513 38.8975 39.2512ZM42.1865 42.5872C42.5149 42.5874 42.7342 42.8646 42.7344 43.1418C42.7344 43.4723 42.515 43.6967 42.1865 43.6379C42.0775 43.6379 41.9674 43.6381 41.9121 43.5852L39.501 46.0295C39.5555 46.0826 39.5557 46.1415 39.5557 46.1946C39.5557 46.5252 39.2814 46.7493 39.0078 46.7493C38.6792 46.7492 38.46 46.472 38.46 46.1946C38.46 45.864 38.7337 45.64 39.0078 45.6399C39.0623 45.6399 39.1719 45.6397 39.2266 45.6926L41.6387 43.2483V43.1418C41.6388 42.8055 41.8579 42.5872 42.1865 42.5872ZM42.1289 45.804C42.1835 45.863 42.293 45.8632 42.3477 45.9163C42.0737 46.1404 41.8005 46.3058 41.5811 46.4709V46.3586C41.5812 46.0813 41.8004 45.804 42.1289 45.804ZM37.8555 38.0872C38.1296 38.1403 38.3486 38.4181 38.3486 38.6956C38.3485 38.973 38.1294 39.2502 37.8008 39.2502H37.6914V39.3088L35.7734 41.2522V45.6917C35.6638 45.5855 35.4994 45.4736 35.3896 45.3616V41.0276L37.417 38.9729V38.9192C37.3625 38.8072 37.3076 38.7539 37.3076 38.6418C37.3078 38.3645 37.5269 38.0872 37.8555 38.0872ZM34.2383 41.5305C34.5669 41.5305 34.786 41.7547 34.7861 42.0852C34.7861 42.3096 34.6214 42.5281 34.457 42.5872V44.6418C34.3479 44.5299 34.1833 44.4179 34.0742 44.3059V42.5872C33.8547 42.475 33.6904 42.3096 33.6904 42.0852C33.6906 41.8078 33.9097 41.5306 34.2383 41.5305ZM42.0762 39.7532C42.4048 39.7532 42.6239 40.0305 42.624 40.3079C42.624 40.6385 42.4049 40.8635 42.0762 40.8635C42.0209 40.8635 41.911 40.8629 41.8564 40.8098L39.5547 43.1418C39.6099 43.195 39.6104 43.2547 39.6104 43.3079C39.6101 43.6381 39.3364 43.8623 39.0625 43.8625C38.7339 43.8625 38.5148 43.5852 38.5146 43.3079C38.5146 42.9713 38.7884 42.7522 39.0625 42.7522C39.1172 42.7522 39.2268 42.7529 39.2812 42.8059L41.583 40.4739C41.5284 40.4207 41.5283 40.361 41.5283 40.3079C41.5285 39.9775 41.7471 39.7533 42.0762 39.7532ZM44.2656 42.7512C44.5392 42.7512 44.7042 42.9165 44.7588 43.1409H45.4717V43.1936C45.3069 43.3057 45.1975 43.4711 45.0879 43.5833H44.7041C44.5943 43.7486 44.43 43.8616 44.2656 43.8616C43.9915 43.8615 43.7178 43.6365 43.7178 43.3059C43.7179 43.0286 43.9371 42.7513 44.2656 42.7512ZM35.8848 36.3645C36.1582 36.3645 36.3778 36.5887 36.3779 36.9192C36.3779 37.1966 36.1586 37.4746 35.8301 37.4749C35.7203 37.4749 35.6654 37.4743 35.5557 37.4211L35.6104 37.4749L32.9805 40.1428V43.3606C32.8161 43.2484 32.7064 43.0831 32.5967 42.9709V39.9778L35.3369 37.1965V36.9192C35.3371 36.6418 35.5556 36.3646 35.8848 36.3645ZM48.4854 39.3625C48.4308 39.5278 48.3207 39.6401 48.2109 39.7522H46.1289L44.7041 41.1936C44.7584 41.2525 44.7588 41.364 44.7588 41.4172C44.7588 41.6946 44.54 41.9726 44.2109 41.9729C43.9374 41.9729 43.6631 41.7538 43.6631 41.4172C43.6633 41.1399 43.8824 40.8625 44.2109 40.8625C44.2658 40.8625 44.3201 40.8627 44.375 40.9153L45.9648 39.3098H48.4854V39.3625ZM47.2275 41.1936C47.1178 41.3647 46.9535 41.5303 46.8438 41.6956L46.3506 41.1936H47.2275ZM34.1846 36.7542H33.9111L31.5537 39.1399V41.6428C31.3894 41.4776 31.2806 41.3061 31.1709 41.1409V38.2542L31.499 38.6965L33.7461 36.4231H33.8008V18.3743C33.9106 18.2621 34.0202 18.2032 34.1846 18.0969V36.7542ZM36.8682 37.2551C37.1968 37.2551 37.4159 37.5324 37.416 37.8098C37.416 38.0873 37.1423 38.3655 36.8682 38.3655C36.7586 38.3655 36.6499 38.3648 36.5947 38.3059L36.6494 38.4768L34.9512 40.1956L34.8955 40.1418C34.9507 40.195 34.9512 40.2544 34.9512 40.3606C34.9512 40.6971 34.7311 40.9153 34.4023 40.9153C34.0737 40.9152 33.8545 40.6381 33.8545 40.3606C33.8546 40.0301 34.1283 39.806 34.4023 39.8059C34.5121 39.8059 34.6216 39.8055 34.6768 39.8645L36.4297 38.0872C36.3752 38.028 36.3203 37.9217 36.3203 37.8098C36.3205 37.4736 36.5942 37.2553 36.8682 37.2551ZM49.1992 38.0286C49.1441 38.1998 49.0347 38.3061 48.9795 38.4182H45.8555L44.4307 39.8645L44.3213 39.7522C44.3759 39.8053 44.376 39.9183 44.376 40.0305C44.3757 40.3079 44.1567 40.5852 43.8281 40.5852C43.5542 40.5851 43.2805 40.3609 43.2803 40.0305C43.2803 39.6999 43.4995 39.4749 43.8281 39.4749C43.9379 39.4749 44.0474 39.5281 44.1025 39.5872L45.6367 38.0286H49.1992ZM32.7041 35.9739L32.4844 35.9202C32.3201 35.8674 32.1019 35.9738 31.9922 36.1448V36.1975L30.0186 38.1995V39.5276C29.8543 39.3092 29.7455 39.0848 29.6357 38.8606V38.0286L31.7178 35.9202C31.8827 35.6959 32.1019 35.5305 32.376 35.5305V19.259C32.4305 19.2059 32.5943 19.0935 32.7041 19.0403V35.9739ZM43.0605 25.2571C43.3892 25.2571 43.6082 25.5344 43.6084 25.8118C43.6084 26.0361 43.4988 26.2547 43.2793 26.3137V35.1995L40.5391 37.9749C40.5942 38.087 40.5947 38.14 40.5947 38.2522C40.5947 38.5826 40.3209 38.8066 40.0469 38.8069C39.7181 38.8069 39.499 38.5828 39.499 38.2522C39.499 37.9216 39.7727 37.6975 40.0469 37.6975C40.1564 37.6975 40.2657 37.6973 40.3203 37.7502L40.2656 37.6975L42.8965 35.0286V26.3137C42.7321 26.2547 42.5674 26.0361 42.5674 25.8118C42.5675 25.5344 42.7321 25.2572 43.0605 25.2571ZM44.9258 35.7551C45.2543 35.7553 45.4735 36.0325 45.4736 36.3098C45.4736 36.6404 45.1998 36.8653 44.9258 36.8655H44.7607L43.7197 37.9221C43.7743 37.9753 43.7744 38.0877 43.7744 38.1409C43.7742 38.4772 43.5551 38.6956 43.2266 38.6956C42.8981 38.6955 42.6789 38.4771 42.6787 38.1409C42.6787 37.8103 42.9525 37.5853 43.2266 37.5852C43.2812 37.5852 43.3907 37.5858 43.4453 37.6389L44.4326 36.6409C44.4326 36.5288 44.377 36.4755 44.377 36.3635C44.377 36.086 44.6516 35.8083 44.9258 35.7551ZM41.5283 34.1438C41.8568 34.1439 42.076 34.4211 42.0762 34.6985C42.0762 35.029 41.8024 35.254 41.5283 35.2542H41.3633L41.3096 35.3069C41.2544 35.3659 41.2538 35.3661 41.1992 35.4192L39.5547 37.0842C39.5547 37.1963 39.6103 37.2553 39.6104 37.3616C39.6104 37.6979 39.3365 37.9219 39.0625 37.9221C38.7338 37.9221 38.5146 37.645 38.5146 37.3616C38.5147 37.0841 38.7884 36.8655 39.0625 36.8655H39.2266L40.9248 35.1418C40.9248 35.0887 40.9794 35.0885 40.9795 35.0295L41.0352 34.9758C40.9801 34.8639 40.9795 34.8106 40.9795 34.6985C40.9796 34.368 41.1997 34.1438 41.5283 34.1438ZM31.0586 34.7512L29.4697 36.3625V36.4749C29.4697 36.7523 29.251 37.0303 28.9219 37.0305C28.8129 37.0305 28.7031 36.9771 28.6484 36.9182C28.4841 36.806 28.4287 36.6402 28.4287 36.4749V36.3625C28.484 36.0854 28.7026 35.9202 28.9766 35.9202C29.0863 35.9202 29.1958 35.9734 29.251 36.0325L30.6758 34.5862V20.3157C30.7855 20.2567 30.9494 20.1501 31.0586 20.0911V34.7512ZM46.625 35.8684C46.844 35.8684 47.0636 36.0341 47.1182 36.1995H49.9131V36.2522C49.8585 36.4233 49.8036 36.5297 49.749 36.6418H47.1182C47.0636 36.8662 46.844 36.9788 46.625 36.9788C46.3509 36.9787 46.0771 36.7537 46.0771 36.4231C46.0773 36.1457 46.2965 35.8685 46.625 35.8684ZM40.2109 25.3118C40.5401 25.3118 40.7596 25.5891 40.7598 25.8665C40.7598 26.0908 40.5949 26.3153 40.376 26.3684V34.2571L39.1699 35.4788C39.0057 35.644 38.8959 35.7563 38.7861 35.8684C38.7315 35.9216 38.6219 36.0341 38.5674 36.0872C38.6218 36.1461 38.6221 36.199 38.6221 36.3108C38.6221 36.6414 38.3478 36.8665 38.0742 36.8665C37.7456 36.8664 37.5264 36.6414 37.5264 36.3108C37.5266 35.9746 37.8003 35.7562 38.0742 35.7561C38.1287 35.7561 38.1833 35.8095 38.2383 35.8098C38.3475 35.6976 38.4035 35.6437 38.5127 35.5315C38.6774 35.3664 38.7868 35.2539 38.8965 35.1418L39.9922 34.0325V26.3157C39.8278 26.2035 39.7178 26.038 39.7178 25.8137C39.7178 25.5363 39.8823 25.3118 40.2109 25.3118ZM38.8438 25.2571C39.1722 25.2572 39.3914 25.5344 39.3916 25.8118C39.3916 26.0361 39.2814 26.2546 39.0625 26.3137V33.7532L37.6377 35.1995C37.6923 35.2526 37.6924 35.3064 37.6924 35.3655C37.6921 35.6959 37.418 35.9202 37.1445 35.9202C36.8154 35.9201 36.5969 35.6958 36.5967 35.3655C36.5967 35.029 36.8704 34.8099 37.1445 34.8098C37.1991 34.8098 37.3087 34.8104 37.3633 34.8635L38.624 33.5881V26.3137C38.4597 26.2547 38.2949 26.0361 38.2949 25.8118C38.2951 25.5344 38.5146 25.2571 38.8438 25.2571ZM27.8818 34.3079C27.9364 34.2547 28.047 34.2551 28.1016 34.2551C28.3756 34.1963 28.6494 34.4207 28.6494 34.7512C28.6492 35.0285 28.4299 35.3057 28.1016 35.3059H27.9912C27.882 34.8631 27.7182 34.4202 27.6084 34.0305L27.8818 34.3079ZM44.7617 31.1965C45.0358 31.1965 45.3094 31.4208 45.3096 31.7512C45.3096 31.8103 45.3095 31.9227 45.2549 31.9758C45.3646 32.088 45.8032 32.5305 46.1865 32.9202C46.625 33.363 46.9537 33.7002 47.0635 33.8655H50.6592C50.6259 33.9727 50.6164 34.1065 50.5703 34.1956H46.8994L46.8438 34.1428C46.7344 34.0305 46.2959 33.588 45.9121 33.1985C45.419 32.6966 45.1448 32.4185 44.9805 32.2532C44.9258 32.2534 44.8162 32.3127 44.7617 32.3127C44.4876 32.3127 44.2139 32.0877 44.2139 31.7512C44.214 31.4739 44.4332 31.1966 44.7617 31.1965ZM35.7188 28.2571C36.0477 28.2573 36.2664 28.5345 36.2666 28.8118C36.2666 29.0893 36.1019 29.2547 35.9375 29.3137C35.9375 29.975 35.8828 32.0894 35.8828 33.0872L36.7598 32.1418C36.7599 32.0889 36.8145 32.0885 36.8145 32.0354V31.9231C36.8147 31.5869 37.0339 31.3685 37.3623 31.3684C37.6909 31.3684 37.9109 31.5868 37.9111 31.9231C37.9111 32.2537 37.6364 32.4788 37.3623 32.4788C37.2526 32.4788 37.144 32.4781 37.0889 32.4192L35.3896 34.1438L35.4443 33.5881C35.4444 33.361 35.499 30.8124 35.499 29.3137C35.3348 29.2545 35.1709 29.036 35.1709 28.8118C35.171 28.4813 35.3901 28.2571 35.7188 28.2571ZM50.6807 33.8655H50.6592C50.6656 33.8447 50.6718 33.8241 50.6807 33.8059V33.8655ZM41.6367 25.2571C41.9653 25.2571 42.1844 25.5344 42.1846 25.8118C42.1846 26.0361 42.0745 26.2015 41.9102 26.3137V32.3655C42.1297 32.4776 42.2402 32.6431 42.2402 32.8674C42.2402 33.1981 41.9655 33.4221 41.6914 33.4221C41.3628 33.422 41.1436 33.1449 41.1436 32.8674C41.1436 32.6431 41.3084 32.4186 41.5273 32.3655V26.3137C41.3084 26.2547 41.1436 26.0361 41.1436 25.8118C41.1437 25.5345 41.3628 25.2572 41.6367 25.2571ZM44.4336 27.6438C44.7622 27.6438 44.9813 27.9211 44.9814 28.2043C44.9814 28.3106 44.9268 28.37 44.9268 28.4231L46.7354 30.259L47.2832 30.6428H47.3926C47.7213 30.6428 47.9404 30.8679 47.9404 31.1985C47.9403 31.5348 47.7212 31.7532 47.3926 31.7532C47.0642 31.753 46.8449 31.4758 46.8447 31.1985C46.8447 31.0922 46.8442 31.0323 46.8994 30.9202L46.4609 30.5364L44.6523 28.7004C44.5977 28.7594 44.4882 28.76 44.4336 28.76C44.1049 28.7599 43.8857 28.4818 43.8857 28.2043C43.8859 27.868 44.1051 27.6439 44.4336 27.6438ZM47.7188 27.5891C48.0472 27.5893 48.2664 27.8665 48.2666 28.1438C48.2666 28.2557 48.2666 28.3678 48.2119 28.4211L50.4033 30.6418H50.5137C50.8421 30.6421 51.0615 30.8661 51.0615 31.1965C51.0615 31.5329 50.8421 31.751 50.5137 31.7512C50.1849 31.7512 49.9658 31.474 49.9658 31.1965C49.9658 31.0312 50.0196 30.9777 50.0742 30.8655L47.9375 28.6995C47.8826 28.7579 47.8283 28.7581 47.7734 28.7581C47.4448 28.7581 47.2257 28.4808 47.2256 28.1975C47.2256 27.8669 47.4998 27.6422 47.7188 27.5891ZM27.8252 21.3137C27.7706 21.4259 27.6605 21.5379 27.5508 21.5911V30.5364C27.7157 30.7017 27.8809 30.8667 27.8809 31.0911C27.8809 31.3686 27.6608 31.6458 27.332 31.6458C27.1678 31.6457 27.0583 31.5869 26.9492 31.4749C26.8394 31.3686 26.7842 31.2564 26.7842 31.0911C26.7842 31.032 26.7837 30.9196 26.8389 30.8665C26.8935 30.7012 27.0037 30.5895 27.168 30.5364V21.6506C27.0582 21.6506 27.0038 21.5378 26.9492 21.4788C27.0039 21.4788 27.1135 21.479 27.168 21.426C27.3323 21.426 27.5512 21.3727 27.8252 21.3137ZM28.9775 26.7571C28.9775 27.7017 28.9219 28.5878 28.9219 29.5325C28.9219 29.7567 28.9217 30.0339 28.8672 30.2581C29.1413 30.3112 29.252 30.4771 29.252 30.7014C29.2518 30.9788 29.0317 31.2561 28.7031 31.2561C28.4291 31.256 28.1555 31.0318 28.1553 30.7014C28.1553 30.4771 28.3201 30.2585 28.5391 30.1995V29.4788C28.5936 28.5873 28.5938 27.6427 28.5938 26.7571V21.2014C28.758 21.1483 28.8678 21.095 28.9775 21.095V26.7571ZM50.5703 27.5891C50.8438 27.5891 51.118 27.8133 51.1182 28.1438C51.1182 28.2559 51.1179 28.3092 51.0635 28.4211L51.8311 29.2014C51.776 29.3665 51.7752 29.5314 51.7207 29.6965L50.7344 28.6995H50.5703C50.2962 28.6994 50.0225 28.4803 50.0225 28.1438C50.0226 27.8664 50.2412 27.5892 50.5703 27.5891ZM26.0742 27.3118C25.9099 26.3671 25.7996 25.4813 25.6904 24.7551V22.4817C25.7996 22.2575 25.9099 22.0923 26.0742 21.927V27.3118ZM35.7188 17.429C36.0477 17.4292 36.2664 17.7064 36.2666 17.9836C36.2666 18.2611 36.1019 18.4266 35.9375 18.4797V25.76C36.1019 25.8131 36.2666 26.0376 36.2666 26.2561C36.2664 26.5923 36.0477 26.8106 35.7188 26.8108C35.3902 26.8108 35.1711 26.5335 35.1709 26.2561C35.1709 26.0378 35.2803 25.8133 35.499 25.76V18.4797C35.2803 18.3734 35.1709 18.202 35.1709 17.9836C35.171 17.6473 35.3901 17.429 35.7188 17.429ZM45.582 25.3118C45.8014 25.312 46.0196 25.4832 46.0742 25.7014H52.4863V25.76C52.4863 25.8661 52.4318 26.0375 52.4316 26.1438H46.0742C45.9651 26.3149 45.8014 26.4278 45.582 26.428C45.3079 26.428 45.0342 26.203 45.0342 25.8665C45.0343 25.536 45.2534 25.3118 45.582 25.3118ZM40.542 16.3186L37.7461 19.1467V23.6458C37.9656 23.7048 38.0761 23.9234 38.0762 24.1477C38.0762 24.4252 37.8561 24.7024 37.5273 24.7024C37.2533 24.7023 36.9795 24.4783 36.9795 24.1477C36.9796 23.9234 37.1443 23.7048 37.3086 23.6458V18.9817L40.1035 16.1477C40.2678 16.2067 40.3771 16.2596 40.542 16.3186ZM40.4297 23.1497C40.6486 23.1497 40.8683 23.315 40.9229 23.5334H52.7598C52.7598 23.6456 52.7602 23.8109 52.7051 23.9231H40.9229C40.8131 24.0884 40.6486 24.26 40.4297 24.26C40.1556 24.2599 39.8818 24.0349 39.8818 23.7043C39.882 23.427 40.1012 23.1497 40.4297 23.1497ZM39.2812 19.595C39.6102 19.5952 39.8289 19.8724 39.8291 20.1497C39.8291 20.3681 39.6644 20.5336 39.5 20.6458V22.2043C39.7189 22.3106 39.8291 22.482 39.8291 22.7004C39.8291 23.0368 39.6103 23.2549 39.2812 23.2551C38.9525 23.2551 38.7334 22.9779 38.7334 22.7004C38.7335 22.4821 38.8974 22.2575 39.1162 22.2043V20.6458C38.8974 20.5925 38.7334 20.368 38.7334 20.1497C38.7336 19.8723 38.9526 19.595 39.2812 19.595ZM41.8555 21.5911C42.1296 21.5911 42.3491 21.7564 42.4043 21.9807H51.0625C51.1171 21.8154 51.3361 21.6497 51.5557 21.6497C51.8843 21.6497 52.1035 21.8688 52.1035 22.2053C52.1034 22.5358 51.8297 22.7599 51.5557 22.76C51.3361 22.76 51.1171 22.6475 51.0625 22.4231H42.3486C42.2394 22.5943 42.0744 22.7014 41.8555 22.7014C41.5268 22.7014 41.3076 22.4822 41.3076 22.1458C41.3078 21.8153 41.5815 21.5911 41.8555 21.5911ZM40.8164 20.0911C41.0357 20.0912 41.1999 20.2033 41.3096 20.3684H47.9404C48.1599 20.4805 48.3787 20.5932 48.543 20.7053C48.5433 20.7584 48.6531 20.8176 48.7627 20.8176H41.3096C41.2543 21.0358 41.0357 21.2012 40.8164 21.2014C40.5429 21.2014 40.2686 20.9823 40.2686 20.6458C40.2687 20.3684 40.4878 20.0911 40.8164 20.0911ZM40.8711 18.3137C41.0901 18.3137 41.3091 18.4794 41.3643 18.6506H44.9268C45.1456 18.8158 45.3652 18.9278 45.584 19.093H41.3643C41.3091 19.3174 41.0901 19.4241 40.8711 19.4241C40.597 19.424 40.3232 19.2049 40.3232 18.8684C40.3234 18.538 40.542 18.3138 40.8711 18.3137ZM42.3506 17.093C42.6247 17.2642 42.9536 17.4297 43.2822 17.595C43.1731 17.7601 43.0086 17.8721 42.8438 17.8723C42.5703 17.8723 42.296 17.6481 42.2959 17.3176C42.2959 17.2645 42.296 17.1521 42.3506 17.093Z" fill="white"/>
<g filter="url(#filter3_d_252_9109)">
<path d="M39.1165 15.8176C39.9934 15.8177 40.9249 16.0956 42.4046 16.928C43.281 17.4298 44.2133 18.038 45.1448 18.593C47.2818 19.9272 49.4734 21.3145 51.1175 21.3147C51.6656 21.3147 52.1589 21.5386 52.4876 21.928C52.8163 22.3707 52.9806 22.8729 52.9261 23.3157C52.9261 23.3157 52.9265 23.5933 52.8714 23.8118C52.3783 27.8148 51.7211 31.1452 50.8441 33.9202C50.7349 34.2565 50.6247 34.5868 50.515 34.9231C50.3506 35.3659 50.1862 35.8094 50.0218 36.2522C49.9672 36.3644 49.9123 36.5297 49.8577 36.6418C48.7066 39.4758 47.2818 41.6427 45.2542 43.5852C44.8709 43.9749 44.4319 44.3645 43.9935 44.7483C43.5551 45.1379 43.062 45.5273 42.4593 45.97C40.7059 47.3043 39.8833 47.7473 39.1712 47.7473C38.8426 47.7473 38.5682 47.6412 38.2396 47.47C33.7461 44.8072 30.0747 40.8631 28.4857 36.9192C28.4305 36.754 28.3211 36.5298 28.2659 36.3645C27.5539 34.5873 26.4027 29.8102 25.9642 27.3127C24.978 21.9816 25.3068 21.7575 27.3343 21.3147C28.1561 21.1494 29.2529 20.925 30.6224 20.1516C31.7734 19.4255 32.759 18.8696 33.5814 18.3147C36.2664 16.6497 37.6372 15.8176 39.1165 15.8176ZM39.1165 17.4817C38.0205 17.482 36.2124 18.5917 34.2942 19.8137C31.938 21.3133 29.3075 22.9783 27.1702 23.0374C27.1157 23.0374 27.0607 23.038 27.0062 23.0911V23.2024C27.2803 25.6998 27.9375 29.7565 29.472 34.8635C31.445 40.9744 36.8157 44.6942 39.0628 46.0286C39.1173 46.0814 39.1724 46.0813 39.2269 46.0813H39.3362C40.158 45.5854 41.4184 44.7472 42.7884 43.5842C43.1723 43.2477 43.6105 42.8636 43.9944 42.4739C45.8576 40.6967 47.7752 38.1994 48.762 34.9758C48.9263 34.5331 49.0367 34.0904 49.1458 33.6418C49.201 33.3645 49.3103 33.1457 49.3655 32.8684C50.5161 28.647 51.0093 25.3108 51.2288 23.2561C51.2288 23.2031 51.1734 23.1499 51.1732 23.0911C51.1732 23.0379 51.1731 23.0374 51.1185 23.0374C49.0364 23.0373 46.2964 21.3133 43.8304 19.8137C41.9672 18.5916 40.1579 17.4817 39.1165 17.4817Z" fill="#49C1DF"/>
</g>
<path d="M39.1157 20.7532C40.8454 20.7532 42.2866 22.2173 42.2866 23.9622V27.1711C44.0163 28.2436 45.1694 30.1838 45.0737 32.5159C45.0737 35.9204 42.383 38.6438 39.02 38.6438C35.6573 38.6436 32.9673 35.9203 32.9673 32.5159C32.9673 31.452 33.2561 30.3798 33.7358 29.5032C34.313 28.5329 34.9843 27.8512 35.8491 27.2639V24.0637C35.8492 23.0851 36.234 22.3104 36.811 21.7317C37.4828 21.1446 38.2519 20.7533 39.1157 20.7532ZM40.5581 31.7415C40.5581 30.8648 39.6933 30.0903 38.7319 30.2776C38.1558 30.3798 37.6752 30.8652 37.5796 31.4524C37.4833 32.1246 37.772 32.805 38.3481 33.1028V34.7542C38.3481 34.9498 38.5399 35.1368 38.7319 35.137H39.4048C39.5969 35.137 39.7896 34.9499 39.7896 34.7542V33.1028C40.2699 32.8049 40.5581 32.32 40.5581 31.7415ZM39.021 22.3098C38.5404 22.3099 38.0605 22.5058 37.772 22.7952C37.4836 23.0845 37.2916 23.5778 37.2915 24.0627V26.4885C37.8685 26.2928 38.4448 26.1995 39.021 26.1995C39.6564 26.1995 40.2059 26.2831 40.7505 26.4573V24.0627C40.7503 23.0841 39.9813 22.3098 39.021 22.3098ZM40.7505 26.4885H40.8462C40.8143 26.4777 40.7824 26.4675 40.7505 26.4573V26.4885Z" fill="#FEFEFF"/>
<defs>
<filter id="filter0_d_252_9109" x="19.4728" y="1.96295" width="58.0164" height="65.9119" filterUnits="userSpaceOnUse" color-interpolation-filters="sRGB">
<feFlood flood-opacity="0" result="BackgroundImageFix"/>
<feColorMatrix in="SourceAlpha" type="matrix" values="0 0 0 0 0 0 0 0 0 0 0 0 0 0 0 0 0 0 127 0" result="hardAlpha"/>
<feOffset dy="5.40351"/>
<feGaussianBlur stdDeviation="5.40351"/>
<feColorMatrix type="matrix" values="0 0 0 0 0.396078 0 0 0 0 0.478431 0 0 0 0 0.576471 0 0 0 0.18 0"/>
<feBlend mode="normal" in2="BackgroundImageFix" result="effect1_dropShadow_252_9109"/>
<feBlend mode="normal" in="SourceGraphic" in2="effect1_dropShadow_252_9109" result="shape"/>
</filter>
<filter id="filter1_d_252_9109" x="0.00011158" y="4.78717" width="62.0359" height="63.3775" filterUnits="userSpaceOnUse" color-interpolation-filters="sRGB">
<feFlood flood-opacity="0" result="BackgroundImageFix"/>
<feColorMatrix in="SourceAlpha" type="matrix" values="0 0 0 0 0 0 0 0 0 0 0 0 0 0 0 0 0 0 127 0" result="hardAlpha"/>
<feOffset dy="5.40351"/>
<feGaussianBlur stdDeviation="5.40351"/>
<feColorMatrix type="matrix" values="0 0 0 0 0.396078 0 0 0 0 0.478431 0 0 0 0 0.576471 0 0 0 0.18 0"/>
<feBlend mode="normal" in2="BackgroundImageFix" result="effect1_dropShadow_252_9109"/>
<feBlend mode="normal" in="SourceGraphic" in2="effect1_dropShadow_252_9109" result="shape"/>
</filter>
<filter id="filter2_d_252_9109" x="10.0314" y="5.57899e-05" width="58.5711" height="69.2195" filterUnits="userSpaceOnUse" color-interpolation-filters="sRGB">
<feFlood flood-opacity="0" result="BackgroundImageFix"/>
<feColorMatrix in="SourceAlpha" type="matrix" values="0 0 0 0 0 0 0 0 0 0 0 0 0 0 0 0 0 0 127 0" result="hardAlpha"/>
<feOffset dy="5.40351"/>
<feGaussianBlur stdDeviation="5.40351"/>
<feColorMatrix type="matrix" values="0 0 0 0 0.396078 0 0 0 0 0.478431 0 0 0 0 0.576471 0 0 0 0.18 0"/>
<feBlend mode="normal" in2="BackgroundImageFix" result="effect1_dropShadow_252_9109"/>
<feBlend mode="normal" in="SourceGraphic" in2="effect1_dropShadow_252_9109" result="shape"/>
</filter>
<filter id="filter3_d_252_9109" x="21.4984" y="14.3439" width="35.3679" height="39.7893" filterUnits="userSpaceOnUse" color-interpolation-filters="sRGB">
<feFlood flood-opacity="0" result="BackgroundImageFix"/>
<feColorMatrix in="SourceAlpha" type="matrix" values="0 0 0 0 0 0 0 0 0 0 0 0 0 0 0 0 0 0 127 0" result="hardAlpha"/>
<feOffset dy="2.45614"/>
<feGaussianBlur stdDeviation="1.96491"/>
<feColorMatrix type="matrix" values="0 0 0 0 0.113725 0 0 0 0 0.294118 0 0 0 0 1 0 0 0 0.22 0"/>
<feBlend mode="normal" in2="BackgroundImageFix" result="effect1_dropShadow_252_9109"/>
<feBlend mode="normal" in="SourceGraphic" in2="effect1_dropShadow_252_9109" result="shape"/>
</filter>
</defs>
</svg>
