<svg width="40" height="37" viewBox="0 0 40 37" fill="none" xmlns="http://www.w3.org/2000/svg">
<path d="M39.9966 7.40428C37.5277 8.34119 35.6352 9.78856 34.3189 11.7464C33.0849 13.7042 32.4683 16.0448 32.4691 18.7682L40 18.766L40.0051 36L24.573 36.0046L24.5679 18.7706C24.5672 16.3876 24.978 14.1747 25.8005 12.1319C26.6229 10.0891 27.7335 8.30156 29.1322 6.76923C30.5309 5.15179 32.1354 3.78961 33.9458 2.68268C35.8385 1.57574 37.8547 0.681516 39.9944 2.54621e-05L39.9966 7.40428ZM15.4287 7.41161C12.9598 8.34852 11.0673 9.79589 9.75098 11.7537C8.51699 13.7115 7.90041 16.0522 7.90122 18.7756L15.4321 18.7733L15.4372 36.0074L0.00512845 36.012L-1.48032e-05 18.7779C-0.000725969 16.3949 0.410137 14.1821 1.23257 12.1393C2.05501 10.0965 3.16559 8.30889 4.56431 6.77656C5.963 5.15912 7.56753 3.79694 9.3779 2.69002C11.2706 1.58307 13.2868 0.688848 15.4265 0.0073574L15.4287 7.41161Z" fill="#DCE4F1"/>
</svg>
