<svg width="24" height="24" viewBox="0 0 24 24" fill="none" xmlns="http://www.w3.org/2000/svg">
<rect x="0.5" y="0.5" width="23" height="23" rx="11.5" fill="#F2FFF8"/>
<rect x="0.5" y="0.5" width="23" height="23" rx="11.5" stroke="#BFEDDD"/>
<path d="M18.3112 11.3765C18.3112 14.8403 15.7966 18.0845 12.3612 19.0336C12.1275 19.0974 11.8725 19.0974 11.6387 19.0336C8.2033 18.0845 5.68872 14.8403 5.68872 11.3765V8.26695C5.68872 7.68612 6.1279 7.02737 6.67331 6.80779L10.6187 5.19281C11.5041 4.83156 12.5029 4.83156 13.3883 5.19281L17.3337 6.80779C17.8721 7.02737 18.3183 7.68612 18.3183 8.26695L18.3112 11.3765Z" stroke="#45A081" stroke-width="1.4" stroke-linecap="round" stroke-linejoin="round"/>
<path d="M11.9994 12.354C12.7818 12.354 13.4161 11.7198 13.4161 10.9374C13.4161 10.155 12.7818 9.52069 11.9994 9.52069C11.217 9.52069 10.5828 10.155 10.5828 10.9374C10.5828 11.7198 11.217 12.354 11.9994 12.354Z" stroke="#45A081" stroke-width="1.4" stroke-miterlimit="10" stroke-linecap="round" stroke-linejoin="round"/>
<path d="M11.9995 12.354V14.479" stroke="#45A081" stroke-width="1.4" stroke-miterlimit="10" stroke-linecap="round" stroke-linejoin="round"/>
</svg>
