<svg width="24" height="24" viewBox="0 0 24 24" fill="none" xmlns="http://www.w3.org/2000/svg">
<g clip-path="url(#clip0_243_8341)">
<path d="M17.7651 5.88414H6.25708C5.98565 5.88414 5.72536 5.99171 5.53343 6.18321C5.3415 6.3747 5.23364 6.63441 5.23364 6.90523V14.8318C5.23364 15.1026 5.3415 15.3623 5.53343 15.5538C5.72536 15.7453 5.98565 15.8529 6.25708 15.8529H12.9867C13.1291 15.8552 13.2655 15.9102 13.3695 16.0072L15.4238 18.0567C15.4495 18.0834 15.4827 18.1017 15.5191 18.1092C15.5554 18.1167 15.5932 18.1131 15.6274 18.0988C15.6617 18.0845 15.6908 18.0602 15.7109 18.0291C15.7311 17.998 15.7413 17.9615 15.7403 17.9245V16.0586C15.7422 16.0046 15.7645 15.9533 15.8028 15.9152C15.841 15.877 15.8924 15.8547 15.9465 15.8529H17.7799C18.0513 15.8529 18.3116 15.7453 18.5035 15.5538C18.6954 15.3623 18.8032 15.1026 18.8032 14.8318V6.90523C18.8033 6.76988 18.7763 6.63591 18.724 6.51106C18.6716 6.3862 18.5949 6.27297 18.4983 6.17796C18.4017 6.08295 18.2872 6.00803 18.1613 5.95758C18.0354 5.90714 17.9007 5.88219 17.7651 5.88414V5.88414Z" stroke="#30363C" stroke-width="1.5" stroke-linecap="round" stroke-linejoin="round"/>
<path d="M11.4114 11.3712L11.2715 8.04334C11.2686 7.98363 11.2777 7.92393 11.2986 7.86789C11.3195 7.81184 11.3516 7.76061 11.3929 7.71732C11.4342 7.67403 11.4839 7.63959 11.539 7.61608C11.5941 7.59256 11.6534 7.58049 11.7133 7.58057H12.3686C12.4282 7.58151 12.487 7.59427 12.5417 7.61814C12.5963 7.64201 12.6456 7.67648 12.6867 7.71956C12.7278 7.76264 12.76 7.81346 12.7812 7.86905C12.8024 7.92464 12.8124 7.98388 12.8104 8.04334L12.6705 11.3712C12.6648 11.4842 12.6158 11.5908 12.5335 11.6687C12.4513 11.7467 12.3421 11.7901 12.2287 11.7899H11.8532C11.7392 11.7919 11.629 11.7491 11.5464 11.6708C11.4638 11.5925 11.4153 11.4848 11.4114 11.3712ZM12.0373 13.8836C11.842 13.8836 11.6547 13.8062 11.5166 13.6684C11.3786 13.5307 11.301 13.3438 11.301 13.1489C11.301 12.9541 11.3786 12.7673 11.5166 12.6295C11.6547 12.4917 11.842 12.4143 12.0373 12.4143C12.2325 12.4143 12.4198 12.4917 12.5579 12.6295C12.696 12.7673 12.7735 12.9541 12.7735 13.1489C12.7778 13.251 12.7606 13.3529 12.7232 13.448C12.6857 13.5431 12.6288 13.6293 12.556 13.7012C12.4833 13.7731 12.3963 13.8291 12.3006 13.8655C12.205 13.902 12.1027 13.9182 12.0005 13.913L12.0373 13.8836Z" fill="#30363C"/>
</g>
<defs>
<clipPath id="clip0_243_8341">
<rect width="14.6667" height="13.3333" fill="white" transform="translate(4.66675 5.33325)"/>
</clipPath>
</defs>
</svg>
