<svg width="24" height="24" viewBox="0 0 24 24" fill="none" xmlns="http://www.w3.org/2000/svg">
<g clip-path="url(#clip0_243_8315)">
<path d="M6.74009 4.54738H17.9335C18.1321 4.54642 18.3289 4.58441 18.5127 4.65918C18.6965 4.73395 18.8635 4.84402 19.0043 4.98306C19.1451 5.12211 19.2568 5.28739 19.333 5.46941C19.4093 5.65144 19.4485 5.84661 19.4485 6.04373V17.9707C19.4485 18.3579 19.2935 18.7292 19.0177 19.003C18.7418 19.2768 18.3677 19.4306 17.9776 19.4306H6.74009C6.34999 19.4306 5.97586 19.2768 5.70002 19.003C5.42418 18.7292 5.26921 18.3579 5.26921 17.9707V6.02913C5.26628 5.83559 5.30217 5.6434 5.37478 5.46374C5.44738 5.28409 5.55526 5.12056 5.69214 4.98268C5.82902 4.84479 5.99216 4.73529 6.17206 4.66056C6.35197 4.58583 6.54506 4.54736 6.74009 4.54738V4.54738Z" stroke="#30363C" stroke-width="1.5" stroke-linecap="round" stroke-linejoin="round"/>
<path d="M11.1602 8.65698H16.7716" stroke="#30363C" stroke-width="1.5" stroke-linecap="round" stroke-linejoin="round"/>
<path d="M8.58611 9.58448C9.10195 9.58448 9.52012 9.16945 9.52012 8.65748C9.52012 8.1455 9.10195 7.73047 8.58611 7.73047C8.07027 7.73047 7.6521 8.1455 7.6521 8.65748C7.6521 9.16945 8.07027 9.58448 8.58611 9.58448Z" fill="#30363C"/>
<path d="M11.1602 12H16.7716" stroke="#30363C" stroke-width="1.5" stroke-linecap="round" stroke-linejoin="round"/>
<path d="M8.58611 12.9275C9.10195 12.9275 9.52012 12.5125 9.52012 12.0005C9.52012 11.4885 9.10195 11.0735 8.58611 11.0735C8.07027 11.0735 7.6521 11.4885 7.6521 12.0005C7.6521 12.5125 8.07027 12.9275 8.58611 12.9275Z" fill="#30363C"/>
<path d="M11.1602 15.343H16.7716" stroke="#30363C" stroke-width="1.5" stroke-linecap="round" stroke-linejoin="round"/>
<path d="M8.58611 16.27C9.10195 16.27 9.52012 15.855 9.52012 15.343C9.52012 14.8311 9.10195 14.416 8.58611 14.416C8.07027 14.416 7.6521 14.8311 7.6521 15.343C7.6521 15.855 8.07027 16.27 8.58611 16.27Z" fill="#30363C"/>
</g>
<defs>
<clipPath id="clip0_243_8315">
<rect width="15.3045" height="16" fill="white" transform="translate(4.69556 4)"/>
</clipPath>
</defs>
</svg>
